<svg width="103" height="72" viewBox="0 0 103 72" fill="none" xmlns="http://www.w3.org/2000/svg">
<g clip-path="url(#clip0_201_26648)">
<rect width="103" height="72" rx="36" fill="#FC6432"/>
<path d="M-13 22.5892C-13 22.5892 3.86415 6.86304 17.3907 5.69467C20.2373 5.44879 21.8587 5.46871 24.707 5.69467C40.1155 6.91707 43.6109 24.4326 59.0372 25.405C61.2307 25.5432 62.4703 25.5196 64.6651 25.405C84.3516 24.377 108 -0.5 108 -0.5" stroke="#FFB2E8" stroke-width="10"/>
<path d="M-13 44.5892C-13 44.5892 3.86415 28.863 17.3907 27.6947C20.2373 27.4488 21.8587 27.4687 24.707 27.6947C40.1155 28.9171 43.6109 46.4326 59.0372 47.405C61.2307 47.5432 62.4703 47.5196 64.6651 47.405C84.3516 46.377 108 21.5 108 21.5" stroke="#FFB2E8" stroke-width="10"/>
<path d="M-13 67.5892C-13 67.5892 3.86415 51.863 17.3907 50.6947C20.2373 50.4488 21.8587 50.4687 24.707 50.6947C40.1155 51.9171 43.6109 69.4326 59.0372 70.405C61.2307 70.5432 62.4703 70.5196 64.6651 70.405C84.3516 69.377 108 44.5 108 44.5" stroke="#FFB2E8" stroke-width="10"/>
</g>
<defs>
<clipPath id="clip0_201_26648">
<rect width="103" height="72" rx="36" fill="white"/>
</clipPath>
</defs>
</svg>
