<svg width="103" height="72" viewBox="0 0 103 72" fill="none" xmlns="http://www.w3.org/2000/svg">
<g clip-path="url(#clip0_201_26653)">
<rect width="103" height="72" rx="36" fill="#4376D4"/>
<path d="M4.6 36.624C2.24267 36.624 0.197334 36.208 -1.536 35.376C-3.26933 34.5093 -4.708 33.2787 -5.852 31.684C-6.96133 30.0893 -7.79333 28.1307 -8.348 25.808C-8.868 23.4853 -9.128 20.8333 -9.128 17.852C-9.128 14.9053 -8.868 12.2707 -8.348 9.948C-7.79333 7.59067 -6.96133 5.61467 -5.852 4.02C-4.708 2.42533 -3.26933 1.212 -1.536 0.379997C0.197334 -0.486669 2.24267 -0.920002 4.6 -0.920002C9.31467 -0.920002 12.7813 0.726665 15 4.02C17.2187 7.31333 18.328 11.924 18.328 17.852C18.328 23.78 17.2187 28.3907 15 31.684C12.7813 34.9773 9.31467 36.624 4.6 36.624ZM4.6 31.164C7.096 31.164 8.84667 30.28 9.852 28.512C10.892 26.7093 11.412 24.2307 11.412 21.076V14.628C11.412 11.4733 10.892 9.012 9.852 7.244C8.84667 5.44133 7.096 4.54 4.6 4.54C2.104 4.54 0.336001 5.44133 -0.703999 7.244C-1.70933 9.012 -2.212 11.4733 -2.212 14.628V21.076C-2.212 24.2307 -1.70933 26.7093 -0.703999 28.512C0.336001 30.28 2.104 31.164 4.6 31.164ZM4.6 20.92C3.38667 20.92 2.53733 20.6773 2.052 20.192C1.60133 19.7067 1.376 19.1173 1.376 18.424V17.28C1.376 16.5867 1.60133 15.9973 2.052 15.512C2.53733 15.0267 3.38667 14.784 4.6 14.784C5.81333 14.784 6.64533 15.0267 7.096 15.512C7.58133 15.9973 7.824 16.5867 7.824 17.28V18.424C7.824 19.1173 7.58133 19.7067 7.096 20.192C6.64533 20.6773 5.81333 20.92 4.6 20.92ZM24.9117 36V30.436H34.8957V4.644H34.4277L26.5237 14.004L22.2597 10.416L31.2557 -0.296001H41.7077V30.436H49.9237V36H24.9117ZM66.9594 36.624C64.602 36.624 62.5567 36.208 60.8234 35.376C59.09 34.5093 57.6514 33.2787 56.5074 31.684C55.398 30.0893 54.566 28.1307 54.0114 25.808C53.4914 23.4853 53.2314 20.8333 53.2314 17.852C53.2314 14.9053 53.4914 12.2707 54.0114 9.948C54.566 7.59067 55.398 5.61467 56.5074 4.02C57.6514 2.42533 59.09 1.212 60.8234 0.379997C62.5567 -0.486669 64.602 -0.920002 66.9594 -0.920002C71.674 -0.920002 75.1407 0.726665 77.3594 4.02C79.578 7.31333 80.6874 11.924 80.6874 17.852C80.6874 23.78 79.578 28.3907 77.3594 31.684C75.1407 34.9773 71.674 36.624 66.9594 36.624ZM66.9594 31.164C69.4554 31.164 71.206 30.28 72.2114 28.512C73.2514 26.7093 73.7714 24.2307 73.7714 21.076V14.628C73.7714 11.4733 73.2514 9.012 72.2114 7.244C71.206 5.44133 69.4554 4.54 66.9594 4.54C64.4634 4.54 62.6954 5.44133 61.6554 7.244C60.65 9.012 60.1474 11.4733 60.1474 14.628V21.076C60.1474 24.2307 60.65 26.7093 61.6554 28.512C62.6954 30.28 64.4634 31.164 66.9594 31.164ZM66.9594 20.92C65.746 20.92 64.8967 20.6773 64.4114 20.192C63.9607 19.7067 63.7354 19.1173 63.7354 18.424V17.28C63.7354 16.5867 63.9607 15.9973 64.4114 15.512C64.8967 15.0267 65.746 14.784 66.9594 14.784C68.1727 14.784 69.0047 15.0267 69.4554 15.512C69.9407 15.9973 70.1834 16.5867 70.1834 17.28V18.424C70.1834 19.1173 69.9407 19.7067 69.4554 20.192C69.0047 20.6773 68.1727 20.92 66.9594 20.92ZM87.2711 36V30.436H97.2551V4.644H96.7871L88.8831 14.004L84.6191 10.416L93.6151 -0.296001H104.067V30.436H112.283V36H87.2711Z" fill="#375A9D"/>
<path d="M4.6 72.624C2.24267 72.624 0.197334 72.208 -1.536 71.376C-3.26933 70.5093 -4.708 69.2787 -5.852 67.684C-6.96133 66.0893 -7.79333 64.1307 -8.348 61.808C-8.868 59.4853 -9.128 56.8333 -9.128 53.852C-9.128 50.9053 -8.868 48.2707 -8.348 45.948C-7.79333 43.5907 -6.96133 41.6147 -5.852 40.02C-4.708 38.4253 -3.26933 37.212 -1.536 36.38C0.197334 35.5133 2.24267 35.08 4.6 35.08C9.31467 35.08 12.7813 36.7267 15 40.02C17.2187 43.3133 18.328 47.924 18.328 53.852C18.328 59.78 17.2187 64.3907 15 67.684C12.7813 70.9773 9.31467 72.624 4.6 72.624ZM4.6 67.164C7.096 67.164 8.84667 66.28 9.852 64.512C10.892 62.7093 11.412 60.2307 11.412 57.076V50.628C11.412 47.4733 10.892 45.012 9.852 43.244C8.84667 41.4413 7.096 40.54 4.6 40.54C2.104 40.54 0.336001 41.4413 -0.703999 43.244C-1.70933 45.012 -2.212 47.4733 -2.212 50.628V57.076C-2.212 60.2307 -1.70933 62.7093 -0.703999 64.512C0.336001 66.28 2.104 67.164 4.6 67.164ZM4.6 56.92C3.38667 56.92 2.53733 56.6773 2.052 56.192C1.60133 55.7067 1.376 55.1173 1.376 54.424V53.28C1.376 52.5867 1.60133 51.9973 2.052 51.512C2.53733 51.0267 3.38667 50.784 4.6 50.784C5.81333 50.784 6.64533 51.0267 7.096 51.512C7.58133 51.9973 7.824 52.5867 7.824 53.28V54.424C7.824 55.1173 7.58133 55.7067 7.096 56.192C6.64533 56.6773 5.81333 56.92 4.6 56.92ZM24.9117 72V66.436H34.8957V40.644H34.4277L26.5237 50.004L22.2597 46.416L31.2557 35.704H41.7077V66.436H49.9237V72H24.9117ZM66.9594 72.624C64.602 72.624 62.5567 72.208 60.8234 71.376C59.09 70.5093 57.6514 69.2787 56.5074 67.684C55.398 66.0893 54.566 64.1307 54.0114 61.808C53.4914 59.4853 53.2314 56.8333 53.2314 53.852C53.2314 50.9053 53.4914 48.2707 54.0114 45.948C54.566 43.5907 55.398 41.6147 56.5074 40.02C57.6514 38.4253 59.09 37.212 60.8234 36.38C62.5567 35.5133 64.602 35.08 66.9594 35.08C71.674 35.08 75.1407 36.7267 77.3594 40.02C79.578 43.3133 80.6874 47.924 80.6874 53.852C80.6874 59.78 79.578 64.3907 77.3594 67.684C75.1407 70.9773 71.674 72.624 66.9594 72.624ZM66.9594 67.164C69.4554 67.164 71.206 66.28 72.2114 64.512C73.2514 62.7093 73.7714 60.2307 73.7714 57.076V50.628C73.7714 47.4733 73.2514 45.012 72.2114 43.244C71.206 41.4413 69.4554 40.54 66.9594 40.54C64.4634 40.54 62.6954 41.4413 61.6554 43.244C60.65 45.012 60.1474 47.4733 60.1474 50.628V57.076C60.1474 60.2307 60.65 62.7093 61.6554 64.512C62.6954 66.28 64.4634 67.164 66.9594 67.164ZM66.9594 56.92C65.746 56.92 64.8967 56.6773 64.4114 56.192C63.9607 55.7067 63.7354 55.1173 63.7354 54.424V53.28C63.7354 52.5867 63.9607 51.9973 64.4114 51.512C64.8967 51.0267 65.746 50.784 66.9594 50.784C68.1727 50.784 69.0047 51.0267 69.4554 51.512C69.9407 51.9973 70.1834 52.5867 70.1834 53.28V54.424C70.1834 55.1173 69.9407 55.7067 69.4554 56.192C69.0047 56.6773 68.1727 56.92 66.9594 56.92ZM87.2711 72V66.436H97.2551V40.644H96.7871L88.8831 50.004L84.6191 46.416L93.6151 35.704H104.067V66.436H112.283V72H87.2711Z" fill="#375A9D"/>
</g>
<defs>
<clipPath id="clip0_201_26653">
<rect width="103" height="72" rx="36" fill="white"/>
</clipPath>
</defs>
</svg>
