<svg width="151" height="151" viewBox="0 0 151 151" fill="none" xmlns="http://www.w3.org/2000/svg">
<g clip-path="url(#clip0_667_14423)">
<rect x="30.1523" y="30.384" width="90" height="90" rx="45" fill="#17284B"/>
<g clip-path="url(#clip1_667_14423)">
<rect x="44.9062" y="97.3123" width="59.6777" height="23.9927" rx="11.9963" fill="#884B21"/>
<path d="M60.1837 57.7026C60.2061 57.6224 60.2293 57.5422 60.2533 57.4624C60.373 57.0643 60.5332 56.6161 60.6868 56.2227C61.778 53.4294 62.5681 50.4332 63.9009 47.7546C64.1307 47.2928 64.8101 46.7739 65.2561 46.5399C65.9624 46.1764 66.7556 46.0159 67.5477 46.0764C71.0229 46.3333 72.2818 49.8878 75.6512 49.7673C77.5633 49.699 78.8674 47.7698 80.4835 46.8952C82.7412 45.7439 85.4208 45.6688 86.7445 48.3668C87.4901 49.8864 87.8979 51.6294 88.5313 53.1992C89.0109 54.6135 89.7352 56.3216 90.1189 57.7093C90.6669 59.0771 91.0864 60.4023 91.6047 61.7371C91.8746 61.8619 92.0326 61.7411 92.3176 61.6518C96.481 60.3606 102.104 56.1731 106.473 57.9608C109.65 59.2606 109.856 64.1072 108.436 66.7948C107.076 69.3703 105.847 70.4602 103.507 72.1207C103.926 72.7163 104.243 73.2021 104.583 73.851C103.276 74.7902 102.021 76.0882 100.729 77.0224C100.745 77.3392 101.623 78.983 101.781 79.4279C102.138 80.4298 102.538 81.3546 102.774 82.4203C102.962 83.2603 103.091 84.1124 103.159 84.9704C103.27 86.5375 103.218 89.5257 103.205 91.1591C103.186 93.7064 103.409 97.8509 102.863 100.208C102.379 102.322 101.416 104.297 100.049 105.981C99.5331 106.621 98.6892 107.542 98.0581 108.082L98.0513 108.143C97.8344 110.236 98.6753 112.23 96.5515 114.031C95.5846 114.852 94.565 115.06 93.3329 115.006C92.3867 114.965 91.3311 114.105 90.9416 114.046C90.2707 114.283 89.2596 114.705 88.6168 114.88C87.483 115.475 85.3399 116.215 84.149 116.648C81.783 117.508 80.2549 117.745 77.8944 116.813C77.2324 116.552 76.164 116.326 75.4213 116.289C74.0016 116.219 72.6685 116.75 71.3146 117.167C68.9725 117.888 66.6781 116.841 64.4939 116.042C63.6327 115.727 62.464 115.312 61.6485 114.914C60.8731 114.619 60.0537 114.289 59.2657 114.043C55.7229 116.444 51.7658 114.086 52.3074 109.783C52.3471 109.467 52.3139 108.245 52.205 108.005C50.1314 106.289 48.5099 103.749 47.7084 101.188C47.4236 100.3 47.2349 99.3847 47.1456 98.4569C47.0125 96.9675 47.0682 94.1833 47.0883 92.608C47.1262 89.6361 46.8808 86.243 47.353 83.3564C47.7018 81.2246 48.6424 79.0068 49.6364 77.1033C48.7501 76.3555 46.6021 74.4195 45.7192 73.8723C46.0573 73.2525 46.3971 72.7138 46.7756 72.1168C45.2435 70.9554 44.1062 70.2508 42.933 68.6089C41.6545 66.8522 40.6109 64.2487 41.0686 62.0119C42.436 55.3316 48.3923 57.5707 52.4571 59.336L56.1 60.9087C56.7625 61.191 57.983 61.7566 58.6546 61.8437C59.1121 60.5681 59.6589 58.9152 60.1837 57.7026Z" fill="#FEE6C5"/>
<path d="M60.1837 57.7026C60.2061 57.6224 60.2293 57.5422 60.2533 57.4624C60.373 57.0643 60.5332 56.6161 60.6868 56.2227C61.778 53.4294 62.5681 50.4332 63.9009 47.7546C64.1307 47.2928 64.8101 46.7739 65.2561 46.5399C65.9624 46.1764 66.7556 46.0159 67.5477 46.0764C71.0229 46.3333 72.2818 49.8878 75.6512 49.7673C77.5633 49.699 78.8674 47.7698 80.4835 46.8952C82.7412 45.7439 85.4208 45.6688 86.7445 48.3668C87.4901 49.8864 87.8979 51.6294 88.5313 53.1992C89.0109 54.6135 89.7352 56.3216 90.1189 57.7093C90.6669 59.0771 91.0864 60.4023 91.6047 61.7371C91.5771 61.7906 91.5435 61.8558 91.5039 61.9327C90.6827 62.3051 89.4858 62.6497 88.6766 62.9362C88.6907 64.8083 86.5217 66.3676 86.1242 67.269C84.5886 67.6452 82.8147 67.9465 81.2461 68.1788C80.5196 68.1761 78.7808 68.452 77.872 68.5005C74.9306 68.6727 71.9795 68.5668 69.0579 68.184C68.6401 68.1755 67.2973 67.9277 66.859 67.8493C64.9738 67.5129 63.0977 67.1268 61.2328 66.6913C60.4144 67.0869 59.2271 67.5688 58.4817 67.9831C55.1004 69.8623 51.4805 73.6692 49.6364 77.1033C48.7501 76.3555 46.6021 74.4195 45.7192 73.8723C46.0573 73.2524 46.3971 72.7138 46.7756 72.1168C45.2435 70.9554 44.1062 70.2508 42.933 68.6089C41.6545 66.8522 40.6109 64.2487 41.0686 62.0119C42.436 55.3316 48.3923 57.5707 52.4571 59.336L56.1 60.9087C56.7625 61.191 57.983 61.7566 58.6546 61.8437C59.1121 60.5681 59.6589 58.9152 60.1837 57.7026Z" fill="#FE92B6"/>
<path d="M60.1836 57.7026C60.206 57.6224 60.2292 57.5422 60.2532 57.4624C60.3729 57.0643 60.5331 56.6161 60.6867 56.2227C61.778 53.4294 62.568 50.4332 63.9008 47.7546C64.1306 47.2928 64.8101 46.7739 65.256 46.5399C65.9623 46.1764 66.7556 46.0159 67.5476 46.0764C71.0228 46.3333 72.2817 49.8878 75.6512 49.7673C77.5632 49.699 78.8674 47.7698 80.4834 46.8952C82.7411 45.7439 85.4207 45.6688 86.7444 48.3668C87.49 49.8864 87.8979 51.6294 88.5312 53.1992C89.0108 54.6135 89.7351 56.3216 90.1188 57.7093C88.3379 57.779 86.4149 57.7409 84.6232 57.7365L84.5579 57.713C83.4196 57.7965 81.564 57.7436 80.3958 57.7437L72.6097 57.7428L64.6508 57.7469C63.361 57.7471 61.4353 57.7958 60.1836 57.7026Z" fill="#FE92B6"/>
<path d="M80.4844 46.8953C82.7421 45.7439 85.4217 45.6688 86.7454 48.3668C87.491 49.8864 87.8988 51.6294 88.5322 53.1992C89.0118 54.6136 89.7361 56.3216 90.1198 57.7093C88.3389 57.779 86.4159 57.7409 84.6242 57.7365L84.5588 57.713C83.8163 55.0204 82.7697 52.2335 81.7361 49.6418C81.4651 48.9621 80.8509 47.4782 80.4844 46.8953Z" fill="#FE709A"/>
<path d="M84.6229 57.7365C86.4147 57.7409 88.3377 57.779 90.1186 57.7093C90.6666 59.0771 91.0861 60.4023 91.6044 61.7371C91.5767 61.7906 91.5432 61.8558 91.5036 61.9327C90.6824 62.3051 89.4855 62.6497 88.6763 62.9362C87.5131 63.2682 86.444 63.5654 85.2666 63.837C81.349 64.7512 76.3847 65.0453 72.3905 64.8434C68.3036 64.6371 64.2648 63.866 60.3894 62.552C60.0521 62.4404 58.8493 62.0594 58.6543 61.8437C59.1118 60.5681 59.6585 58.9152 60.1833 57.7026C61.4351 57.7958 63.3608 57.7471 64.6505 57.7469L72.6095 57.7428L80.3955 57.7437C81.5638 57.7436 83.4194 57.7965 84.5576 57.713L84.6229 57.7365Z" fill="#CF385C"/>
<path d="M84.623 57.7364C86.4148 57.7408 88.3378 57.779 90.1187 57.7092C90.6667 59.0771 91.0862 60.4022 91.6045 61.7371C91.5768 61.7906 91.5433 61.8557 91.5037 61.9326C90.6825 62.305 89.4856 62.6497 88.6764 62.9362C87.5132 63.2681 86.4441 63.5653 85.2667 63.837C85.3111 61.3344 85.0992 60.146 84.623 57.7364Z" fill="#A42243"/>
<path d="M46.777 72.1168C48.3537 70.1127 49.7196 68.3532 52.0003 67.0256C55.2345 65.143 57.843 65.777 61.2343 66.6913C60.4159 67.0869 59.2286 67.5688 58.4832 67.9831C55.1018 69.8623 51.482 73.6692 49.6379 77.1033C48.7516 76.3555 46.6035 74.4195 45.7207 73.8723C46.0588 73.2524 46.3986 72.7138 46.777 72.1168Z" fill="#AC5B27"/>
<path d="M91.6058 61.7371C91.8757 61.8619 92.0337 61.7411 92.3187 61.6518C96.4821 60.3607 102.105 56.1731 106.475 57.9609C109.651 59.2606 109.857 64.1072 108.437 66.7948C107.077 69.3704 105.848 70.4602 103.508 72.1207C103.927 72.7163 104.244 73.2021 104.584 73.851C103.277 74.7903 102.022 76.0882 100.73 77.0224C100.746 77.3393 101.624 78.983 101.782 79.4279C102.139 80.4298 102.539 81.3546 102.775 82.4204C102.963 83.2603 103.092 84.1124 103.16 84.9705C103.271 86.5376 103.219 89.5257 103.206 91.1591C103.187 93.7064 103.41 97.851 102.864 100.208C102.38 102.322 101.417 104.297 100.05 105.981C99.5341 106.621 98.6903 107.542 98.0592 108.082C98.0053 107.629 98.0585 105.894 98.0569 105.359C98.0477 102.126 98.2438 99.3469 97.3285 96.1679C95.8291 90.961 92.4781 86.6749 88.005 83.6663C86.7165 82.7996 85.483 82.3724 84.2264 81.6668C84.139 80.7832 83.6698 79.6618 83.4462 78.8116C82.6166 75.6581 80.5487 71.38 81.2471 68.1789C82.8158 67.9465 84.5897 67.6452 86.1253 67.269C86.5228 66.3676 88.6918 64.8083 88.6777 62.9363C89.4869 62.6498 90.6838 62.3051 91.505 61.9327C91.5446 61.8558 91.5781 61.7906 91.6058 61.7371Z" fill="#D57F42"/>
<path d="M91.6055 61.7371C91.8754 61.8619 92.0334 61.7411 92.3184 61.6518C96.4818 60.3607 102.105 56.1731 106.474 57.9609C109.651 59.2606 109.856 64.1072 108.437 66.7948C107.077 69.3704 105.848 70.4602 103.507 72.1207C103.927 72.7163 104.244 73.2021 104.584 73.851C103.277 74.7903 102.022 76.0882 100.73 77.0224C100.454 76.8191 98.6264 73.9651 98.1437 73.3995C95.9631 70.8439 93.4585 68.5607 90.307 67.2555C89.8099 67.0496 89.4124 66.9547 88.9866 66.6874C88.4314 66.8093 86.6099 67.2429 86.125 67.269C86.5225 66.3676 88.6915 64.8083 88.6774 62.9363C89.4867 62.6498 90.6835 62.3051 91.5047 61.9327C91.5443 61.8558 91.5779 61.7906 91.6055 61.7371Z" fill="#FE709A"/>
<path d="M88.9863 66.6873C92.3349 65.7902 95.1055 65.1177 98.2573 66.9987C100.443 68.3033 102.039 70.0698 103.507 72.1206C103.926 72.7162 104.244 73.202 104.584 73.851C103.277 74.7902 102.022 76.0882 100.73 77.0224C100.454 76.8191 98.6262 73.9651 98.1435 73.3994C95.9628 70.8439 93.4582 68.5606 90.3067 67.2554C89.8097 67.0496 89.4122 66.9547 88.9863 66.6873Z" fill="#AC5B27"/>
<path d="M89.0942 78.9783C90.0418 78.8532 90.9836 79.2473 91.5598 80.0102C92.1359 80.773 92.2573 81.7866 91.8776 82.6639C91.498 83.5412 90.6759 84.1467 89.7254 84.2489C88.2803 84.4042 86.9791 83.3685 86.8062 81.9255C86.6334 80.4824 87.6533 79.1686 89.0942 78.9783Z" fill="#474249"/>
<path d="M61.2337 66.6913C63.0986 67.1267 64.9746 67.5129 66.8598 67.8492C67.2982 67.9276 68.641 68.1755 69.0588 68.184C69.1893 68.8113 69.3199 69.4948 69.2444 70.1512C68.8975 73.1641 67.5946 76.2214 66.759 79.147C66.6021 79.6964 66.0917 81.1755 66.0395 81.6804C64.9401 82.2253 63.6154 82.8393 62.5953 83.494C58.2944 86.2542 54.9419 90.3499 53.2866 95.1993C52.2105 98.3517 52.2432 101.162 52.2828 104.415C52.2895 104.969 52.3582 107.742 52.2059 108.005C50.1323 106.289 48.5107 103.749 47.7093 101.188C47.4245 100.3 47.2358 99.3846 47.1465 98.4568C47.0134 96.9675 47.0691 94.1833 47.0892 92.6079C47.1271 89.636 46.8817 86.2429 47.3539 83.3564C47.7027 81.2245 48.6433 79.0067 49.6373 77.1032C51.4814 73.6691 55.1012 69.8623 58.4826 67.983C59.228 67.5688 60.4153 67.0869 61.2337 66.6913Z" fill="#D57F42"/>
<path d="M60.5377 78.9759C61.9862 78.7816 63.319 79.7952 63.519 81.2431C63.7189 82.6908 62.7105 84.0276 61.2635 84.2332C59.8085 84.4399 58.4626 83.4247 58.2616 81.9689C58.0606 80.5131 59.0811 79.1712 60.5377 78.9759Z" fill="#474249"/>
<path d="M61.6484 114.914C64.951 111.012 60.2994 104.902 66.2722 100.429C67.5705 99.4569 69.183 98.7949 70.8046 98.6551C72.2979 98.5263 73.8402 98.6067 75.3393 98.6139C78.7971 98.6305 81.6165 98.3457 84.4463 100.755C86.1865 102.237 87.1705 104.313 87.3494 106.578C87.5636 109.293 86.7285 112.64 88.6167 114.88C87.4829 115.475 85.3399 116.214 84.149 116.648C81.783 117.508 80.2549 117.744 77.8943 116.813C77.2324 116.552 76.164 116.325 75.4213 116.289C74.0016 116.219 72.6685 116.75 71.3145 117.167C68.9725 117.888 66.678 116.841 64.4939 116.042C63.6327 115.727 62.464 115.312 61.6484 114.914Z" fill="#FED59F"/>
<path d="M73.9741 89.5076C72.7942 89.5282 71.8251 89.3357 70.9298 88.4738C70.1761 87.7579 69.7482 86.7647 69.7453 85.7251C69.7404 84.7535 70.1264 83.8207 70.8167 83.1368C72.196 81.7868 74.7673 82.2014 76.5859 82.1607C81.9499 82.0406 81.9753 89.4799 76.3413 89.5178C76.3367 90.8553 76.0507 93.9325 76.9428 94.7734C78.0575 95.8243 79.7568 95.3477 81.4919 95.8218C86.4767 97.184 89.792 101.213 89.6861 106.447C89.6545 108.008 89.5977 110.468 89.8008 112.018C89.868 112.53 90.9077 113.917 90.9415 114.046C90.2706 114.283 89.2595 114.705 88.6167 114.88C86.7284 112.64 87.5636 109.293 87.3493 106.578C87.1705 104.313 86.1864 102.237 84.4462 100.755C81.6164 98.3457 78.797 98.6305 75.3392 98.6139C73.8402 98.6067 72.2978 98.5263 70.8045 98.6551C69.1829 98.795 67.5704 99.4569 66.2721 100.429C60.2993 104.902 64.9509 111.012 61.6484 114.914C60.873 114.619 60.0536 114.289 59.2656 114.043C60.7666 112.431 60.6357 111.294 60.6392 109.241C60.6434 106.786 60.3921 104.245 61.4593 101.959C62.9477 98.5612 66.2671 96.1277 69.9222 95.5964C70.8709 95.4585 72.2008 95.6165 73.029 95.0751C74.4555 94.1425 73.9523 91.0953 73.9741 89.5076Z" fill="#474249"/>
<path d="M69.0583 68.184C71.9799 68.5668 74.931 68.6727 77.8724 68.5005C78.7812 68.452 80.52 68.1761 81.2465 68.1789C80.548 71.38 82.616 75.6581 83.4455 78.8116C83.6691 79.6618 84.1384 80.7831 84.2257 81.6667C83.1595 81.3902 82.1228 80.9383 81.0374 80.6468C77.3455 79.6546 73.4629 79.6102 69.7494 80.5176C68.4349 80.8302 67.0391 81.4487 66.0391 81.6805C66.0912 81.1756 66.6016 79.6965 66.7585 79.1471C67.5941 76.2215 68.8971 73.1642 69.2439 70.1513C69.3194 69.4949 69.1888 68.8114 69.0583 68.184Z" fill="#FED59F"/>
</g>
</g>
<path d="M70.1377 126.888C70.9598 126.76 71.2336 127.176 71.6747 127.779L72.3259 128.676L74.1082 131.121C75.4435 131.382 76.7871 131.597 78.1233 131.856C78.6663 131.961 79.236 132.036 79.7712 132.177C79.8249 132.192 79.9684 132.249 80.0138 132.282C81.299 133.194 80.3489 134.139 79.7209 134.98L78.1452 137.126C77.9322 137.415 77.4217 138.073 77.2661 138.352C77.3162 138.581 77.3419 138.87 77.3779 139.11L77.6527 140.988L77.8957 142.58C77.982 143.113 78.1871 143.941 78.0051 144.446C77.8157 144.912 77.3598 145.217 76.8734 145.245C76.4723 145.268 76.1999 145.109 75.8412 144.96L74.9571 144.595L71.2361 143.043C71.2095 143.028 71.128 142.98 71.1004 142.993C70.8411 143.115 70.5964 143.271 70.3418 143.404L67.3829 144.984L66.5239 145.445C66.1517 145.643 65.9209 145.806 65.4857 145.792C65.138 145.779 64.8093 145.626 64.5709 145.367C64.3984 145.179 64.2867 144.941 64.2508 144.686C64.203 144.33 64.2964 143.628 64.3119 143.249C64.3701 141.817 64.4824 140.381 64.5283 138.949C64.262 138.623 63.8829 138.223 63.5961 137.903L61.9227 136.035C61.8168 135.918 61.706 135.802 61.6028 135.682C61.1216 135.124 60.4399 134.649 60.7374 133.805C60.8322 133.53 61.0195 133.298 61.2661 133.15C61.5264 132.993 62.1536 132.842 62.4784 132.747L65.7026 131.816C65.9832 131.734 66.7328 131.556 66.9827 131.437C67.1023 131.283 67.4188 130.71 67.5384 130.509C67.949 129.824 68.3547 129.136 68.7555 128.445C68.9467 128.12 69.134 127.781 69.3351 127.464C69.5176 127.176 69.7995 126.951 70.1377 126.888Z" fill="#FFB806"/>
<defs>
<clipPath id="clip0_667_14423">
<rect x="30.1523" y="30.384" width="90" height="90" rx="45" fill="white"/>
</clipPath>
<clipPath id="clip1_667_14423">
<rect width="80" height="80" fill="white" transform="translate(35.1523 37.884)"/>
</clipPath>
</defs>
</svg>
