<svg width="151" height="151" viewBox="0 0 151 151" fill="none" xmlns="http://www.w3.org/2000/svg">
<g clip-path="url(#clip0_667_14418)">
<rect x="30.1523" y="30.1514" width="90" height="90" rx="45" fill="#17284B"/>
<g clip-path="url(#clip1_667_14418)">
<rect x="44.9062" y="97.0796" width="59.6777" height="23.9927" rx="11.9963" fill="#884B21"/>
<path d="M60.1837 57.47C60.2061 57.3897 60.2293 57.3096 60.2533 57.2297C60.373 56.8317 60.5332 56.3834 60.6868 55.99C61.778 53.1967 62.5681 50.2006 63.9009 47.5219C64.1307 47.0601 64.8101 46.5412 65.2561 46.3072C65.9624 45.9437 66.7556 45.7833 67.5477 45.8438C71.0229 46.1006 72.2818 49.6551 75.6512 49.5346C77.5633 49.4663 78.8674 47.5371 80.4835 46.6626C82.7412 45.5112 85.4208 45.4361 86.7445 48.1341C87.4901 49.6537 87.8979 51.3967 88.5313 52.9665C89.0109 54.3809 89.7352 56.0889 90.1189 57.4766C90.6669 58.8445 91.0864 60.1696 91.6047 61.5044C91.8746 61.6292 92.0326 61.5084 92.3176 61.4191C96.481 60.128 102.104 55.9404 106.473 57.7282C109.65 59.0279 109.856 63.8745 108.436 66.5622C107.076 69.1377 105.847 70.2275 103.507 71.888C103.926 72.4836 104.243 72.9694 104.583 73.6183C103.276 74.5576 102.021 75.8555 100.729 76.7898C100.745 77.1066 101.623 78.7503 101.781 79.1953C102.138 80.1971 102.538 81.1219 102.774 82.1877C102.962 83.0276 103.091 83.8797 103.159 84.7378C103.27 86.3049 103.218 89.293 103.205 90.9264C103.186 93.4737 103.409 97.6183 102.863 99.9757C102.379 102.09 101.416 104.064 100.049 105.748C99.5331 106.388 98.6892 107.309 98.0581 107.849L98.0513 107.911C97.8344 110.004 98.6753 111.997 96.5515 113.799C95.5846 114.619 94.565 114.828 93.3329 114.774C92.3867 114.732 91.3311 113.872 90.9416 113.813C90.2707 114.05 89.2596 114.472 88.6168 114.648C87.483 115.243 85.3399 115.982 84.149 116.415C81.783 117.276 80.2549 117.512 77.8944 116.58C77.2324 116.319 76.164 116.093 75.4213 116.056C74.0016 115.987 72.6685 116.518 71.3146 116.935C68.9725 117.656 66.6781 116.609 64.4939 115.809C63.6327 115.494 62.464 115.08 61.6485 114.682C60.8731 114.386 60.0537 114.057 59.2657 113.81C55.7229 116.212 51.7658 113.854 52.3074 109.55C52.3471 109.234 52.3139 108.012 52.205 107.772C50.1314 106.056 48.5099 103.516 47.7084 100.955C47.4236 100.068 47.2349 99.152 47.1456 98.2242C47.0125 96.7348 47.0682 93.9507 47.0883 92.3753C47.1262 89.4034 46.8808 86.0103 47.353 83.1238C47.7018 80.9919 48.6424 78.7741 49.6364 76.8706C48.7501 76.1228 46.6021 74.1868 45.7192 73.6397C46.0573 73.0198 46.3971 72.4811 46.7756 71.8841C45.2435 70.7228 44.1062 70.0181 42.933 68.3762C41.6545 66.6195 40.6109 64.0161 41.0686 61.7793C42.436 55.099 48.3923 57.338 52.4571 59.1034L56.1 60.6761C56.7625 60.9583 57.983 61.524 58.6546 61.6111C59.1121 60.3355 59.6589 58.6825 60.1837 57.47Z" fill="#FEE6C5"/>
<path d="M60.1837 57.47C60.2061 57.3897 60.2293 57.3096 60.2533 57.2297C60.373 56.8317 60.5332 56.3834 60.6868 55.99C61.778 53.1967 62.5681 50.2006 63.9009 47.5219C64.1307 47.0601 64.8101 46.5412 65.2561 46.3072C65.9624 45.9437 66.7556 45.7833 67.5477 45.8438C71.0229 46.1006 72.2818 49.6551 75.6512 49.5346C77.5633 49.4663 78.8674 47.5371 80.4835 46.6626C82.7412 45.5112 85.4208 45.4361 86.7445 48.1341C87.4901 49.6537 87.8979 51.3967 88.5313 52.9665C89.0109 54.3809 89.7352 56.0889 90.1189 57.4766C90.6669 58.8445 91.0864 60.1696 91.6047 61.5044C91.5771 61.558 91.5435 61.6231 91.5039 61.7C90.6827 62.0724 89.4858 62.4171 88.6766 62.7036C88.6907 64.5756 86.5217 66.1349 86.1242 67.0363C84.5886 67.4125 82.8147 67.7138 81.2461 67.9462C80.5196 67.9435 78.7808 68.2193 77.872 68.2678C74.9306 68.44 71.9795 68.3341 69.0579 67.9514C68.6401 67.9429 67.2973 67.695 66.859 67.6166C64.9738 67.2802 63.0977 66.8941 61.2328 66.4587C60.4144 66.8543 59.2271 67.3362 58.4817 67.7504C55.1004 69.6297 51.4805 73.4365 49.6364 76.8706C48.7501 76.1228 46.6021 74.1868 45.7192 73.6397C46.0573 73.0198 46.3971 72.4811 46.7756 71.8841C45.2435 70.7228 44.1062 70.0181 42.933 68.3762C41.6545 66.6195 40.6109 64.016 41.0686 61.7793C42.436 55.099 48.3923 57.338 52.4571 59.1034L56.1 60.6761C56.7625 60.9583 57.983 61.524 58.6546 61.6111C59.1121 60.3355 59.6589 58.6825 60.1837 57.47Z" fill="#FE92B6"/>
<path d="M60.1836 57.47C60.206 57.3897 60.2292 57.3096 60.2532 57.2297C60.3729 56.8317 60.5331 56.3834 60.6867 55.99C61.778 53.1967 62.568 50.2006 63.9008 47.5219C64.1306 47.0601 64.8101 46.5412 65.256 46.3072C65.9623 45.9437 66.7556 45.7833 67.5476 45.8438C71.0228 46.1006 72.2817 49.6551 75.6512 49.5346C77.5632 49.4663 78.8674 47.5371 80.4834 46.6626C82.7411 45.5112 85.4207 45.4361 86.7444 48.1341C87.49 49.6537 87.8979 51.3967 88.5312 52.9665C89.0108 54.3809 89.7351 56.0889 90.1188 57.4766C88.3379 57.5464 86.4149 57.5082 84.6232 57.5038L84.5579 57.4803C83.4196 57.5639 81.564 57.5109 80.3958 57.511L72.6097 57.5102L64.6508 57.5142C63.361 57.5144 61.4353 57.5632 60.1836 57.47Z" fill="#FE92B6"/>
<path d="M80.4844 46.6626C82.7421 45.5112 85.4217 45.4361 86.7454 48.1341C87.491 49.6538 87.8988 51.3967 88.5322 52.9665C89.0118 54.3809 89.7361 56.0889 90.1198 57.4766C88.3389 57.5464 86.4159 57.5082 84.6242 57.5038L84.5588 57.4804C83.8163 54.7877 82.7697 52.0008 81.7361 49.4091C81.4651 48.7295 80.8509 47.2455 80.4844 46.6626Z" fill="#FE709A"/>
<path d="M84.6229 57.5038C86.4147 57.5082 88.3377 57.5464 90.1186 57.4766C90.6666 58.8445 91.0861 60.1696 91.6044 61.5044C91.5767 61.558 91.5432 61.6231 91.5036 61.7C90.6824 62.0724 89.4855 62.4171 88.6763 62.7036C87.5131 63.0355 86.444 63.3327 85.2666 63.6043C81.349 64.5185 76.3847 64.8126 72.3905 64.6108C68.3036 64.4045 64.2648 63.6334 60.3894 62.3194C60.0521 62.2077 58.8493 61.8268 58.6543 61.6111C59.1118 60.3354 59.6585 58.6825 60.1833 57.47C61.4351 57.5632 63.3608 57.5144 64.6505 57.5142L72.6095 57.5102L80.3955 57.511C81.5638 57.5109 83.4194 57.5639 84.5576 57.4803L84.6229 57.5038Z" fill="#CF385C"/>
<path d="M84.623 57.5037C86.4148 57.5082 88.3378 57.5463 90.1187 57.4766C90.6667 58.8444 91.0862 60.1696 91.6045 61.5044C91.5768 61.5579 91.5433 61.6231 91.5037 61.7C90.6825 62.0724 89.4856 62.417 88.6764 62.7035C87.5132 63.0355 86.4441 63.3327 85.2667 63.6043C85.3111 61.1018 85.0992 59.9133 84.623 57.5037Z" fill="#A42243"/>
<path d="M46.777 71.8841C48.3537 69.88 49.7196 68.1206 52.0003 66.793C55.2345 64.9103 57.843 65.5443 61.2343 66.4587C60.4159 66.8542 59.2286 67.3361 58.4832 67.7504C55.1018 69.6297 51.482 73.4365 49.6379 76.8706C48.7516 76.1228 46.6035 74.1868 45.7207 73.6396C46.0588 73.0198 46.3986 72.4811 46.777 71.8841Z" fill="#AC5B27"/>
<path d="M91.6058 61.5045C91.8757 61.6293 92.0337 61.5085 92.3187 61.4192C96.4821 60.128 102.105 55.9405 106.475 57.7282C109.651 59.0279 109.857 63.8745 108.437 66.5622C107.077 69.1377 105.848 70.2276 103.508 71.888C103.927 72.4836 104.244 72.9694 104.584 73.6184C103.277 74.5576 102.022 75.8555 100.73 76.7898C100.746 77.1066 101.624 78.7503 101.782 79.1953C102.139 80.1971 102.539 81.1219 102.775 82.1877C102.963 83.0276 103.092 83.8798 103.16 84.7378C103.271 86.3049 103.219 89.2931 103.206 90.9264C103.187 93.4737 103.41 97.6183 102.864 99.9757C102.38 102.09 101.417 104.064 100.05 105.748C99.5341 106.388 98.6903 107.309 98.0592 107.849C98.0053 107.396 98.0585 105.661 98.0569 105.127C98.0477 101.894 98.2438 99.1142 97.3285 95.9352C95.8291 90.7283 92.4781 86.4423 88.005 83.4336C86.7165 82.567 85.483 82.1398 84.2264 81.4341C84.139 80.5505 83.6698 79.4292 83.4462 78.579C82.6166 75.4255 80.5487 71.1474 81.2471 67.9462C82.8158 67.7138 84.5897 67.4126 86.1253 67.0364C86.5228 66.1349 88.6918 64.5756 88.6777 62.7036C89.4869 62.4171 90.6838 62.0724 91.505 61.7C91.5446 61.6231 91.5781 61.558 91.6058 61.5045Z" fill="#D57F42"/>
<path d="M91.6055 61.5045C91.8754 61.6293 92.0334 61.5085 92.3184 61.4192C96.4818 60.128 102.105 55.9405 106.474 57.7282C109.651 59.0279 109.856 63.8745 108.437 66.5622C107.077 69.1377 105.848 70.2276 103.507 71.888C103.927 72.4836 104.244 72.9694 104.584 73.6184C103.277 74.5576 102.022 75.8555 100.73 76.7898C100.454 76.5865 98.6264 73.7325 98.1437 73.1668C95.9631 70.6113 93.4585 68.328 90.307 67.0228C89.8099 66.817 89.4124 66.7221 88.9866 66.4547C88.4314 66.5766 86.6099 67.0103 86.125 67.0364C86.5225 66.1349 88.6915 64.5756 88.6774 62.7036C89.4867 62.4171 90.6835 62.0724 91.5047 61.7C91.5443 61.6231 91.5779 61.558 91.6055 61.5045Z" fill="#FE709A"/>
<path d="M88.9863 66.4546C92.3349 65.5575 95.1055 64.885 98.2573 66.766C100.443 68.0706 102.039 69.8371 103.507 71.888C103.926 72.4836 104.244 72.9694 104.584 73.6183C103.277 74.5575 102.022 75.8555 100.73 76.7897C100.454 76.5864 98.6262 73.7324 98.1435 73.1667C95.9628 70.6112 93.4582 68.3279 90.3067 67.0228C89.8097 66.8169 89.4122 66.722 88.9863 66.4546Z" fill="#AC5B27"/>
<path d="M89.0942 73.7457C90.0418 73.6205 90.9836 74.0147 91.5598 74.7775C92.1359 75.5403 92.2573 76.554 91.8776 77.4313C91.498 78.3086 90.6759 78.914 89.7254 79.0162C88.2803 79.1715 86.9791 78.1359 86.8062 76.6928C86.6334 75.2497 87.6533 73.936 89.0942 73.7457Z" fill="#474249"/>
<path d="M61.2337 66.4586C63.0986 66.894 64.9746 67.2802 66.8598 67.6166C67.2982 67.695 68.641 67.9428 69.0588 67.9513C69.1893 68.5786 69.3199 69.2622 69.2444 69.9186C68.8975 72.9315 67.5946 75.9888 66.759 78.9143C66.6021 79.4638 66.0917 80.9428 66.0395 81.4478C64.9401 81.9926 63.6154 82.6066 62.5953 83.2613C58.2944 86.0216 54.9419 90.1173 53.2866 94.9666C52.2105 98.1191 52.2432 100.929 52.2828 104.182C52.2895 104.736 52.3582 107.51 52.2059 107.772C50.1323 106.056 48.5107 103.516 47.7093 100.955C47.4245 100.068 47.2358 99.1519 47.1465 98.2242C47.0134 96.7348 47.0691 93.9506 47.0892 92.3753C47.1271 89.4033 46.8817 86.0103 47.3539 83.1237C47.7027 80.9919 48.6433 78.774 49.6373 76.8706C51.4814 73.4365 55.1012 69.6296 58.4826 67.7504C59.228 67.3361 60.4153 66.8542 61.2337 66.4586Z" fill="#D57F42"/>
<path d="M60.5377 73.7432C61.9862 73.549 63.319 74.5626 63.519 76.0104C63.7189 77.4581 62.7105 78.795 61.2635 79.0005C59.8085 79.2072 58.4626 78.192 58.2616 76.7362C58.0606 75.2804 59.0811 73.9385 60.5377 73.7432Z" fill="#474249"/>
<path d="M61.6484 114.681C64.951 110.779 60.2994 104.67 66.2722 100.197C67.5705 99.2242 69.183 98.5623 70.8046 98.4224C72.2979 98.2936 73.8402 98.374 75.3393 98.3812C78.7971 98.3978 81.6165 98.113 84.4463 100.523C86.1865 102.005 87.1705 104.08 87.3494 106.346C87.5636 109.061 86.7285 112.407 88.6167 114.647C87.4829 115.242 85.3399 115.982 84.149 116.415C81.783 117.276 80.2549 117.512 77.8943 116.58C77.2324 116.319 76.164 116.093 75.4213 116.056C74.0016 115.987 72.6685 116.518 71.3145 116.935C68.9725 117.656 66.678 116.608 64.4939 115.809C63.6327 115.494 62.464 115.08 61.6484 114.681Z" fill="#FED59F"/>
<path d="M73.9741 89.2749C72.7942 89.2955 71.8251 89.103 70.9298 88.2412C70.1761 87.5252 69.7482 86.532 69.7453 85.4924C69.7404 84.5208 70.1264 83.588 70.8167 82.9042C72.196 81.5541 74.7673 81.9688 76.5859 81.9281C81.9499 81.8079 81.9753 89.2473 76.3413 89.2852C76.3367 90.6226 76.0507 93.6998 76.9428 94.5408C78.0575 95.5916 79.7568 95.115 81.4919 95.5892C86.4767 96.9514 89.792 100.981 89.6861 106.215C89.6545 107.775 89.5977 110.235 89.8008 111.785C89.868 112.298 90.9077 113.684 90.9415 113.813C90.2706 114.05 89.2595 114.472 88.6167 114.647C86.7284 112.407 87.5636 109.061 87.3493 106.346C87.1705 104.081 86.1864 102.005 84.4462 100.523C81.6164 98.113 78.797 98.3978 75.3392 98.3813C73.8402 98.374 72.2978 98.2937 70.8045 98.4225C69.1829 98.5623 67.5704 99.2242 66.2721 100.197C60.2993 104.67 64.9509 110.779 61.6484 114.682C60.873 114.386 60.0536 114.057 59.2656 113.81C60.7666 112.198 60.6357 111.061 60.6392 109.008C60.6434 106.553 60.3921 104.012 61.4593 101.726C62.9477 98.3286 66.2671 95.895 69.9222 95.3637C70.8709 95.2258 72.2008 95.3838 73.029 94.8425C74.4555 93.9098 73.9523 90.8626 73.9741 89.2749Z" fill="#474249"/>
<path d="M69.0583 67.9514C71.9799 68.3341 74.931 68.4401 77.8724 68.2678C78.7812 68.2193 80.52 67.9435 81.2465 67.9462C80.548 71.1473 82.616 75.4255 83.4455 78.579C83.6691 79.4292 84.1384 80.5505 84.2257 81.4341C83.1595 81.1575 82.1228 80.7056 81.0374 80.4141C77.3455 79.4219 73.4629 79.3775 69.7494 80.285C68.4349 80.5976 67.0391 81.2161 66.0391 81.4478C66.0912 80.9429 66.6016 79.4638 66.7585 78.9144C67.5941 75.9888 68.8971 72.9315 69.2439 69.9186C69.3194 69.2622 69.1888 68.5787 69.0583 67.9514Z" fill="#FED59F"/>
</g>
</g>
<path d="M74.5127 4.26947C75.3348 4.14099 75.6086 4.5571 76.0497 5.16041L76.7009 6.05718L78.4832 8.50191C79.8185 8.76337 81.1621 8.97796 82.4983 9.23692C83.0413 9.34217 83.611 9.41709 84.1462 9.55868C84.1999 9.57289 84.3434 9.63063 84.3888 9.66285C85.674 10.5753 84.7239 11.5199 84.0959 12.3617L82.5202 14.5071C82.3072 14.7964 81.7967 15.4546 81.6411 15.7335C81.6912 15.9618 81.7169 16.2517 81.7529 16.4915L82.0277 18.3689L82.2707 19.9617C82.357 20.4947 82.5621 21.3226 82.3801 21.827C82.1907 22.2928 81.7348 22.5984 81.2484 22.6264C80.8473 22.6495 80.5749 22.4905 80.2162 22.3408L79.3321 21.9765L75.6111 20.4244C75.5845 20.4093 75.503 20.3615 75.4754 20.3744C75.2161 20.4958 74.9714 20.652 74.7168 20.7848L71.7579 22.3649L70.8989 22.8258C70.5267 23.0247 70.2959 23.187 69.8607 23.1734C69.513 23.1597 69.1843 23.007 68.9459 22.7483C68.7734 22.5598 68.6617 22.322 68.6258 22.067C68.578 21.7115 68.6714 21.0095 68.6869 20.6298C68.7451 19.1985 68.8574 17.7619 68.9033 16.3303C68.637 16.0043 68.2579 15.6044 67.9711 15.2844L66.2977 13.4167C66.1918 13.2991 66.081 13.183 65.9778 13.0634C65.4966 12.5056 64.8149 12.0298 65.1124 11.186C65.2072 10.9109 65.3945 10.679 65.6411 10.5314C65.9014 10.3744 66.5286 10.2231 66.8534 10.1283L70.0776 9.19717C70.3582 9.11553 71.1078 8.93771 71.3577 8.81847C71.4773 8.66464 71.7938 8.09151 71.9134 7.89064C72.324 7.20551 72.7297 6.51737 73.1305 5.82625C73.3217 5.50152 73.509 5.16229 73.7101 4.84491C73.8926 4.5569 74.1745 4.33218 74.5127 4.26947Z" fill="#FFB806"/>
<defs>
<clipPath id="clip0_667_14418">
<rect x="30.1523" y="30.1514" width="90" height="90" rx="45" fill="white"/>
</clipPath>
<clipPath id="clip1_667_14418">
<rect width="80" height="80" fill="white" transform="translate(35.1523 37.6514)"/>
</clipPath>
</defs>
</svg>
