<svg width="151" height="151" viewBox="0 0 151 151" fill="none" xmlns="http://www.w3.org/2000/svg">
<g clip-path="url(#clip0_667_14425)">
<rect x="30.1523" y="30.384" width="90" height="90" rx="45" fill="#17284B"/>
<g clip-path="url(#clip1_667_14425)">
<rect x="44.9062" y="97.3123" width="59.6777" height="23.9927" rx="11.9963" fill="#884B21"/>
<path d="M60.1856 57.7026C60.2081 57.6224 60.2312 57.5422 60.2552 57.4624C60.3749 57.0643 60.5351 56.6161 60.6888 56.2227C61.78 53.4294 62.57 50.4332 63.9028 47.7546C64.1326 47.2928 64.8121 46.7739 65.258 46.5399C65.9643 46.1764 66.7576 46.0159 67.5496 46.0764C71.0248 46.3333 72.2837 49.8878 75.6532 49.7673C77.5652 49.699 78.8694 47.7698 80.4854 46.8952C82.7432 45.7439 85.4228 45.6688 86.7464 48.3668C87.4921 49.8864 87.8999 51.6294 88.5333 53.1992C89.0129 54.6135 89.7372 56.3216 90.1208 57.7093C90.6688 59.0771 91.0884 60.4023 91.6066 61.7371C91.8766 61.8619 92.0346 61.7411 92.3195 61.6518C96.483 60.3606 102.106 56.1731 106.475 57.9608C109.652 59.2606 109.858 64.1072 108.438 66.7948C107.078 69.3703 105.849 70.4602 103.509 72.1207C103.928 72.7163 104.245 73.2021 104.585 73.851C103.278 74.7902 102.023 76.0882 100.731 77.0224C100.746 77.3392 101.625 78.983 101.783 79.4279C102.14 80.4298 102.539 81.3546 102.776 82.4203C102.964 83.2603 103.093 84.1124 103.161 84.9704C103.272 86.5375 103.22 89.5257 103.207 91.1591C103.188 93.7064 103.411 97.8509 102.865 100.208C102.381 102.322 101.418 104.297 100.051 105.981C99.535 106.621 98.6912 107.542 98.0601 108.082L98.0532 108.143C97.8363 110.236 98.6773 112.23 96.5535 114.031C95.5865 114.852 94.5669 115.06 93.3348 115.006C92.3886 114.965 91.3331 114.105 90.9436 114.046C90.2727 114.283 89.2615 114.705 88.6187 114.88C87.4849 115.475 85.3419 116.215 84.151 116.648C81.785 117.508 80.2569 117.745 77.8963 116.813C77.2344 116.552 76.166 116.326 75.4233 116.289C74.0036 116.219 72.6705 116.75 71.3165 117.167C68.9745 117.888 66.68 116.841 64.4959 116.042C63.6347 115.727 62.466 115.312 61.6504 114.914C60.8751 114.619 60.0556 114.289 59.2677 114.043C55.7248 116.444 51.7678 114.086 52.3093 109.783C52.3491 109.467 52.3159 108.245 52.2069 108.005C50.1334 106.289 48.5118 103.749 47.7104 101.188C47.4256 100.3 47.2369 99.3847 47.1476 98.4569C47.0145 96.9675 47.0702 94.1833 47.0903 92.608C47.1281 89.6361 46.8828 86.243 47.355 83.3564C47.7038 81.2246 48.6444 79.0068 49.6384 77.1033C48.7521 76.3555 46.604 74.4195 45.7212 73.8723C46.0593 73.2525 46.3991 72.7138 46.7775 72.1168C45.2454 70.9554 44.1081 70.2508 42.935 68.6089C41.6565 66.8522 40.6128 64.2487 41.0706 62.0119C42.438 55.3316 48.3942 57.5707 52.459 59.336L56.102 60.9087C56.7644 61.191 57.985 61.7566 58.6566 61.8437C59.1141 60.5681 59.6608 58.9152 60.1856 57.7026Z" fill="#FEE6C5"/>
<path d="M60.1856 57.7026C60.2081 57.6224 60.2312 57.5422 60.2552 57.4624C60.3749 57.0643 60.5351 56.6161 60.6888 56.2227C61.78 53.4294 62.57 50.4332 63.9028 47.7546C64.1326 47.2928 64.8121 46.7739 65.258 46.5399C65.9643 46.1764 66.7576 46.0159 67.5496 46.0764C71.0248 46.3333 72.2837 49.8878 75.6532 49.7673C77.5652 49.699 78.8694 47.7698 80.4854 46.8952C82.7432 45.7439 85.4228 45.6688 86.7464 48.3668C87.4921 49.8864 87.8999 51.6294 88.5333 53.1992C89.0129 54.6135 89.7372 56.3216 90.1208 57.7093C90.6688 59.0771 91.0884 60.4023 91.6066 61.7371C91.579 61.7906 91.5455 61.8558 91.5059 61.9327C90.6846 62.3051 89.4878 62.6497 88.6785 62.9362C88.6926 64.8083 86.5237 66.3676 86.1261 67.269C84.5906 67.6452 82.8167 67.9465 81.248 68.1788C80.5215 68.1761 78.7828 68.452 77.874 68.5005C74.9325 68.6727 71.9814 68.5668 69.0599 68.184C68.642 68.1755 67.2992 67.9277 66.8609 67.8493C64.9757 67.5129 63.0997 67.1268 61.2348 66.6913C60.4164 67.0869 59.229 67.5688 58.4837 67.9831C55.1023 69.8623 51.4825 73.6692 49.6384 77.1033C48.7521 76.3555 46.604 74.4195 45.7212 73.8723C46.0593 73.2524 46.3991 72.7138 46.7775 72.1168C45.2454 70.9554 44.1081 70.2508 42.935 68.6089C41.6565 66.8522 40.6128 64.2487 41.0706 62.0119C42.438 55.3316 48.3942 57.5707 52.459 59.336L56.102 60.9087C56.7644 61.191 57.985 61.7566 58.6566 61.8437C59.1141 60.5681 59.6608 58.9152 60.1856 57.7026Z" fill="#FE92B6"/>
<path d="M60.1836 57.7026C60.206 57.6224 60.2292 57.5422 60.2532 57.4624C60.3729 57.0643 60.5331 56.6161 60.6867 56.2227C61.778 53.4294 62.568 50.4332 63.9008 47.7546C64.1306 47.2928 64.8101 46.7739 65.256 46.5399C65.9623 46.1764 66.7556 46.0159 67.5476 46.0764C71.0228 46.3333 72.2817 49.8878 75.6512 49.7673C77.5632 49.699 78.8674 47.7698 80.4834 46.8952C82.7411 45.7439 85.4207 45.6688 86.7444 48.3668C87.49 49.8864 87.8979 51.6294 88.5312 53.1992C89.0108 54.6135 89.7351 56.3216 90.1188 57.7093C88.3379 57.779 86.4149 57.7409 84.6232 57.7365L84.5579 57.713C83.4196 57.7965 81.564 57.7436 80.3958 57.7437L72.6097 57.7428L64.6508 57.7469C63.361 57.7471 61.4353 57.7958 60.1836 57.7026Z" fill="#FE92B6"/>
<path d="M80.4844 46.8953C82.7421 45.7439 85.4217 45.6688 86.7454 48.3668C87.491 49.8864 87.8988 51.6294 88.5322 53.1992C89.0118 54.6136 89.7361 56.3216 90.1198 57.7093C88.3389 57.779 86.4159 57.7409 84.6242 57.7365L84.5588 57.713C83.8163 55.0204 82.7697 52.2335 81.7361 49.6418C81.4651 48.9621 80.8509 47.4782 80.4844 46.8953Z" fill="#FE709A"/>
<path d="M84.6249 57.7365C86.4166 57.7409 88.3396 57.779 90.1205 57.7093C90.6685 59.0771 91.0881 60.4023 91.6063 61.7371C91.5787 61.7906 91.5451 61.8558 91.5055 61.9327C90.6843 62.3051 89.4875 62.6497 88.6782 62.9362C87.515 63.2682 86.446 63.5654 85.2686 63.837C81.3509 64.7512 76.3867 65.0453 72.3925 64.8434C68.3055 64.6371 64.2667 63.866 60.3913 62.552C60.054 62.4404 58.8512 62.0594 58.6562 61.8437C59.1138 60.5681 59.6605 58.9152 60.1853 57.7026C61.437 57.7958 63.3627 57.7471 64.6525 57.7469L72.6114 57.7428L80.3975 57.7437C81.5657 57.7436 83.4213 57.7965 84.5596 57.713L84.6249 57.7365Z" fill="#CF385C"/>
<path d="M84.625 57.7364C86.4167 57.7408 88.3397 57.779 90.1206 57.7092C90.6686 59.0771 91.0881 60.4022 91.6064 61.7371C91.5788 61.7906 91.5452 61.8557 91.5056 61.9326C90.6844 62.305 89.4876 62.6497 88.6783 62.9362C87.5151 63.2681 86.4461 63.5653 85.2687 63.837C85.3131 61.3344 85.1011 60.146 84.625 57.7364Z" fill="#A42243"/>
<path d="M46.7751 72.1168C48.3518 70.1127 49.7177 68.3532 51.9984 67.0256C55.2326 65.143 57.8411 65.777 61.2324 66.6913C60.4139 67.0869 59.2266 67.5688 58.4812 67.9831C55.0999 69.8623 51.48 73.6692 49.636 77.1033C48.7496 76.3555 46.6016 74.4195 45.7188 73.8723C46.0568 73.2524 46.3967 72.7138 46.7751 72.1168Z" fill="#AC5B27"/>
<path d="M91.6058 61.7371C91.8757 61.8619 92.0337 61.7411 92.3187 61.6518C96.4821 60.3607 102.105 56.1731 106.475 57.9609C109.651 59.2606 109.857 64.1072 108.437 66.7948C107.077 69.3704 105.848 70.4602 103.508 72.1207C103.927 72.7163 104.244 73.2021 104.584 73.851C103.277 74.7903 102.022 76.0882 100.73 77.0224C100.746 77.3393 101.624 78.983 101.782 79.4279C102.139 80.4298 102.539 81.3546 102.775 82.4204C102.963 83.2603 103.092 84.1124 103.16 84.9705C103.271 86.5376 103.219 89.5257 103.206 91.1591C103.187 93.7064 103.41 97.851 102.864 100.208C102.38 102.322 101.417 104.297 100.05 105.981C99.5341 106.621 98.6903 107.542 98.0592 108.082C98.0053 107.629 98.0585 105.894 98.0569 105.359C98.0477 102.126 98.2438 99.3469 97.3285 96.1679C95.8291 90.961 92.4781 86.6749 88.005 83.6663C86.7165 82.7996 85.483 82.3724 84.2264 81.6668C84.139 80.7832 83.6698 79.6618 83.4462 78.8116C82.6166 75.6581 80.5487 71.38 81.2471 68.1789C82.8158 67.9465 84.5897 67.6452 86.1253 67.269C86.5228 66.3676 88.6918 64.8083 88.6777 62.9363C89.4869 62.6498 90.6838 62.3051 91.505 61.9327C91.5446 61.8558 91.5781 61.7906 91.6058 61.7371Z" fill="#D57F42"/>
<path d="M91.6055 61.7371C91.8754 61.8619 92.0334 61.7411 92.3184 61.6518C96.4818 60.3607 102.105 56.1731 106.474 57.9609C109.651 59.2606 109.856 64.1072 108.437 66.7948C107.077 69.3704 105.848 70.4602 103.507 72.1207C103.927 72.7163 104.244 73.2021 104.584 73.851C103.277 74.7903 102.022 76.0882 100.73 77.0224C100.454 76.8191 98.6264 73.9651 98.1437 73.3995C95.9631 70.8439 93.4585 68.5607 90.307 67.2555C89.8099 67.0496 89.4124 66.9547 88.9866 66.6874C88.4314 66.8093 86.6099 67.2429 86.125 67.269C86.5225 66.3676 88.6915 64.8083 88.6774 62.9363C89.4867 62.6498 90.6835 62.3051 91.5047 61.9327C91.5443 61.8558 91.5779 61.7906 91.6055 61.7371Z" fill="#FE709A"/>
<path d="M88.9883 66.6873C92.3368 65.7902 95.1074 65.1177 98.2592 66.9987C100.445 68.3033 102.041 70.0698 103.509 72.1206C103.928 72.7162 104.246 73.202 104.586 73.851C103.279 74.7902 102.023 76.0882 100.732 77.0224C100.456 76.8191 98.6281 73.9651 98.1455 73.3994C95.9648 70.8439 93.4602 68.5606 90.3087 67.2554C89.8116 67.0496 89.4141 66.9547 88.9883 66.6873Z" fill="#AC5B27"/>
<path d="M87.0922 77.9783C88.0399 77.8532 88.9817 78.2473 89.5578 79.0102C90.1339 79.773 90.2553 80.7866 89.8756 81.6639C89.496 82.5412 88.674 83.1467 87.7235 83.2489C86.2784 83.4042 84.9771 82.3685 84.8042 80.9255C84.6314 79.4824 85.6513 78.1686 87.0922 77.9783Z" fill="#474249"/>
<path d="M61.2337 66.6913C63.0986 67.1267 64.9746 67.5129 66.8598 67.8492C67.2982 67.9276 68.641 68.1755 69.0588 68.184C69.1893 68.8113 69.3199 69.4948 69.2444 70.1512C68.8975 73.1641 67.5946 76.2214 66.759 79.147C66.6021 79.6964 66.0917 81.1755 66.0395 81.6804C64.9401 82.2253 63.6154 82.8393 62.5953 83.494C58.2944 86.2542 54.9419 90.3499 53.2866 95.1993C52.2105 98.3517 52.2432 101.162 52.2828 104.415C52.2895 104.969 52.3582 107.742 52.2059 108.005C50.1323 106.289 48.5107 103.749 47.7093 101.188C47.4245 100.3 47.2358 99.3846 47.1465 98.4568C47.0134 96.9675 47.0691 94.1833 47.0892 92.6079C47.1271 89.636 46.8817 86.2429 47.3539 83.3564C47.7027 81.2245 48.6433 79.0067 49.6373 77.1032C51.4814 73.6691 55.1012 69.8623 58.4826 67.983C59.228 67.5688 60.4153 67.0869 61.2337 66.6913Z" fill="#D57F42"/>
<path d="M58.5396 77.9759C59.9881 77.7816 61.321 78.7952 61.5209 80.2431C61.7208 81.6908 60.7124 83.0276 59.2655 83.2332C57.8104 83.4399 56.4645 82.4247 56.2635 80.9689C56.0626 79.5131 57.0831 78.1712 58.5396 77.9759Z" fill="#474249"/>
<path d="M61.6484 114.914C64.951 111.012 60.2994 104.902 66.2722 100.429C67.5705 99.4569 69.183 98.7949 70.8046 98.6551C72.2979 98.5263 73.8402 98.6067 75.3393 98.6139C78.7971 98.6305 81.6165 98.3457 84.4463 100.755C86.1865 102.237 87.1705 104.313 87.3494 106.578C87.5636 109.293 86.7285 112.64 88.6167 114.88C87.4829 115.475 85.3399 116.214 84.149 116.648C81.783 117.508 80.2549 117.744 77.8943 116.813C77.2324 116.552 76.164 116.325 75.4213 116.289C74.0016 116.219 72.6685 116.75 71.3145 117.167C68.9725 117.888 66.678 116.841 64.4939 116.042C63.6327 115.727 62.464 115.312 61.6484 114.914Z" fill="#FED59F"/>
<path d="M73.9741 89.5076C72.7942 89.5282 71.8251 89.3357 70.9298 88.4738C70.1761 87.7579 69.7482 86.7647 69.7453 85.7251C69.7404 84.7535 70.1264 83.8207 70.8167 83.1368C72.196 81.7868 74.7673 82.2014 76.5859 82.1607C81.9499 82.0406 81.9753 89.4799 76.3413 89.5178C76.3367 90.8553 76.0507 93.9325 76.9428 94.7734C78.0575 95.8243 79.7568 95.3477 81.4919 95.8218C86.4767 97.184 89.792 101.213 89.6861 106.447C89.6545 108.008 89.5977 110.468 89.8008 112.018C89.868 112.53 90.9077 113.917 90.9415 114.046C90.2706 114.283 89.2595 114.705 88.6167 114.88C86.7284 112.64 87.5636 109.293 87.3493 106.578C87.1705 104.313 86.1864 102.237 84.4462 100.755C81.6164 98.3457 78.797 98.6305 75.3392 98.6139C73.8402 98.6067 72.2978 98.5263 70.8045 98.6551C69.1829 98.795 67.5704 99.4569 66.2721 100.429C60.2993 104.902 64.9509 111.012 61.6484 114.914C60.873 114.619 60.0536 114.289 59.2656 114.043C60.7666 112.431 60.6357 111.294 60.6392 109.241C60.6434 106.786 60.3921 104.245 61.4593 101.959C62.9477 98.5612 66.2671 96.1277 69.9222 95.5964C70.8709 95.4585 72.2008 95.6165 73.029 95.0751C74.4555 94.1425 73.9523 91.0953 73.9741 89.5076Z" fill="#474249"/>
<path d="M69.0583 68.184C71.9799 68.5668 74.931 68.6727 77.8724 68.5005C78.7812 68.452 80.52 68.1761 81.2465 68.1789C80.548 71.38 82.616 75.6581 83.4455 78.8116C83.6691 79.6618 84.1384 80.7831 84.2257 81.6667C83.1595 81.3902 82.1228 80.9383 81.0374 80.6468C77.3455 79.6546 73.4629 79.6102 69.7494 80.5176C68.4349 80.8302 67.0391 81.4487 66.0391 81.6805C66.0912 81.1756 66.6016 79.6965 66.7585 79.1471C67.5941 76.2215 68.8971 73.1642 69.2439 70.1513C69.3194 69.4949 69.1888 68.8114 69.0583 68.184Z" fill="#FED59F"/>
</g>
</g>
<path d="M13.4385 78.1976C14.2606 78.0691 14.5344 78.4852 14.9755 79.0885L15.6267 79.9853L17.409 82.43C18.7443 82.6915 20.0878 82.9061 21.4241 83.165C21.9671 83.2703 22.5368 83.3452 23.072 83.4868C23.1256 83.501 23.2692 83.5587 23.3146 83.591C24.5998 84.5034 23.6497 85.448 23.0217 86.2898L21.446 88.4352C21.233 88.7245 20.7224 89.3827 20.5669 89.6616C20.617 89.8899 20.6427 90.1798 20.6787 90.4196L20.9535 92.297L21.1965 93.8898C21.2828 94.4228 21.4879 95.2507 21.3059 95.7551C21.1165 96.2209 20.6606 96.5265 20.1742 96.5545C19.773 96.5776 19.5007 96.4186 19.142 96.2689L18.2579 95.9046L14.5369 94.3525C14.5103 94.3374 14.4288 94.2896 14.4012 94.3025C14.1419 94.4239 13.8972 94.5801 13.6426 94.7129L10.6837 96.293L9.82471 96.7539C9.4525 96.9528 9.22173 97.1151 8.7865 97.1015C8.43877 97.0878 8.11012 96.9351 7.87166 96.6764C7.6992 96.4879 7.58751 96.2501 7.55162 95.9951C7.50377 95.6396 7.59722 94.9376 7.61267 94.5579C7.67092 93.1266 7.78319 91.69 7.82905 90.2584C7.56276 89.9324 7.18373 89.5325 6.89686 89.2125L5.22348 87.3448C5.11761 87.2272 5.00679 87.1111 4.90358 86.9915C4.42238 86.4337 3.74069 85.9579 4.03818 85.1141C4.13299 84.839 4.32026 84.6071 4.56687 84.4595C4.8272 84.3025 5.45439 84.1512 5.77918 84.0564L9.00337 83.1253C9.28395 83.0436 10.0336 82.8658 10.2835 82.7466C10.4031 82.5927 10.7196 82.0196 10.8392 81.8187C11.2498 81.1336 11.6555 80.4455 12.0563 79.7543C12.2475 79.4296 12.4348 79.0904 12.6359 78.773C12.8184 78.485 13.1003 78.2603 13.4385 78.1976Z" fill="#FFB806"/>
<defs>
<clipPath id="clip0_667_14425">
<rect x="30.1523" y="30.384" width="90" height="90" rx="45" fill="white"/>
</clipPath>
<clipPath id="clip1_667_14425">
<rect width="80" height="80" fill="white" transform="translate(35.1523 37.884)"/>
</clipPath>
</defs>
</svg>
