<svg width="106" height="54" viewBox="0 0 106 54" fill="none" xmlns="http://www.w3.org/2000/svg">
<g clip-path="url(#clip0_624_7290)">
<mask id="mask0_624_7290" style="mask-type:luminance" maskUnits="userSpaceOnUse" x="0" y="0" width="106" height="54">
<path d="M78.7429 0H27.2571C12.2034 0 0 12.0883 0 27C0 41.9117 12.2034 54 27.2571 54H78.7429C93.7966 54 106 41.9117 106 27C106 12.0883 93.7966 0 78.7429 0Z" fill="white"/>
</mask>
<g mask="url(#mask0_624_7290)">
<path d="M78.7429 0H27.2571C12.2034 0 0 12.0883 0 27C0 41.9117 12.2034 54 27.2571 54H78.7429C93.7966 54 106 41.9117 106 27C106 12.0883 93.7966 0 78.7429 0Z" fill="#FFB2E8"/>
<path d="M44.2695 -0.812075C47.9692 -2.63559 52.7083 -3.25683 56.8197 -2.99074C66.3369 -2.37474 74.6645 3.35983 78.9199 11.3539C81.1475 15.5412 82.4399 19.984 83.0168 24.6369C83.3235 27.0008 83.4726 29.6372 84.2313 31.9006C84.7113 33.3801 85.442 34.7755 86.3945 36.0322C88.8794 39.3728 91.4249 40.8637 92.2245 45.5605C92.5129 47.164 92.3895 48.8095 91.8633 50.3578C90.9562 53.0262 89.1096 54.574 89.3526 57.5798C89.4185 58.4479 89.6646 59.2949 90.0772 60.0716C91.141 62.0593 93.6017 64.0537 96.1321 62.9717C96.4205 62.8481 96.6537 62.6273 96.9717 62.5911C97.1148 62.6584 97.158 62.675 97.2155 62.8618C97.5956 64.1032 97.2473 65.7706 96.5818 66.8664C95.7134 68.2992 94.8124 68.9259 93.2943 69.5848C93.7471 70.6548 94.0318 71.32 94.2263 72.4843C94.7806 75.8025 93.1361 79.4077 89.866 80.8837C89.7486 80.937 89.6169 80.9392 89.4897 80.922C89.4162 80.8665 89.3299 80.835 89.3556 80.7502C89.6752 79.731 89.6721 79.1242 89.5578 78.0645C89.4775 78.321 89.4041 78.5895 89.3132 78.843C87.7664 83.1952 83.4779 85.7047 78.7458 84.7245C79.8391 89.7112 80.5425 93.468 80.9408 98.625H23.2694C23.4711 97.4115 23.6249 96.2242 23.8889 95.0145C24.7609 91.0192 26.419 86.4202 28.4271 82.8105C28.5871 82.614 29.4372 80.9782 29.6711 80.5807C30.616 78.99 31.603 77.4217 32.6313 75.8782C33.9283 73.9033 35.2891 71.9662 36.7118 70.0712C37.9112 68.4705 39.4124 66.6462 40.3535 64.9099C40.7106 64.251 40.9702 63.0384 41.1035 62.3019C41.2704 61.3797 41.372 59.3282 41.799 58.5721C41.9039 58.5014 41.9702 58.4566 42.0664 58.3761C41.9187 57.3642 44.1619 56.5897 44.9429 56.3661C44.8205 55.9228 44.6844 55.4824 44.5351 55.0465C44.141 53.8754 43.0305 50.8569 41.9439 50.3245C38.839 51.1387 34.2375 52.1471 31.4133 50.2532C30.9038 49.9054 30.454 49.4851 30.0801 49.0067C29.3461 48.0856 28.7898 47.0151 28.2062 45.9991C26.7583 43.4791 25.2845 40.8999 24.914 38.0041C24.8437 37.4547 24.8111 36.8894 24.7107 36.3471L24.6988 36.2854C24.8168 35.6893 24.7153 34.8137 24.8153 34.1543C25.1661 31.8436 25.5851 29.9034 25.5315 27.5484C24.3057 26.6705 23.2767 25.57 22.5044 24.3108C20.7964 21.5486 20.5193 18.2266 21.3866 15.163C22.5379 11.0186 25.3974 7.48694 29.3222 5.3618C29.6989 4.54216 30.6338 3.52886 31.4634 3.12938C32.0707 2.32526 36.1482 0.190352 37.116 0.277859C37.7581 -0.28864 40.8229 -0.727384 41.7079 -0.670981C42.4492 -0.85163 43.6435 -0.683803 44.2695 -0.812075Z" fill="#3C1B06"/>
<path d="M69.2822 32.2889C69.5238 32.4807 69.7764 33.7128 69.9072 34.0829C71.6736 39.1263 74.1897 43.7561 77.4568 48.0098C80.6065 52.1096 83.601 55.6956 81.7824 61.0967C81.693 61.4122 81.5999 61.6517 81.4825 61.9546C81.5825 60.3021 81.6544 58.4474 81.1872 56.8532C80.156 53.3322 77.6536 50.6124 75.5933 47.7053C72.884 43.883 70.7971 39.429 69.8369 34.861C69.6718 34.0764 69.3593 33.0671 69.2822 32.2889Z" fill="#2F1504"/>
<path d="M66.9248 13.1418C67.1664 13.3336 67.419 14.5657 67.5499 14.9358C69.3162 19.9792 71.8323 24.609 75.0994 28.8627C78.2493 32.9625 81.2438 36.5485 79.4252 41.9496C79.3358 42.2651 79.2427 42.5046 79.1253 42.8075C79.2253 41.155 79.2972 39.3003 78.8293 37.7061C77.7981 34.1851 75.2964 31.4653 73.2359 28.5582C70.5265 24.7359 68.4398 20.2819 67.4796 15.7139C67.3144 14.9293 67.0019 13.92 66.9248 13.1418Z" fill="#2F1504"/>
<path d="M41.7079 -0.671039C42.4492 -0.851689 43.6435 -0.683861 44.2695 -0.812134C44.6608 -0.663795 46.3 -0.507812 46.8481 -0.386439C49.4303 0.185235 52.2306 1.33031 54.4303 2.73716C53.9738 3.35414 53.7506 3.90045 53.9119 4.68193C54.0374 5.2893 54.4224 5.82033 54.9754 6.14903C55.535 6.48245 56.2141 6.58467 56.8555 6.43202C57.4351 6.29725 57.8396 6.01024 58.216 5.58696C59.3323 6.55753 60.7504 7.91385 61.6441 9.0795C61.1833 9.5868 60.9487 10.1685 61.0081 10.8458C61.0717 11.5016 61.4228 12.1019 61.9758 12.5006C62.5936 12.9557 63.2357 13.0734 63.9929 12.9687C64.0875 12.9555 64.1821 12.9413 64.2767 12.926C66.0762 15.8175 67.629 20.1776 67.7915 23.6489C67.7939 23.6934 67.7721 23.6973 67.7375 23.7176C67.9418 23.8848 67.9346 24.4772 67.9552 24.7534C67.9957 25.304 68.0303 27.9044 67.7187 28.2576C67.7054 28.2724 67.6908 28.2861 67.6774 28.3004C68.1789 28.803 66.6752 33.2873 66.3879 33.9629C66.3945 34.2875 66.4097 34.6225 66.3994 34.9463C66.292 38.3132 63.7086 40.8981 60.4018 41.7318C60.3054 41.1983 60.0513 40.1495 59.3268 40.1944C59.1595 40.2915 59.1219 40.2927 59.0328 40.4577C59.1388 41.0281 59.4063 41.1494 59.4493 41.8767C58.424 41.8899 58.0481 41.8157 57.0738 41.5058C56.8906 41.8623 56.6324 42.9725 56.5481 43.3946C55.6144 48.0971 52.1396 51.115 49.4679 54.905C49.2472 55.2184 48.0897 57.29 47.9614 57.3348C47.3602 57.4274 45.9692 58.046 45.3584 57.8005C45.2022 57.7379 45.007 56.6231 44.9429 56.366C44.8205 55.9227 44.6844 55.4823 44.5351 55.0465C44.141 53.8754 43.0305 50.8568 41.9439 50.3244C38.839 51.1385 34.2375 52.1471 31.4133 50.2532C30.9038 49.9053 30.454 49.485 30.0801 49.0067C29.3461 48.0856 28.7898 47.015 28.2062 45.9991C26.7583 43.4791 25.2845 40.8998 24.914 38.004C24.8437 37.4546 24.8111 36.8894 24.7107 36.347L24.6988 36.2853C24.8168 35.6891 24.7153 34.8137 24.8153 34.1543C25.1661 31.8435 25.5851 29.9033 25.5315 27.5483C24.3057 26.6705 23.2767 25.5699 22.5044 24.3107C20.7964 21.5486 20.5193 18.2266 21.3866 15.163C22.5379 11.0186 25.3974 7.48689 29.3222 5.36175C29.6989 4.5421 30.6338 3.52881 31.4634 3.12933C32.0707 2.32521 36.1482 0.190294 37.116 0.277802C37.7581 -0.288697 40.8229 -0.727442 41.7079 -0.671039Z" fill="#3C1B06"/>
<path d="M25.8532 22.8355C26.4421 18.6985 29.8348 11.0216 35.3353 10.886C35.4659 10.8827 35.619 10.9708 35.7174 11.0479C35.8758 11.4506 35.7795 12.4999 35.8365 13.0688C35.9679 14.3017 36.249 15.5161 36.6742 16.6878C38.5069 21.6136 42.2683 24.262 46.4677 27.2747C48.7376 28.9033 50.6535 30.2641 53.0943 31.7143C53.8892 36.0001 53.7364 39.873 52.3443 44.0448C51.7071 44.5468 51.1695 45.2654 50.5525 45.7915C49.1636 46.9759 47.4439 48.0425 45.7601 48.8106C45.0786 49.1216 44.3837 49.4063 43.6773 49.6627C43.2694 49.8098 42.2608 50.1226 41.9443 50.3244C38.8394 51.1386 34.2378 52.1471 31.4137 50.2532C30.9042 49.9053 30.4544 49.485 30.0805 49.0066C29.3464 48.0856 28.7901 47.015 28.2066 45.9991C26.7586 43.4791 25.2849 40.8998 24.9144 38.004C24.8441 37.4546 24.8114 36.8893 24.7111 36.347L24.6992 36.2853C24.8171 35.6892 24.7156 34.8137 24.8157 34.1542C25.1664 31.8435 25.5855 29.9033 25.5319 27.5483C25.5798 26.4901 25.539 25.0969 25.6509 24.0873C26.4728 24.0932 26.3253 24.112 27.0665 24.2815C27.8386 24.4579 28.9644 25.4362 29.5305 25.1661C30.0608 24.2503 27.7737 21.8822 25.8532 22.8355Z" fill="#F8C8A0"/>
<mask id="mask1_624_7290" style="mask-type:alpha" maskUnits="userSpaceOnUse" x="24" y="10" width="30" height="42">
<path d="M25.8532 22.8355C26.4421 18.6985 29.8348 11.0216 35.3353 10.886C35.4659 10.8827 35.619 10.9708 35.7174 11.0479C35.8758 11.4506 35.7795 12.4999 35.8365 13.0688C35.9679 14.3017 36.249 15.5161 36.6742 16.6878C38.5069 21.6136 42.2683 24.262 46.4677 27.2747C48.7376 28.9033 50.6535 30.2641 53.0943 31.7143C53.8892 36.0001 53.7364 39.873 52.3443 44.0448C51.7071 44.5468 51.1695 45.2654 50.5525 45.7915C49.1636 46.9759 47.4439 48.0425 45.7601 48.8106C45.0786 49.1216 44.3837 49.4063 43.6773 49.6627C43.2694 49.8098 42.2608 50.1226 41.9443 50.3244C38.8394 51.1386 34.2378 52.1471 31.4137 50.2532C30.9042 49.9053 30.4544 49.485 30.0805 49.0066C29.3464 48.0856 28.7901 47.015 28.2066 45.9991C26.7586 43.4791 25.2849 40.8998 24.9144 38.004C24.8441 37.4546 24.8114 36.8893 24.7111 36.347L24.6992 36.2853C24.8171 35.6892 24.7156 34.8137 24.8157 34.1542C25.1664 31.8435 25.5855 29.9033 25.5319 27.5483C25.5798 26.4901 25.539 25.0969 25.6509 24.0873C26.4728 24.0932 26.3253 24.112 27.0665 24.2815C27.8386 24.4579 28.9644 25.4362 29.5305 25.1661C30.0608 24.2503 27.7737 21.8822 25.8532 22.8355Z" fill="#F8C8A0"/>
</mask>
<g mask="url(#mask1_624_7290)">
<path d="M26.1068 30.7818C27.7161 30.7249 29.0929 31.6524 29.2126 32.8743C29.3324 34.0963 28.152 35.1688 26.5493 35.2939C25.472 35.3782 24.4198 35.0106 23.8017 34.3342C23.1837 33.6579 23.0976 32.7796 23.5768 32.041C24.056 31.3024 25.025 30.8202 26.1068 30.7818Z" fill="#FFB2E8"/>
</g>
<path d="M42.9608 32.9458C44.7408 32.885 46.2637 33.8752 46.3962 35.1799C46.5287 36.4844 45.223 37.6295 43.4502 37.7632C42.2585 37.8531 41.0946 37.4606 40.4109 36.7384C39.7273 36.0164 39.6321 35.0787 40.1621 34.2902C40.6923 33.5015 41.7641 32.9867 42.9608 32.9458Z" fill="#FFB2E8"/>
<path d="M38.4917 24.5308C40.5172 24.3531 42.6893 25.0207 44.3401 26.1253C44.7047 26.3692 46.8145 28.0623 46.3351 28.4764C45.9753 28.3902 45.3101 28.0407 44.9523 27.8677C43.4615 27.1596 41.8629 26.6776 40.2146 26.4395C39.5891 26.3541 39.0237 26.3275 38.3762 26.2997C37.9186 26.2682 36.4753 26.5472 36.3932 25.8899C36.2726 24.9231 37.8583 24.6223 38.4917 24.5308Z" fill="#3C1B06"/>
<path d="M39.4927 30.9797C41.9781 30.7845 42.0538 34.1361 40.1524 34.8867C37.8828 35.2583 37.4148 31.8265 39.4927 30.9797Z" fill="#1A1817"/>
<path d="M28.0892 29.0916C29.7787 29.2624 29.8607 32.2637 28.3721 32.85C26.6231 32.7584 26.6027 29.7594 28.0892 29.0916Z" fill="#1A1817"/>
<path d="M30.8989 34.4043L30.9579 34.4646C30.7546 35.0203 29.5263 35.7162 29.328 36.2453C28.9107 37.3595 30.7749 37.9384 31.4632 38.8255L30.4969 38.753C29.0917 38.3707 27.9278 37.8166 28.153 36.6438C28.3496 35.6196 29.7895 34.9756 30.8989 34.4043Z" fill="#CC986D"/>
<path d="M41.7083 -0.671039C42.4496 -0.851689 43.6439 -0.683861 44.27 -0.812134C44.6612 -0.663795 46.3004 -0.507812 46.8486 -0.386439C49.4307 0.185235 52.231 1.33031 54.4307 2.73716C53.9742 3.35414 53.751 3.90045 53.9123 4.68193C54.0379 5.2893 54.4228 5.82033 54.9758 6.14903C55.5354 6.48245 56.2145 6.58467 56.8559 6.43202C57.4355 6.29725 57.84 6.01024 58.2164 5.58696C59.3327 6.55753 60.7508 7.91385 61.6446 9.0795C61.1838 9.5868 60.9491 10.1685 61.0085 10.8458C61.0722 11.5016 61.4233 12.1019 61.9762 12.5006C62.594 12.9557 63.2361 13.0734 63.9934 12.9687C64.0879 12.9555 64.1825 12.9413 64.2771 12.926C66.0767 15.8175 67.6294 20.1776 67.7919 23.6489C67.7943 23.6934 67.7725 23.6973 67.7379 23.7176C67.9423 23.8848 67.935 24.4772 67.9556 24.7534C67.9962 25.304 68.0308 27.9044 67.7191 28.2576C67.7058 28.2724 67.6912 28.2861 67.6779 28.3004C68.1793 28.803 66.6756 33.2873 66.3883 33.9629C66.1797 33.5543 66.0318 32.8148 65.6498 32.3767C65.6068 32.327 65.5146 32.1766 65.4746 32.115C66.11 29.9958 63.9164 28.576 61.841 29.5703C61.5888 27.7859 61.3286 26.509 60.743 24.7734C60.6114 24.3838 59.8474 22.4163 59.8189 22.1983C59.4067 21.6952 58.9198 20.5967 58.9568 19.9342C58.9064 20.105 58.9495 20.0735 58.8434 20.1767C58.4954 19.6396 58.2856 19.0918 57.9576 18.5475C57.2476 17.3701 56.4625 16.2857 55.6475 15.1745C56.1605 14.9489 56.4818 14.7926 56.8469 14.3453C57.2682 13.8267 57.4416 13.1644 57.3246 12.519C57.2021 11.8686 56.8038 11.2942 56.2224 10.9299C55.6815 10.5887 55.0182 10.4695 54.3834 10.5992C53.5867 10.763 53.1514 11.1856 52.7446 11.8051C50.7259 9.85485 49.4006 8.832 47.0077 7.28697C48.7251 6.99266 49.9179 5.65268 49.2154 4.01102C48.9658 3.44216 48.4829 2.99416 47.8777 2.76999C47.2382 2.52804 46.5225 2.54225 45.8942 2.80931C45.3041 3.05723 44.8449 3.5211 44.6213 4.09525C44.3418 4.82222 44.4755 5.44604 44.8102 6.11562C40.6649 4.39986 38.1874 3.66335 33.496 4.11537C32.8771 3.30653 32.4853 3.15848 31.4639 3.12933C32.0712 2.32521 36.1486 0.190294 37.1165 0.277802C37.7585 -0.288697 40.8233 -0.727442 41.7083 -0.671039Z" fill="white"/>
<path d="M58.9561 19.9342C58.964 18.858 60.2493 17.9774 61.3425 17.9916C61.9949 18.0034 62.6151 18.2607 63.0669 18.7068C63.5543 19.1751 63.812 19.8158 63.7768 20.4728C63.672 22.394 61.5341 23.2296 59.8183 22.1983C59.406 21.6952 58.9191 20.5967 58.9561 19.9342Z" fill="#3C1B06"/>
<path d="M52.6143 12.3834C52.6222 11.3072 53.9076 10.4267 55.0007 10.4408C55.6531 10.4526 56.2733 10.7099 56.725 11.156C57.2125 11.6243 57.4702 12.2651 57.435 12.9221C57.3301 14.8432 55.1923 15.6788 53.4764 14.6475C53.0642 14.1444 52.5773 13.046 52.6143 12.3834Z" fill="#3C1B06"/>
<path d="M37.1162 0.277827C37.7582 -0.288673 40.823 -0.727417 41.708 -0.671014C42.2196 0.36614 41.5686 1.50276 40.5274 1.96065C39.9032 2.23767 39.1868 2.26101 38.5438 2.02533C37.9912 1.8268 37.5442 1.42859 37.3007 0.917981C37.1958 0.69254 37.161 0.518156 37.1162 0.277827Z" fill="#3C1B06"/>
<path d="M67.6776 28.3005C66.8221 28.008 66.231 27.6168 65.9261 26.754C65.7084 26.1256 65.7721 25.44 66.1013 24.8571C66.4893 24.173 66.9974 23.9155 67.7377 23.7177C67.942 23.8849 67.9347 24.4773 67.9554 24.7535C67.9959 25.3041 68.0305 27.9045 67.7189 28.2577C67.7056 28.2725 67.691 28.2862 67.6776 28.3005Z" fill="#3C1B06"/>
<path d="M56.8805 33.5356C57.7578 33.8308 58.0609 33.9427 58.5781 33.1051C59.6476 31.3725 61.9352 30.2455 63.9882 31.1011C64.5981 31.3552 64.9898 31.6916 65.4736 32.1151C65.5137 32.1766 65.6058 32.3271 65.6489 32.3767C66.0309 32.8149 66.1788 33.5543 66.3873 33.9629C66.394 34.2876 66.4091 34.6225 66.3988 34.9463C66.2915 38.3132 63.7081 40.8982 60.4013 41.7319C60.3049 41.1983 60.0508 40.1496 59.3263 40.1944C59.159 40.2916 59.1214 40.2928 59.0322 40.4578C59.1384 41.0281 59.4057 41.1494 59.4488 41.8767C58.4235 41.89 58.0476 41.8158 57.0733 41.5059C56.4615 41.2753 56.2996 41.7945 55.7412 42.0331C56.7786 39.2515 57.0187 36.4563 56.8805 33.5356Z" fill="#F8C8A0"/>
<path d="M62.1973 33.1469C62.5714 33.1319 63.6299 33.0872 63.7057 33.5632C63.5329 33.6515 63.1485 33.6614 62.9284 33.68C61.9959 33.7586 61.2156 34.3449 60.5881 34.9772L60.5512 35.015C60.3323 35.2495 59.9794 35.8679 59.6695 35.8182C59.5532 35.3648 60.2928 34.4204 60.6026 34.0972C61.0762 33.6028 61.5321 33.3263 62.1973 33.1469Z" fill="#CC986D"/>
<path d="M55.7412 42.0332C56.2995 41.7945 56.4614 41.2754 57.0732 41.5059C56.8901 41.8624 56.6319 42.9726 56.5475 43.3946C55.6138 48.0971 52.1391 51.1151 49.4673 54.9051C49.2467 55.2185 48.0891 57.29 47.9608 57.3349C47.3597 57.4274 45.9686 58.0461 45.3578 57.8006C45.2016 57.7379 45.0064 56.6231 44.9423 56.3661C44.82 55.9228 44.6839 55.4824 44.5345 55.0466C44.1404 53.8754 43.0299 50.8569 41.9434 50.3245C42.2598 50.1227 43.2685 49.8099 43.6764 49.6628C44.3828 49.4063 45.0777 49.1217 45.7592 48.8107C47.443 48.0425 49.1626 46.976 50.5515 45.7916C51.1685 45.2655 51.7062 44.5468 52.3434 44.0449C51.8257 45.9578 50.5981 48.4525 49.4266 50.0813C49.0512 50.6033 48.7618 50.8925 48.3636 51.364C51.9305 49.5656 54.3236 45.4943 55.7412 42.0332Z" fill="#CC986D"/>
<path d="M59.4497 41.8767C59.4066 41.1494 59.1392 41.0281 59.0331 40.4577C59.1222 40.2927 59.1598 40.2915 59.3272 40.1944C60.0517 40.1495 60.3058 41.1983 60.4021 41.7318C60.3669 42.5591 60.3227 42.995 59.6837 43.5947C58.7494 44.4709 58.1182 43.2848 58.4771 43.2646C59.2768 43.2192 59.4478 42.5442 59.4497 41.8767Z" fill="#C6C4C4"/>
<path d="M24.6993 36.2854L24.7112 36.3471C24.8116 36.8894 24.8442 37.4547 24.9145 38.0041C25.2851 40.8999 26.7588 43.4792 28.2067 45.9992C28.7903 47.0151 29.3466 48.0857 30.0807 49.0067C30.4545 49.4851 30.9043 49.9054 31.4138 50.2533C34.238 52.1472 38.8395 51.1386 41.9444 50.3245C43.0311 50.8569 44.1415 53.8754 44.5357 55.0466C44.685 55.4824 44.821 55.9228 44.9434 56.3661C44.1625 56.5898 41.9192 57.3642 42.0669 58.3761C41.9707 58.4566 41.9044 58.5014 41.7996 58.5722C41.3725 59.3282 41.2709 61.3797 41.1041 62.3019C40.9706 63.0384 40.7111 64.251 40.354 64.9099C39.4129 66.6462 37.9117 68.4705 36.7123 70.0712C35.2896 71.9663 33.9288 73.9033 32.6319 75.8783C31.6035 77.4218 30.6165 78.99 29.6716 80.5808C29.4377 80.9783 28.5876 82.614 28.4275 82.8105C27.5487 82.1775 27.2269 81.8753 26.5665 81.0428C23.5293 80.9333 20.2575 78.9375 18.7578 76.4535C16.7744 73.1673 17.2708 69.2882 19.5798 66.2754C20.6292 64.9064 22.0072 63.5864 22.479 61.9213C23.1875 59.326 21.3574 57.746 20.0867 55.7141C18.0334 52.4312 18.2899 48.6474 20.157 45.3455C20.9659 43.9155 21.9415 42.6064 22.7533 41.1656C23.6938 39.4965 24.1788 38.1056 24.6993 36.2854Z" fill="#2C1303"/>
<path d="M59.539 38.6636C59.9483 37.9453 60.3075 37.3029 61.2297 37.0309C61.7593 36.8779 62.3333 36.9295 62.8211 37.1741C63.3229 37.4246 63.6945 37.8515 63.8517 38.3585C64.1337 39.2562 63.6802 39.9681 63.0079 40.5754C64.3869 40.6029 65.8587 41.0553 65.7967 42.5935C65.7768 43.1108 65.5335 43.5991 65.1211 43.9491C64.3049 44.6396 63.2829 44.5179 62.3408 44.1605C62.7489 45.2209 62.7138 45.634 61.9885 46.5449C61.7936 46.6826 61.5703 46.8491 61.3732 46.9779C59.3726 47.5588 58.2187 46.3074 58.3287 44.516C57.5346 45.1069 56.5928 45.3857 55.636 44.9162C55.1135 44.6569 54.7273 44.2124 54.566 43.6846C54.412 43.1927 54.4804 42.664 54.7555 42.2195C55.2052 41.5005 55.8694 41.3279 56.6575 41.1301C55.8595 40.7312 55.7049 40.5435 55.3192 39.8233C55.306 39.7065 55.2968 39.5894 55.2915 39.472C55.2618 38.7146 55.5437 38.308 56.0843 37.7741C57.5708 37.0346 58.6695 37.3085 59.539 38.6636Z" fill="#FC6432"/>
<path d="M59.8471 40.0031C60.7673 39.9635 61.5547 40.6084 61.6231 41.4581C61.6917 42.3077 61.0166 43.0534 60.1001 43.1404C59.4841 43.199 58.8824 42.9434 58.5289 42.4731C58.1755 42.0029 58.1263 41.3921 58.4004 40.8786C58.6744 40.365 59.2285 40.0298 59.8471 40.0031Z" fill="#FFB2E8"/>
<path d="M39.1367 13.9264C39.3013 14.0527 39.9996 15.1322 40.206 15.3916C41.8293 17.4431 43.7383 19.2002 45.9058 20.6829C46.4942 21.0851 47.7889 21.6573 48.2036 22.0566C47.3748 22.0242 44.978 20.9917 44.2477 20.4758C42.3475 19.1335 41.0072 17.3699 39.8759 15.3817C39.6421 14.9708 39.2195 14.3675 39.1367 13.9264Z" fill="#2F1504"/>
</g>
</g>
<defs>
<clipPath id="clip0_624_7290">
<rect width="106" height="54" fill="white"/>
</clipPath>
</defs>
</svg>
