<svg width="140" height="72" viewBox="0 0 140 72" fill="none" xmlns="http://www.w3.org/2000/svg">
<g clip-path="url(#clip0_483_54650)">
<rect width="140" height="72" rx="36" fill="#FC6432"/>
<path d="M58.4693 -1.08274C63.3556 -3.51409 69.6149 -4.34241 75.045 -3.98762C87.6149 -3.16629 98.6136 4.4798 104.234 15.1385C107.176 20.7216 108.883 26.6453 109.645 32.8492C110.05 36.0011 110.247 39.5163 111.249 42.5342C111.883 44.5068 112.848 46.3674 114.106 48.0429C117.388 52.4971 120.75 54.4849 121.806 60.7473C122.187 62.8853 122.024 65.0793 121.329 67.1438C120.131 70.7016 117.692 72.7653 118.013 76.7731C118.1 77.9306 118.425 79.0599 118.97 80.0955C120.375 82.7457 123.625 85.405 126.967 83.9623C127.348 83.7975 127.656 83.5031 128.076 83.4548C128.265 83.5445 128.322 83.5667 128.398 83.8158C128.9 85.4709 128.44 87.6941 127.561 89.1552C126.414 91.0656 125.224 91.9012 123.219 92.7797C123.817 94.2064 124.193 95.0933 124.45 96.6457C125.182 101.07 123.01 105.877 118.691 107.845C118.536 107.916 118.362 107.919 118.194 107.896C118.097 107.822 117.983 107.78 118.017 107.667C118.439 106.308 118.435 105.499 118.284 104.086C118.178 104.428 118.081 104.786 117.961 105.124C115.918 110.927 110.254 114.273 104.004 112.966C105.448 119.615 106.377 124.624 106.903 131.5H30.7333C30.9997 129.882 31.2028 128.299 31.5515 126.686C32.7032 121.359 34.8931 115.227 37.5453 110.414C37.7567 110.152 38.8794 107.971 39.1884 107.441C40.4363 105.32 41.7399 103.229 43.0981 101.171C44.8111 98.5377 46.6084 95.955 48.4874 93.4283C50.0715 91.294 52.0542 88.8616 53.2972 86.5465C53.7688 85.668 54.1117 84.0512 54.2878 83.0692C54.5082 81.8396 54.6424 79.1043 55.2064 78.0962C55.3449 78.0019 55.4324 77.9421 55.5595 77.8348C55.3644 76.4856 58.3272 75.453 59.3587 75.1548C59.197 74.5637 59.0173 73.9765 58.8201 73.3954C58.2995 71.8339 56.8329 67.8092 55.3977 67.0993C51.2969 68.1849 45.2194 69.5295 41.4894 67.0043C40.8164 66.5405 40.2224 65.9801 39.7286 65.3423C38.7591 64.1142 38.0244 62.6868 37.2536 61.3322C35.3413 57.9722 33.3948 54.5332 32.9054 50.6721C32.8126 49.9396 32.7695 49.1859 32.6369 48.4628L32.6212 48.3805C32.777 47.5857 32.643 46.4183 32.7751 45.5391C33.2383 42.4581 33.7918 39.8712 33.721 36.7312C32.102 35.5607 30.7429 34.0933 29.7229 32.4144C27.467 28.7315 27.1011 24.3022 28.2466 20.2174C29.7672 14.6915 33.5439 9.98262 38.7276 7.1491C39.2251 6.05624 40.4599 4.70518 41.5556 4.17254C42.3577 3.10038 47.743 0.25383 49.0213 0.370506C49.8693 -0.384826 53.9171 -0.969819 55.086 -0.894615C56.0651 -1.13548 57.6425 -0.911711 58.4693 -1.08274Z" fill="#3C1B06"/>
<path d="M91.5044 43.0519C91.8235 43.3076 92.1571 44.9504 92.3299 45.4438C94.6628 52.1684 97.986 58.3415 102.301 64.0131C106.461 69.4794 110.416 74.2608 108.014 81.4623C107.896 81.8829 107.773 82.2023 107.618 82.6061C107.75 80.4028 107.845 77.9298 107.228 75.8043C105.866 71.1096 102.561 67.4832 99.8398 63.6071C96.2614 58.5107 93.5052 52.572 92.237 46.4813C92.0189 45.4352 91.6062 44.0895 91.5044 43.0519Z" fill="#2F1504"/>
<path d="M88.3911 17.5225C88.7102 17.7782 89.0438 19.421 89.2167 19.9144C91.5495 26.639 94.8727 32.8121 99.1878 38.4837C103.348 43.95 107.303 48.7314 104.901 55.9329C104.783 56.3535 104.66 56.6729 104.505 57.0767C104.637 54.8734 104.732 52.4004 104.114 50.2749C102.752 45.5802 99.4479 41.9538 96.7265 38.0777C93.1481 32.9813 90.392 27.0426 89.1238 20.9519C88.9057 19.9058 88.4929 18.5601 88.3911 17.5225Z" fill="#2F1504"/>
<path d="M55.086 -0.894624C56.0651 -1.13549 57.6425 -0.91172 58.4693 -1.08275C58.9861 -0.884965 61.151 -0.676987 61.875 -0.515157C65.2854 0.247075 68.9839 1.77384 71.8892 3.64964C71.2862 4.47228 70.9915 5.2007 71.2045 6.24267C71.3703 7.0525 71.8787 7.76054 72.6091 8.1988C73.3482 8.64336 74.2451 8.77966 75.0923 8.57612C75.8578 8.39643 76.392 8.01375 76.8892 7.44937C78.3635 8.74347 80.2365 10.5519 81.4169 12.1061C80.8083 12.7825 80.4984 13.5581 80.5768 14.4612C80.6609 15.3355 81.1246 16.1359 81.8549 16.6676C82.6709 17.2743 83.5189 17.4313 84.5191 17.2917C84.644 17.2741 84.7689 17.2551 84.8939 17.2347C87.2706 21.0901 89.3214 26.9036 89.536 31.5319C89.5392 31.5913 89.5104 31.5965 89.4647 31.6235C89.7346 31.8465 89.725 32.6364 89.7522 33.0046C89.8058 33.7387 89.8515 37.206 89.4399 37.6769C89.4223 37.6966 89.403 37.7149 89.3854 37.734C90.0477 38.4041 88.0617 44.3831 87.6822 45.2839C87.691 45.7168 87.711 46.1634 87.6974 46.5951C87.5556 51.0843 84.1435 54.5309 79.7761 55.6425C79.6487 54.9311 79.3132 53.5328 78.3563 53.5926C78.1353 53.7221 78.0856 53.7237 77.9679 53.9437C78.108 54.7042 78.4612 54.8659 78.518 55.8357C77.1639 55.8533 76.6674 55.7544 75.3806 55.3412C75.1387 55.8165 74.7976 57.2968 74.6863 57.8595C73.4531 64.1295 68.8638 68.1534 65.3351 73.2068C65.0436 73.6246 63.5148 76.3867 63.3454 76.4465C62.5513 76.5699 60.7142 77.3948 59.9074 77.0674C59.7011 76.9839 59.4433 75.4975 59.3587 75.1548C59.197 74.5637 59.0173 73.9765 58.8201 73.3954C58.2995 71.8339 56.8329 67.8092 55.3977 67.0993C51.2969 68.1848 45.2194 69.5295 41.4894 67.0043C40.8164 66.5405 40.2224 65.9801 39.7286 65.3423C38.7591 64.1142 38.0244 62.6868 37.2536 61.3322C35.3413 57.9722 33.3948 54.5332 32.9054 50.6721C32.8126 49.9396 32.7695 49.1859 32.6369 48.4628L32.6212 48.3805C32.777 47.5856 32.643 46.4183 32.7751 45.5391C33.2383 42.4581 33.7918 39.8712 33.721 36.7312C32.102 35.5607 30.7429 34.0933 29.7229 32.4144C27.467 28.7315 27.1011 24.3022 28.2466 20.2174C29.7672 14.6915 33.5439 9.98261 38.7276 7.1491C39.2251 6.05623 40.4599 4.70517 41.5556 4.17254C42.3577 3.10037 47.743 0.253821 49.0213 0.370498C49.8693 -0.384834 53.9171 -0.969827 55.086 -0.894624Z" fill="#3C1B06"/>
<path d="M34.1452 30.4474C34.923 24.9315 39.404 14.6955 46.6687 14.5147C46.8413 14.5104 47.0435 14.6278 47.1734 14.7307C47.3826 15.2676 47.2555 16.6666 47.3307 17.4252C47.5043 19.0691 47.8755 20.6882 48.4371 22.2505C50.8576 28.8182 55.8256 32.3494 61.3719 36.3664C64.3699 38.5378 66.9003 40.3522 70.1241 42.2859C71.1739 48.0003 70.9721 53.1641 69.1335 58.7265C68.2919 59.3958 67.5818 60.354 66.7669 61.0555C64.9325 62.6347 62.6613 64.0567 60.4374 65.0809C59.5373 65.4956 58.6195 65.8751 57.6865 66.217C57.1478 66.4132 55.8156 66.8303 55.3976 67.0993C51.2968 68.1849 45.2192 69.5295 41.4893 67.0043C40.8163 66.5405 40.2223 65.9801 39.7284 65.3423C38.7589 64.1142 38.0242 62.6868 37.2535 61.3322C35.3411 57.9722 33.3946 54.5332 32.9053 50.6721C32.8124 49.9396 32.7693 49.1859 32.6368 48.4628L32.6211 48.3805C32.7768 47.5857 32.6428 46.4184 32.7749 45.5391C33.2381 42.4581 33.7917 39.8712 33.7209 36.7312C33.7841 35.3202 33.7303 33.4626 33.878 32.1165C34.9636 32.1244 34.7688 32.1494 35.7477 32.3754C36.7674 32.6106 38.2544 33.915 39.002 33.5549C39.7024 32.3338 36.6818 29.1764 34.1452 30.4474Z" fill="#F8C8A0"/>
<mask id="mask0_483_54650" style="mask-type:alpha" maskUnits="userSpaceOnUse" x="32" y="14" width="39" height="55">
<path d="M34.1452 30.4474C34.923 24.9315 39.404 14.6955 46.6687 14.5147C46.8413 14.5104 47.0435 14.6278 47.1734 14.7307C47.3826 15.2676 47.2555 16.6666 47.3307 17.4252C47.5043 19.0691 47.8755 20.6882 48.4371 22.2505C50.8576 28.8182 55.8256 32.3494 61.3719 36.3664C64.3699 38.5378 66.9003 40.3522 70.1241 42.2859C71.1739 48.0003 70.9721 53.1641 69.1335 58.7265C68.2919 59.3958 67.5818 60.354 66.7669 61.0555C64.9325 62.6347 62.6613 64.0567 60.4374 65.0809C59.5373 65.4956 58.6195 65.8751 57.6865 66.217C57.1478 66.4132 55.8156 66.8303 55.3976 67.0993C51.2968 68.1849 45.2192 69.5295 41.4893 67.0043C40.8163 66.5405 40.2223 65.9801 39.7284 65.3423C38.7589 64.1142 38.0242 62.6868 37.2535 61.3322C35.3411 57.9722 33.3946 54.5332 32.9053 50.6721C32.8124 49.9396 32.7693 49.1859 32.6368 48.4628L32.6211 48.3805C32.7768 47.5857 32.6428 46.4184 32.7749 45.5391C33.2381 42.4581 33.7917 39.8712 33.7209 36.7312C33.7841 35.3202 33.7303 33.4626 33.878 32.1165C34.9636 32.1244 34.7688 32.1494 35.7477 32.3754C36.7674 32.6106 38.2544 33.915 39.002 33.5549C39.7024 32.3338 36.6818 29.1764 34.1452 30.4474Z" fill="#F8C8A0"/>
</mask>
<g mask="url(#mask0_483_54650)">
<path d="M34.4808 41.0425C36.6063 40.9666 38.4246 42.2033 38.5828 43.8325C38.741 45.4618 37.1819 46.8918 35.0652 47.0587C33.6423 47.171 32.2526 46.6809 31.4363 45.779C30.62 44.8773 30.5063 43.7062 31.1393 42.7215C31.7722 41.7366 33.052 41.0937 34.4808 41.0425Z" fill="#FFB2E8"/>
</g>
<path d="M56.7409 43.9277C59.0919 43.8467 61.1033 45.167 61.2783 46.9065C61.4533 48.6459 59.7287 50.1727 57.3873 50.3509C55.8134 50.4708 54.2762 49.9475 53.3732 48.9846C52.4703 48.0219 52.3445 46.7716 53.0446 45.7203C53.7448 44.6687 55.1604 43.9823 56.7409 43.9277Z" fill="#FFB2E8"/>
<path d="M50.8382 32.7078C53.5135 32.4708 56.3823 33.361 58.5626 34.8337C59.0441 35.159 61.8307 37.4164 61.1974 37.9685C60.7222 37.8536 59.8437 37.3876 59.3711 37.1569C57.4022 36.2128 55.2908 35.5702 53.1138 35.2527C52.2877 35.1388 51.5409 35.1034 50.6857 35.0663C50.0813 35.0243 48.1751 35.3963 48.0667 34.5199C47.9074 33.2308 50.0017 32.8297 50.8382 32.7078Z" fill="#3C1B06"/>
<path d="M52.1607 41.3063C55.4433 41.046 55.5433 45.5148 53.0321 46.5156C50.0345 47.0111 49.4164 42.4353 52.1607 41.3063Z" fill="#1A1817"/>
<path d="M37.0984 38.7888C39.3299 39.0166 39.4381 43.0183 37.4721 43.8C35.162 43.6779 35.1351 39.6792 37.0984 38.7888Z" fill="#1A1817"/>
<path d="M40.8101 45.8724L40.888 45.9528C40.6195 46.6938 38.9972 47.6216 38.7354 48.3271C38.1842 49.8127 40.6463 50.5845 41.5554 51.7673L40.2792 51.6707C38.4232 51.1609 36.8861 50.4222 37.1835 48.8584C37.4431 47.4928 39.3449 46.6341 40.8101 45.8724Z" fill="#CC986D"/>
<path d="M55.0861 -0.894624C56.0652 -1.13549 57.6426 -0.91172 58.4694 -1.08275C58.9862 -0.884965 61.1511 -0.676987 61.8751 -0.515157C65.2855 0.247075 68.984 1.77384 71.8893 3.64964C71.2863 4.47228 70.9916 5.2007 71.2046 6.24267C71.3704 7.0525 71.8788 7.76054 72.6092 8.1988C73.3483 8.64336 74.2452 8.77966 75.0924 8.57612C75.8579 8.39643 76.3921 8.01375 76.8893 7.44937C78.3636 8.74347 80.2366 10.5519 81.417 12.1061C80.8084 12.7825 80.4985 13.5581 80.5769 14.4612C80.661 15.3355 81.1247 16.1359 81.855 16.6676C82.671 17.2743 83.519 17.4313 84.5192 17.2917C84.6441 17.2741 84.769 17.2551 84.894 17.2347C87.2707 21.0901 89.3215 26.9036 89.5361 31.5319C89.5393 31.5913 89.5105 31.5965 89.4648 31.6235C89.7347 31.8465 89.7251 32.6364 89.7523 33.0046C89.8059 33.7387 89.8516 37.206 89.44 37.6769C89.4224 37.6966 89.4031 37.7149 89.3855 37.734C90.0478 38.4041 88.0618 44.3831 87.6823 45.2839C87.4068 44.7391 87.2114 43.7532 86.7069 43.169C86.6501 43.1028 86.5283 42.9022 86.4755 42.8201C87.3147 39.9945 84.4175 38.1014 81.6764 39.4272C81.3433 37.0479 80.9997 35.3454 80.2262 33.0313C80.0524 32.5118 79.0434 29.8885 79.0058 29.5978C78.4613 28.927 77.8182 27.4624 77.8671 26.579C77.8006 26.8067 77.8575 26.7647 77.7173 26.9023C77.2577 26.1862 76.9806 25.4558 76.5474 24.7301C75.6097 23.1602 74.5727 21.7143 73.4964 20.2328C74.1739 19.9319 74.5983 19.7236 75.0804 19.1272C75.6369 18.4357 75.8659 17.5526 75.7114 16.6921C75.5496 15.8249 75.0235 15.059 74.2556 14.5733C73.5413 14.1183 72.6652 13.9594 71.8268 14.1324C70.7746 14.3508 70.1996 14.9142 69.6623 15.7402C66.9961 13.1399 65.2457 11.7761 62.0853 9.71606C64.3536 9.32364 65.929 7.537 65.0011 5.34812C64.6714 4.58964 64.0337 3.99231 63.2344 3.69341C62.3897 3.37082 61.4444 3.38976 60.6146 3.74584C59.8352 4.0764 59.2287 4.6949 58.9334 5.46043C58.5643 6.42972 58.7409 7.26148 59.1829 8.15426C53.708 5.86657 50.4359 4.88456 44.2396 5.48726C43.4222 4.4088 42.9047 4.2114 41.5557 4.17254C42.3578 3.10037 47.7431 0.253821 49.0214 0.370498C49.8694 -0.384834 53.9172 -0.969827 55.0861 -0.894624Z" fill="white"/>
<path d="M77.8669 26.579C77.8773 25.1441 79.5749 23.97 81.0188 23.9889C81.8804 24.0046 82.6996 24.3477 83.2962 24.9425C83.94 25.5669 84.2803 26.4212 84.2339 27.2972C84.0954 29.8587 81.2718 30.9729 79.0056 29.5978C78.4611 28.927 77.818 27.4624 77.8669 26.579Z" fill="#3C1B06"/>
<path d="M69.4904 16.5113C69.5008 15.0764 71.1985 13.9023 72.6423 13.9212C73.5039 13.9369 74.3231 14.28 74.9197 14.8748C75.5635 15.4992 75.9039 16.3535 75.8574 17.2295C75.7189 19.791 72.8953 20.9052 70.6291 19.5301C70.0846 18.8593 69.4416 17.3947 69.4904 16.5113Z" fill="#3C1B06"/>
<path d="M49.021 0.370502C49.8689 -0.384831 53.9168 -0.969824 55.0856 -0.89462C55.7613 0.488252 54.9015 2.00375 53.5264 2.61427C52.7019 2.98362 51.7557 3.01474 50.9065 2.70051C50.1767 2.4358 49.5863 1.90485 49.2647 1.22404C49.1261 0.923452 49.0801 0.690941 49.021 0.370502Z" fill="#3C1B06"/>
<path d="M89.3853 37.734C88.2554 37.3439 87.4746 36.8223 87.0719 35.6719C86.7844 34.8341 86.8685 33.92 87.3033 33.1427C87.8158 32.2306 88.4868 31.8873 89.4646 31.6235C89.7345 31.8465 89.7248 32.6364 89.7521 33.0046C89.8057 33.7387 89.8514 37.206 89.4398 37.6769C89.4222 37.6966 89.4029 37.7149 89.3853 37.734Z" fill="#3C1B06"/>
<path d="M75.1258 44.7142C76.2845 45.1077 76.6849 45.2569 77.368 44.1401C78.7805 41.83 81.8019 40.3273 84.5133 41.4681C85.3189 41.8069 85.8362 42.2555 86.4752 42.8201C86.5281 42.9022 86.6498 43.1028 86.7067 43.169C87.2112 43.7532 87.4066 44.7391 87.682 45.2839C87.6908 45.7168 87.7108 46.1634 87.6972 46.5951C87.5555 51.0843 84.1434 54.5309 79.7759 55.6425C79.6486 54.9311 79.313 53.5328 78.3561 53.5926C78.1351 53.7221 78.0855 53.7237 77.9677 53.9437C78.1079 54.7041 78.461 54.8659 78.5179 55.8356C77.1638 55.8533 76.6673 55.7544 75.3804 55.3412C74.5724 55.0338 74.3586 55.726 73.6211 56.0442C74.9912 52.3353 75.3083 48.6084 75.1258 44.7142Z" fill="#F8C8A0"/>
<path d="M82.1477 44.1959C82.6418 44.1758 84.0399 44.1163 84.14 44.7509C83.9118 44.8687 83.4041 44.8818 83.1134 44.9066C81.8818 45.0114 80.8512 45.7932 80.0224 46.6363L79.9736 46.6866C79.6845 46.9993 79.2184 47.8239 78.8092 47.7576C78.6555 47.153 79.6324 45.8938 80.0416 45.4629C80.667 44.8037 81.2692 44.4351 82.1477 44.1959Z" fill="#CC986D"/>
<path d="M73.621 56.0442C74.3585 55.726 74.5723 55.0338 75.3803 55.3412C75.1385 55.8165 74.7974 57.2968 74.686 57.8595C73.4528 64.1295 68.8636 68.1534 65.3348 73.2068C65.0434 73.6246 63.5145 76.3867 63.3451 76.4465C62.5511 76.5699 60.7139 77.3948 59.9071 77.0674C59.7009 76.9839 59.443 75.4974 59.3584 75.1548C59.1968 74.5637 59.0171 73.9765 58.8198 73.3954C58.2993 71.8339 56.8326 67.8092 55.3975 67.0993C55.8155 66.8302 57.1477 66.4132 57.6864 66.217C58.6194 65.8751 59.5372 65.4956 60.4373 65.0809C62.6612 64.0567 64.9324 62.6346 66.7668 61.0554C67.5817 60.354 68.2918 59.3957 69.1334 58.7265C68.4496 61.277 66.8283 64.6033 65.281 66.775C64.7852 67.4711 64.403 67.8567 63.8771 68.4853C68.5881 66.0874 71.7488 60.6591 73.621 56.0442Z" fill="#CC986D"/>
<path d="M78.518 55.8357C78.4611 54.8659 78.108 54.7042 77.9678 53.9437C78.0855 53.7237 78.1352 53.7221 78.3562 53.5926C79.3131 53.5328 79.6487 54.9311 79.776 55.6425C79.7295 56.7456 79.6711 57.3267 78.8271 58.1263C77.5931 59.2946 76.7595 57.7131 77.2335 57.6862C78.2897 57.6257 78.5156 56.7257 78.518 55.8357Z" fill="#C6C4C4"/>
<path d="M32.6213 48.3805L32.637 48.4628C32.7696 49.1859 32.8126 49.9396 32.9055 50.6721C33.3949 54.5332 35.3413 57.9722 37.2537 61.3322C38.0244 62.6868 38.7592 64.1142 39.7287 65.3423C40.2225 65.9801 40.8165 66.5405 41.4895 67.0043C45.2195 69.5295 51.297 68.1848 55.3978 67.0993C56.833 67.8092 58.2996 71.8339 58.8202 73.3954C59.0174 73.9765 59.1971 74.5637 59.3588 75.1548C58.3273 75.453 55.3645 76.4856 55.5596 77.8348C55.4325 77.9421 55.3449 78.0019 55.2065 78.0962C54.6425 79.1043 54.5083 81.8396 54.2879 83.0692C54.1117 84.0512 53.7689 85.668 53.2973 86.5465C52.0543 88.8616 50.0716 91.294 48.4875 93.4283C46.6085 95.955 44.8111 98.5377 43.0982 101.171C41.74 103.229 40.4364 105.32 39.1885 107.441C38.8795 107.971 37.7568 110.152 37.5453 110.414C36.3846 109.57 35.9596 109.167 35.0873 108.057C31.076 107.911 26.7547 105.25 24.774 101.938C22.1544 97.5564 22.81 92.3842 25.8597 88.3672C27.2456 86.5419 29.0657 84.7818 29.6888 82.5617C30.6245 79.1013 28.2074 76.9946 26.5291 74.2855C23.8172 69.9082 24.156 64.8632 26.622 60.4606C27.6903 58.554 28.9789 56.8085 30.0511 54.8874C31.2932 52.6619 31.9338 50.8074 32.6213 48.3805Z" fill="#2C1303"/>
<path d="M78.6361 51.5515C79.1766 50.5938 79.6511 49.7373 80.8691 49.3746C81.5685 49.1706 82.3267 49.2394 82.9709 49.5656C83.6337 49.8996 84.1245 50.4688 84.3321 51.1447C84.7046 52.3417 84.1056 53.2909 83.2176 54.1006C85.039 54.1373 86.9828 54.7405 86.9009 56.7914C86.8747 57.4811 86.5533 58.1322 86.0086 58.5989C84.9307 59.5195 83.5809 59.3573 82.3366 58.8807C82.8756 60.2946 82.8292 60.8454 81.8713 62.0599C81.6138 62.2436 81.3189 62.4656 81.0586 62.6373C78.4163 63.4118 76.8923 61.7433 77.0375 59.3547C75.9887 60.1426 74.7449 60.5144 73.4812 59.8884C72.7911 59.5426 72.281 58.9499 72.068 58.2462C71.8645 57.5903 71.9549 56.8854 72.3183 56.2928C72.9122 55.3341 73.7894 55.1039 74.8303 54.8402C73.7764 54.3084 73.5721 54.0581 73.0628 53.0978C73.0453 52.9421 73.0331 52.7859 73.0262 52.6294C72.987 51.6196 73.3593 51.0774 74.0733 50.3655C76.0366 49.3795 77.4877 49.7448 78.6361 51.5515Z" fill="#FC6432"/>
<path d="M79.0438 53.3375C80.2592 53.2848 81.2991 54.1446 81.3895 55.2775C81.48 56.4103 80.5884 57.4046 79.378 57.5206C78.5643 57.5987 77.7696 57.2579 77.3028 56.6309C76.836 56.0039 76.771 55.1896 77.133 54.5049C77.4949 53.8201 78.2268 53.3731 79.0438 53.3375Z" fill="#FFB2E8"/>
<path d="M51.6899 18.5685C51.9073 18.7369 52.8295 20.1763 53.1022 20.5221C55.2462 23.2575 57.7674 25.6003 60.6302 27.5772C61.4073 28.1135 63.1173 28.8764 63.665 29.4088C62.5704 29.3656 59.4048 27.9889 58.4403 27.3011C55.9306 25.5113 54.1604 23.1598 52.6662 20.5089C52.3574 19.9611 51.7992 19.1566 51.6899 18.5685Z" fill="#2F1504"/>
</g>
<defs>
<clipPath id="clip0_483_54650">
<rect width="140" height="72" rx="36" fill="white"/>
</clipPath>
</defs>
</svg>
