<svg width="106" height="54" viewBox="0 0 106 54" fill="none" xmlns="http://www.w3.org/2000/svg">
<rect width="106" height="54" rx="27" fill="#FFB806"/>
<path d="M53.002 27.0003C53.002 27.0003 52.0711 35.5412 46.2569 41.387C40.4434 47.2321 31.9482 48.168 31.9482 48.168C31.9482 48.168 32.8792 39.6264 38.6927 33.7813C44.5068 27.9362 53.002 27.0003 53.002 27.0003Z" fill="#FC6432"/>
<path d="M74.055 5.83262C74.055 5.83262 73.1248 14.3735 67.3106 20.2186C61.4965 26.0644 53.002 27.0003 53.002 27.0003C53.002 27.0003 53.9322 18.4587 59.7464 12.6136C65.5605 6.76778 74.055 5.83191 74.055 5.83191V5.83262Z" fill="#FC6432"/>
<path d="M53.0015 27.0006C53.0015 27.0006 44.5056 26.0648 38.6914 20.2197C32.8772 14.3745 31.9463 5.83435 31.9463 5.83435C31.9463 5.83435 40.4415 6.77021 46.2557 12.6153C52.0705 18.4604 53.0015 27.0013 53.0015 27.0013V27.0006Z" fill="#FC6432"/>
<path d="M74.0545 48.1672C74.0545 48.1672 65.5593 47.2314 59.7451 41.387C53.931 35.5419 53 27.001 53 27.001C53 27.001 61.4952 27.9368 67.3094 33.7819C73.1235 39.627 74.0545 48.1672 74.0545 48.1672Z" fill="#FC6432"/>
</svg>
