<svg width="80" height="80" viewBox="0 0 80 80" fill="none" xmlns="http://www.w3.org/2000/svg">
<g clip-path="url(#clip0_493_55083)">
<g clip-path="url(#clip1_493_55083)">
<path d="M39.245 6.38034C42.4613 6.03589 43.4463 7.70308 45.0455 10.1286L47.4055 13.733L53.8671 23.5606C59.0027 24.8267 64.1794 25.9124 69.3192 27.1689C71.4081 27.6796 73.6062 28.0776 75.6576 28.7279C75.8632 28.7932 76.4099 29.0443 76.5801 29.178C81.3991 32.9622 77.5324 36.4517 74.9357 39.6023L68.4143 47.6371C67.5327 48.72 65.4267 51.1801 64.7705 52.2336C64.922 53.1295 64.9674 54.2602 65.062 55.1979L65.7764 62.5395L66.4207 68.77C66.6558 70.8558 67.2964 74.109 66.4951 76.0332C65.6722 77.8064 63.8443 78.9073 61.9505 78.9247C60.3886 78.9391 59.3608 78.2707 57.9963 77.6219L54.6318 76.0412L40.4749 69.3154C40.3744 69.2516 40.067 69.051 39.9573 69.096C38.9277 69.5184 37.9483 70.0789 36.9347 70.5467L25.1485 76.1266L21.7266 77.7545C20.244 78.4571 19.3174 79.0439 17.63 78.9095C16.2823 78.791 15.0349 78.1361 14.1575 77.0869C13.5233 76.3223 13.1343 75.378 13.0429 74.3811C12.9239 72.9917 13.4186 70.2836 13.5499 68.812C14.045 63.2656 14.7508 57.7083 15.1979 52.1582C14.2251 50.842 12.8285 49.2181 11.7747 47.9219L5.62796 40.3552C5.23894 39.8788 4.83048 39.407 4.45219 38.9231C2.68848 36.6669 0.1309 34.6913 1.44457 31.4707C1.86441 30.4205 2.63512 29.5553 3.62041 29.0284C4.66076 28.4676 7.12454 27.9979 8.40349 27.6909L21.0978 24.6811C22.2026 24.4168 25.1468 23.8672 26.1396 23.4511C26.6328 22.8763 27.9694 20.7103 28.4718 19.9528C30.1947 17.3696 31.8993 14.7738 33.5855 12.1656C34.3887 10.9405 35.18 9.65856 36.0204 8.46396C36.783 7.3799 37.9198 6.5603 39.245 6.38034Z" fill="#FECF46"/>
<path d="M16.7054 41.0393C16.2629 41.2015 15.8811 41.2916 15.4089 41.2065C14.2998 41.0068 13.4292 39.9519 12.8284 39.0482C11.6302 37.2458 10.0694 33.199 10.4998 31.0111C10.7109 29.9377 11.4185 29.1032 12.2956 28.5187C14.4186 27.1038 22.1476 24.7294 24.7381 24.4272C25.514 24.3367 26.2115 24.3761 26.9734 24.5414C27.6686 24.9826 27.8002 25.2203 28.1316 25.9921C29.1057 25.5516 31.3061 25.1548 32.3959 24.9823C38.507 24.0153 45.5254 24.1482 51.4698 25.9688L51.8087 25.3121C52.0085 24.896 52.358 24.7143 52.7446 24.5094C53.6606 24.3688 54.5675 24.3838 55.4839 24.5205C57.9627 24.8902 65.5512 27.1901 67.5066 28.6652C68.3758 29.3208 68.9259 30.102 69.0795 31.2163C69.4042 33.5737 67.9069 37.6011 66.5018 39.4664C65.9445 40.2061 65.2241 41.0338 64.2692 41.1678C63.7985 41.2339 63.3589 41.1087 62.9022 41.141L62.7746 41.1293C62.8178 43.1216 63.0679 45.1056 63.0488 47.1001C63.0423 47.7868 63.046 48.4737 63.0384 49.1605C62.543 55.2896 58.8274 59.1219 53.7744 61.9132C53.2699 62.1984 52.521 62.4847 51.9712 62.7128C51.9341 62.7399 51.9132 62.7539 51.8703 62.7716C44.4937 65.819 35.1154 65.7526 27.7962 62.7117L26.013 61.9655C25.9687 61.9226 23.888 60.7164 23.5741 60.5028C20.7349 58.5714 18.4099 55.8618 17.3263 52.5271C17.1642 52.0285 16.5132 49.2735 16.7151 48.8703C16.7671 47.9028 16.6101 46.3994 16.6627 45.2581C16.7216 43.9809 16.9186 42.2946 16.8755 41.0997L16.7054 41.0393Z" fill="#413736"/>
<path d="M16.7152 48.8703L16.7797 49.0004C17.0844 48.5871 17.2965 48.0818 17.5512 47.7209C18.2612 46.7146 19.8212 44.9691 21.0935 44.8743C23.2882 44.7108 24.32 46.3847 26.8315 45.6388C28.2803 45.2084 29.4095 44.6399 30.6119 43.6981C33.4063 41.5092 35.6867 39.999 39.3804 40.0495C41.0221 40.0719 41.9548 39.9849 43.6492 40.4975C44.7467 40.8356 45.7925 41.3283 46.7563 41.9612C48.7902 43.3127 50.4045 45.0976 52.9237 45.6513C53.7607 45.8352 54.6539 45.8863 55.4729 45.6384C57.2853 45.0898 58.2795 44.1414 60.0829 45.5486C61.3915 46.5696 62.1658 47.7484 63.0385 49.1605C62.5431 55.2896 58.8276 59.1219 53.7746 61.9132C53.2701 62.1984 52.5211 62.4847 51.9713 62.7128C51.9343 62.7399 51.9133 62.7539 51.8704 62.7716C44.4938 65.819 35.1155 65.7526 27.7963 62.7117L26.0131 61.9655C25.9688 61.9226 23.8882 60.7164 23.5742 60.5028C20.735 58.5714 18.41 55.8618 17.3264 52.5271C17.1643 52.0285 16.5133 49.2734 16.7152 48.8703Z" fill="#F4A03E"/>
<path d="M27.7959 62.7117C28.0937 62.2768 28.8551 62.2447 29.4134 61.6636C30.5555 60.4748 31.1716 59.2196 32.5011 58.1956C35.0028 56.2688 37.6309 55.4375 39.9015 53.1197C41.8895 55.2505 44.8468 56.2267 47.1414 57.9776C48.9524 59.3596 49.6557 61.4907 51.7064 62.4743C51.8173 62.5275 51.8712 62.6528 51.9709 62.7128C51.9338 62.7399 51.9129 62.7539 51.87 62.7716C44.4934 65.8189 35.1151 65.7526 27.7959 62.7117Z" fill="#625250"/>
<path d="M37.1433 44.2881C38.8711 44.297 40.3988 44.1672 42.1771 44.3086C42.6986 44.2763 43.3711 44.7919 43.4189 45.3192C43.3791 45.5831 43.0706 45.9294 42.8986 46.1563C42.4402 46.6564 41.8766 47.6817 41.7721 48.3666L41.1431 48.4615C41.0378 48.4864 40.8763 48.4979 40.8652 48.5707C40.7875 49.0783 40.8104 50.5614 40.9854 50.9996C42.2492 54.1637 46.6054 55.0761 49.0197 57.3708C50.598 58.8711 51.0759 60.498 52.826 61.4641C53.078 61.6032 53.6039 61.7986 53.7742 61.9132C53.2697 62.1984 52.5207 62.4847 51.9709 62.7128C51.8712 62.6529 51.8174 62.5275 51.7065 62.4743C49.6557 61.4908 48.9524 59.3596 47.1414 57.9776C44.8468 56.2267 41.8895 55.2505 39.9015 53.1197C37.6309 55.4375 35.0028 56.2688 32.5012 58.1956C31.1716 59.2196 30.5556 60.4748 29.4134 61.6636C28.8552 62.2447 28.0937 62.2768 27.7959 62.7117L26.0127 61.9655C26.3146 61.7278 27.3829 61.5359 28.0045 60.8959C29.4704 59.3863 29.796 58.3265 31.5152 56.8919C33.7352 55.0393 37.1347 54.1346 38.5731 51.5955C38.9004 51.0177 39.1344 49.021 38.9737 48.5438L38.8145 48.4762C38.8984 48.4363 38.9172 48.4066 38.9863 48.3423C39.0873 47.7465 39.1169 47.1404 39.0742 46.5373C38.9903 45.3134 38.5198 44.2404 37.1524 44.3694L37.1433 44.2881Z" fill="#413736"/>
<path d="M42.1775 44.3086C42.6991 44.2763 43.3716 44.7919 43.4194 45.3192C43.3796 45.5831 43.0711 45.9294 42.899 46.1563C42.4407 46.6564 41.8771 47.6817 41.7726 48.3666L41.1436 48.4615L40.9261 48.3936C40.6929 48.0694 40.8545 45.7916 40.8798 45.2936C41.146 44.8499 41.6558 44.3684 42.1775 44.3086Z" fill="#2B2726"/>
<path d="M38.2807 42.0364C39.6211 41.6462 42.1076 41.9091 43.3831 42.6123C44.1427 43.0311 45.0662 44.1284 44.9491 45.074C44.666 45.5325 44.936 45.3935 44.7603 45.7106L44.5936 45.5795C44.1012 45.8939 43.5236 46.2117 42.8993 46.1563C43.0714 45.9294 43.3799 45.5831 43.4197 45.3192C43.3719 44.7919 42.6994 44.2763 42.1778 44.3086C40.3996 44.1672 38.8719 44.297 37.1441 44.2881C35.5932 42.8337 37.9466 42.6734 38.2807 42.0364Z" fill="#625250"/>
<path d="M37.153 44.3694C38.5204 44.2404 38.9909 45.3134 39.0748 46.5372C39.1175 47.1404 39.0879 47.7465 38.9869 48.3423C38.9177 48.4065 38.899 48.4362 38.8151 48.4761C38.5957 48.4883 38.2164 48.4273 37.9835 48.3969C37.9979 47.8009 37.2751 46.5516 36.8717 46.0937C36.2226 45.3329 36.196 44.9178 37.153 44.3694Z" fill="#2B2726"/>
<path d="M34.8458 45.8787C34.3055 43.4745 36.2664 42.3078 38.2805 42.0364C37.9463 42.6734 35.5929 42.8337 37.1438 44.2881L37.1529 44.3694C36.1959 44.9178 36.2225 45.3329 36.8716 46.0937C36.3252 46.4709 35.6132 45.6274 34.8458 45.8787Z" fill="#4D4242"/>
<path d="M44.9487 45.074C45.0895 47.0887 43.4279 47.9797 41.7725 48.3666C41.877 47.6817 42.4406 46.6564 42.8989 46.1563C43.5232 46.2117 44.1008 45.8939 44.5932 45.5795L44.7599 45.7105C44.9356 45.3934 44.6656 45.5325 44.9487 45.074Z" fill="#413736"/>
<path d="M34.8457 45.8787C35.6132 45.6274 36.3252 46.4708 36.8716 46.0937C37.2749 46.5516 37.9978 47.8009 37.9834 48.3969C36.5473 48.2271 35.2687 47.3212 34.8457 45.8787Z" fill="#413736"/>
<path d="M16.7054 41.0393C16.2629 41.2014 15.8811 41.2916 15.4089 41.2065C14.2998 41.0068 13.4292 39.9519 12.8284 39.0482C11.6302 37.2458 10.0694 33.199 10.4998 31.0111C10.7109 29.9377 11.4185 29.1032 12.2956 28.5187C14.4186 27.1038 22.1476 24.7294 24.7381 24.4272C25.514 24.3367 26.2115 24.3761 26.9734 24.5414C27.6686 24.9826 27.8002 25.2203 28.1316 25.9921C27.8842 26.402 27.8363 26.8584 27.689 27.3122C27.4578 28.0249 27.1911 28.724 26.8198 29.3747C25.5796 31.5199 24.0815 33.4414 22.5378 35.3603C21.3416 36.8472 20.1543 38.261 18.8077 39.6142C18.3789 40.0451 17.9245 40.3755 17.437 40.7319C17.2634 40.8588 17.0001 40.9789 16.8755 41.0997L16.7054 41.0393Z" fill="#413736"/>
<path d="M26.9731 24.5414C27.6683 24.9826 27.7999 25.2203 28.1313 25.9921C27.8839 26.402 27.836 26.8584 27.6887 27.3122C27.4575 28.0249 27.1908 28.724 26.8195 29.3748C25.5793 31.5199 24.0812 33.4414 22.5375 35.3603C21.3413 36.8472 20.154 38.261 18.8074 39.6142C18.3786 40.0451 17.9242 40.3755 17.4367 40.7319C17.2631 40.8588 16.9998 40.979 16.8752 41.0997L16.7051 41.0393C16.7561 40.4988 18.6356 38.0194 19.1012 37.3378C20.9303 34.6658 22.6928 31.947 24.3872 29.1842C25.3713 27.5649 26.2109 26.2764 26.9731 24.5414Z" fill="#625250"/>
<path d="M52.7451 24.5094C53.6612 24.3688 54.568 24.3838 55.4845 24.5205C57.9632 24.8902 65.5517 27.1901 67.5071 28.6652C68.3763 29.3208 68.9265 30.102 69.08 31.2163C69.4048 33.5737 67.9075 37.6011 66.5023 39.4664C65.9451 40.2061 65.2247 41.0338 64.2698 41.1679C63.7991 41.2339 63.3594 41.1087 62.9028 41.141C62.8877 41.0085 62.8564 40.7606 62.7919 40.6498C62.0981 39.4575 60.7285 37.7775 60.0397 36.6747C58.5816 34.3404 53.2835 26.7061 52.7451 24.5094Z" fill="#413736"/>
<path d="M51.8086 25.3121C52.0083 24.896 52.3579 24.7143 52.7445 24.5094C53.2829 26.7061 58.5809 34.3404 60.039 36.6747C60.7278 37.7775 62.0974 39.4575 62.7912 40.6498C62.8557 40.7606 62.887 41.0085 62.9021 41.141L62.7745 41.1293C62.4643 40.8367 61.8265 40.6322 61.2786 40.0858C57.8288 36.6324 54.6558 32.7038 52.2961 28.3925C51.722 27.3437 51.9905 25.65 51.8086 25.3121Z" fill="#625250"/>
<path d="M30.2567 31.0139C31.3034 30.9689 32.1385 30.8573 33.0951 31.4965C33.8925 32.0004 34.352 32.9956 33.7468 33.8458C33.3356 34.4234 32.8942 34.5679 32.2485 34.6872C30.6626 34.7042 29.0375 34.5381 28.2354 32.9204C28.2739 32.8087 28.3134 32.6973 28.3541 32.5863C28.6913 31.6867 29.4564 31.379 30.2567 31.0139Z" fill="#F4A03E"/>
<path d="M47.5814 31.0119C49.3763 30.9449 50.6343 30.9569 51.4036 32.8759C51.3569 32.973 51.309 33.0695 51.2597 33.1653C50.8475 33.9656 50.3018 34.2452 49.4838 34.5029C48.2705 34.8693 46.3072 34.8693 45.7578 33.4457C45.62 33.0971 45.6299 32.7059 45.7851 32.365C46.1254 31.5979 46.8682 31.2848 47.5814 31.0119Z" fill="#F4A03E"/>
<path d="M50.3539 37.6778C52.2332 37.8649 52.7457 38.891 52.6132 40.6647C52.5359 40.7995 52.4506 40.9294 52.3576 41.0536C51.7988 41.8149 51.2896 41.9753 50.4107 42.1051C47.3553 41.8467 47.2812 38.0695 50.3539 37.6778Z" fill="#2B2726"/>
<path d="M28.9445 37.7323C30.0359 37.6284 31.1912 38.1717 31.5476 39.2858C31.7179 39.8231 31.6647 40.408 31.4004 40.9042C31.037 41.5975 30.4946 41.8532 29.806 42.0706C29.2995 42.1883 28.6378 42.0614 28.187 41.8113C27.6846 41.536 27.3142 41.0637 27.1614 40.5035C26.7735 39.0857 27.6573 38.0846 28.9445 37.7323Z" fill="#2B2726"/>
</g>
</g>
<defs>
<clipPath id="clip0_493_55083">
<rect width="80" height="80" fill="white"/>
</clipPath>
<clipPath id="clip1_493_55083">
<rect width="78" height="74" fill="white" transform="translate(1 6)"/>
</clipPath>
</defs>
</svg>
