<svg width="106" height="54" viewBox="0 0 106 54" fill="none" xmlns="http://www.w3.org/2000/svg">
<g clip-path="url(#clip0_626_7669)">
<rect width="106" height="54" rx="27" fill="#4376D4"/>
<path d="M52.3528 3.44562L19.4297 26.587V68.1857H86.5703V26.587L53.6472 3.44562C53.2445 3.22304 52.7556 3.22304 52.3528 3.44562Z" fill="#1F2D48"/>
<path d="M41.9357 15.0157C41.9501 14.9642 41.9649 14.9129 41.9803 14.8617C42.057 14.6067 42.1596 14.3195 42.2581 14.0674C42.9572 12.2777 43.4634 10.358 44.3174 8.6418C44.4646 8.34593 44.8999 8.01345 45.1857 7.86353C45.6382 7.63062 46.1464 7.52782 46.6539 7.56658C48.8805 7.73114 49.6871 10.0086 51.846 9.93137C53.071 9.8876 53.9066 8.65153 54.9421 8.09121C56.3886 7.35352 58.1055 7.30537 58.9536 9.03405C59.4313 10.0077 59.6926 11.1244 60.0984 12.1302C60.4057 13.0364 60.8698 14.1308 61.1156 15.0199C61.4667 15.8963 61.7355 16.7454 62.0676 17.6006C62.2405 17.6806 62.3418 17.6031 62.5243 17.5459C65.1919 16.7187 68.7946 14.0357 71.5942 15.1811C73.6295 16.0138 73.7612 19.1191 72.8519 20.8411C71.9805 22.4913 71.1929 23.1896 69.6933 24.2535C69.9618 24.6351 70.1652 24.9464 70.383 25.3621C69.5457 25.9639 68.7414 26.7955 67.9139 27.3941C67.9236 27.5971 68.4863 28.6503 68.5878 28.9353C68.8162 29.5773 69.0724 30.1698 69.2242 30.8526C69.3445 31.3908 69.4268 31.9368 69.4707 32.4865C69.5417 33.4906 69.5082 35.4051 69.5003 36.4517C69.488 38.0838 69.6309 40.7392 69.2811 42.2497C68.9708 43.6041 68.3539 44.8693 67.4778 45.948C67.1474 46.3584 66.6067 46.9482 66.2024 47.2941L66.198 47.3337C66.059 48.6746 66.5978 49.952 65.2371 51.1063C64.6176 51.6318 63.9643 51.7654 63.1749 51.7309C62.5686 51.7043 61.8923 51.1534 61.6428 51.1154C61.2129 51.2674 60.565 51.538 60.1532 51.6501C59.4267 52.0314 58.0537 52.5051 57.2906 52.7826C55.7747 53.334 54.7956 53.4853 53.2832 52.8885C52.8591 52.7212 52.1745 52.5762 51.6987 52.5528C50.789 52.5082 49.9349 52.8484 49.0674 53.1155C47.5668 53.5776 46.0967 52.9066 44.6973 52.3944C44.1456 52.1925 43.3967 51.9271 42.8742 51.6719C42.3774 51.4825 41.8524 51.2715 41.3476 51.1137C39.0776 52.6524 36.5423 51.1414 36.8892 48.3842C36.9147 48.1815 36.8934 47.3987 36.8236 47.245C35.4951 46.1456 34.4561 44.5179 33.9426 42.8772C33.7602 42.3086 33.6393 41.7219 33.582 41.1275C33.4967 40.1732 33.5325 38.3894 33.5453 37.38C33.5696 35.4758 33.4124 33.3019 33.7149 31.4524C33.9384 30.0865 34.541 28.6655 35.1779 27.4459C34.6101 26.9668 33.2338 25.7264 32.6681 25.3758C32.8847 24.9786 33.1025 24.6335 33.3449 24.251C32.3633 23.5069 31.6346 23.0554 30.883 22.0035C30.0638 20.8779 29.3951 19.2098 29.6884 17.7767C30.5645 13.4965 34.3808 14.9311 36.9851 16.0622L39.3192 17.0698C39.7437 17.2507 40.5257 17.6131 40.956 17.6689C41.2491 16.8516 41.5994 15.7926 41.9357 15.0157Z" fill="#FEE6C5"/>
<path d="M41.9357 15.0157C41.9501 14.9642 41.9649 14.9129 41.9803 14.8617C42.057 14.6067 42.1596 14.3195 42.2581 14.0674C42.9572 12.2777 43.4634 10.358 44.3174 8.6418C44.4646 8.34593 44.8999 8.01345 45.1857 7.86353C45.6382 7.63062 46.1464 7.52782 46.6539 7.56658C48.8805 7.73114 49.6871 10.0086 51.846 9.93137C53.071 9.8876 53.9066 8.65153 54.9421 8.09121C56.3886 7.35352 58.1055 7.30537 58.9536 9.03405C59.4313 10.0077 59.6926 11.1244 60.0984 12.1302C60.4057 13.0364 60.8698 14.1308 61.1156 15.0199C61.4667 15.8963 61.7355 16.7453 62.0676 17.6006C62.0499 17.6349 62.0284 17.6766 62.003 17.7259C61.4768 17.9645 60.71 18.1853 60.1915 18.3689C60.2005 19.5683 58.8108 20.5674 58.5561 21.1449C57.5723 21.386 56.4357 21.579 55.4307 21.7279C54.9652 21.7262 53.8512 21.9029 53.2689 21.934C51.3842 22.0443 49.4934 21.9765 47.6215 21.7312C47.3538 21.7258 46.4935 21.567 46.2126 21.5167C45.0048 21.3012 43.8028 21.0538 42.6079 20.7748C42.0835 21.0283 41.3228 21.3371 40.8452 21.6025C38.6787 22.8065 36.3595 25.2456 35.1779 27.4459C34.6101 26.9668 33.2338 25.7264 32.6681 25.3758C32.8847 24.9786 33.1025 24.6335 33.3449 24.251C32.3633 23.5069 31.6346 23.0554 30.883 22.0035C30.0638 20.8779 29.3951 19.2098 29.6884 17.7767C30.5645 13.4965 34.3808 14.9311 36.9851 16.0622L39.3192 17.0698C39.7437 17.2507 40.5257 17.6131 40.956 17.6689C41.2491 16.8516 41.5994 15.7926 41.9357 15.0157Z" fill="#FE92B6"/>
<path d="M41.9365 15.0157C41.9509 14.9642 41.9658 14.9129 41.9811 14.8617C42.0578 14.6067 42.1605 14.3195 42.2589 14.0674C42.9581 12.2777 43.4643 10.358 44.3182 8.6418C44.4654 8.34593 44.9008 8.01345 45.1865 7.86353C45.639 7.63062 46.1473 7.52782 46.6547 7.56658C48.8814 7.73114 49.6879 10.0086 51.8468 9.93137C53.0719 9.8876 53.9075 8.65153 54.9429 8.09121C56.3895 7.35352 58.1063 7.30537 58.9544 9.03405C59.4321 10.0077 59.6934 11.1244 60.0993 12.1302C60.4065 13.0364 60.8706 14.1308 61.1164 15.0199C59.9754 15.0646 58.7433 15.0402 57.5953 15.0373L57.5535 15.0223C56.8242 15.0758 55.6353 15.0419 54.8868 15.042L49.8981 15.0414L44.7987 15.044C43.9724 15.0441 42.7385 15.0754 41.9365 15.0157Z" fill="#FE92B6"/>
<path d="M54.9424 8.0912C56.389 7.35352 58.1058 7.30537 58.9539 9.03404C59.4316 10.0077 59.6929 11.1244 60.0987 12.1302C60.406 13.0364 60.8701 14.1308 61.1159 15.0199C59.9749 15.0646 58.7428 15.0401 57.5948 15.0373L57.553 15.0223C57.0772 13.2971 56.4066 11.5115 55.7444 9.85096C55.5707 9.41547 55.1772 8.46468 54.9424 8.0912Z" fill="#FE709A"/>
<path d="M57.5945 15.0373C58.7425 15.0401 59.9746 15.0646 61.1156 15.0199C61.4668 15.8963 61.7356 16.7453 62.0676 17.6006C62.0499 17.6349 62.0284 17.6766 62.0031 17.7259C61.4769 17.9645 60.7101 18.1853 60.1916 18.3689C59.4463 18.5815 58.7613 18.772 58.0069 18.946C55.4969 19.5317 52.3162 19.7202 49.757 19.5908C47.1385 19.4587 44.5508 18.9646 42.0677 18.1227C41.8516 18.0512 41.081 17.8071 40.9561 17.6689C41.2492 16.8516 41.5995 15.7925 41.9357 15.0156C42.7377 15.0753 43.9716 15.0441 44.7979 15.044L49.8973 15.0414L54.886 15.0419C55.6345 15.0419 56.8234 15.0758 57.5527 15.0223L57.5945 15.0373Z" fill="#CF385C"/>
<path d="M57.5947 15.0373C58.7427 15.0401 59.9748 15.0646 61.1158 15.0199C61.467 15.8963 61.7358 16.7453 62.0678 17.6006C62.0501 17.6349 62.0286 17.6766 62.0033 17.7259C61.4771 17.9645 60.7102 18.1853 60.1917 18.3689C59.4465 18.5816 58.7615 18.772 58.0071 18.946C58.0356 17.3426 57.8998 16.5812 57.5947 15.0373Z" fill="#A42243"/>
<path d="M33.3457 24.251C34.356 22.967 35.2311 21.8397 36.6924 20.989C38.7646 19.7828 40.4359 20.189 42.6087 20.7748C42.0844 21.0283 41.3236 21.337 40.8461 21.6025C38.6796 22.8065 36.3603 25.2456 35.1788 27.4459C34.6109 26.9668 33.2346 25.7264 32.6689 25.3758C32.8855 24.9786 33.1033 24.6335 33.3457 24.251Z" fill="#AC5B27"/>
<path d="M62.0675 17.6006C62.2405 17.6805 62.3417 17.6031 62.5243 17.5459C65.1919 16.7187 68.7946 14.0356 71.5941 15.1811C73.6295 16.0138 73.7612 19.1191 72.8518 20.8411C71.9804 22.4913 71.1928 23.1896 69.6933 24.2535C69.9618 24.6351 70.1652 24.9463 70.383 25.3621C69.5457 25.9639 68.7414 26.7955 67.9138 27.3941C67.9236 27.5971 68.4863 28.6502 68.5877 28.9353C68.8161 29.5772 69.0724 30.1698 69.2241 30.8526C69.3444 31.3908 69.4268 31.9367 69.4706 32.4865C69.5417 33.4906 69.5081 35.4051 69.5003 36.4516C69.488 38.0837 69.6309 40.7392 69.2811 42.2496C68.9707 43.6041 68.3538 44.8693 67.4778 45.9479C67.1474 46.3583 66.6067 46.9482 66.2024 47.2941C66.1678 47.004 66.2019 45.8924 66.2009 45.55C66.1949 43.4785 66.3206 41.6977 65.7341 39.6608C64.7735 36.3247 62.6265 33.5786 59.7605 31.6509C58.9349 31.0956 58.1446 30.8219 57.3395 30.3698C57.2835 29.8036 56.9829 29.0852 56.8396 28.5404C56.3081 26.52 54.9831 23.7789 55.4306 21.7279C56.4357 21.579 57.5722 21.386 58.5561 21.1449C58.8108 20.5674 60.2005 19.5683 60.1915 18.3689C60.71 18.1853 61.4768 17.9645 62.003 17.7259C62.0283 17.6766 62.0498 17.6349 62.0675 17.6006Z" fill="#D57F42"/>
<path d="M62.0681 17.6006C62.241 17.6805 62.3423 17.6031 62.5248 17.5459C65.1924 16.7187 68.7951 14.0356 71.5947 15.1811C73.63 16.0138 73.7617 19.1191 72.8524 20.8411C71.981 22.4913 71.1934 23.1896 69.6938 24.2535C69.9623 24.6351 70.1657 24.9463 70.3835 25.3621C69.5462 25.9639 68.7419 26.7955 67.9144 27.3941C67.7375 27.2638 66.5665 25.4352 66.2572 25.0728C64.86 23.4354 63.2553 21.9725 61.2361 21.1363C60.9176 21.0044 60.6629 20.9436 60.3901 20.7723C60.0344 20.8504 58.8673 21.1282 58.5566 21.1449C58.8113 20.5674 60.201 19.5683 60.192 18.3689C60.7105 18.1853 61.4773 17.9645 62.0035 17.7259C62.0289 17.6766 62.0504 17.6349 62.0681 17.6006Z" fill="#FE709A"/>
<path d="M60.3896 20.7723C62.5351 20.1975 64.3103 19.7666 66.3297 20.9718C67.7302 21.8077 68.7529 22.9395 69.6934 24.2535C69.9619 24.6351 70.1653 24.9464 70.3831 25.3621C69.5458 25.9639 68.7415 26.7955 67.9139 27.3941C67.737 27.2639 66.566 25.4353 66.2568 25.0728C64.8596 23.4355 63.2549 21.9725 61.2356 21.1363C60.9172 21.0044 60.6625 20.9436 60.3896 20.7723Z" fill="#AC5B27"/>
<path d="M60.4596 27.3659C61.0668 27.2857 61.6702 27.5382 62.0393 28.027C62.4085 28.5157 62.4863 29.1652 62.243 29.7273C61.9998 30.2894 61.4731 30.6773 60.8641 30.7428C59.9382 30.8423 59.1044 30.1787 58.9937 29.2541C58.883 28.3295 59.5364 27.4878 60.4596 27.3659Z" fill="#474249"/>
<path d="M42.6086 20.7749C43.8034 21.0539 45.0054 21.3013 46.2133 21.5168C46.4941 21.5671 47.3545 21.7258 47.6222 21.7313C47.7058 22.1332 47.7895 22.5712 47.7411 22.9917C47.5189 24.9221 46.6841 26.881 46.1487 28.7554C46.0481 29.1075 45.7212 30.0552 45.6877 30.3787C44.9833 30.7278 44.1346 31.1212 43.481 31.5406C40.7253 33.3092 38.5773 35.9333 37.5167 39.0404C36.8272 41.0602 36.8482 42.8608 36.8736 44.9449C36.8779 45.3001 36.9219 47.077 36.8243 47.2451C35.4957 46.1457 34.4568 44.518 33.9433 42.8773C33.7608 42.3086 33.6399 41.722 33.5827 41.1275C33.4974 40.1733 33.5331 38.3894 33.546 37.3801C33.5702 35.4759 33.413 33.3019 33.7156 31.4525C33.939 30.0866 34.5417 28.6656 35.1786 27.446C36.3601 25.2457 38.6794 22.8066 40.8459 21.6025C41.3235 21.3371 42.0842 21.0284 42.6086 20.7749Z" fill="#D57F42"/>
<path d="M42.163 27.3643C43.0911 27.2398 43.945 27.8893 44.0731 28.8169C44.2012 29.7445 43.5551 30.601 42.628 30.7327C41.6958 30.8651 40.8334 30.2147 40.7047 29.2819C40.5759 28.3492 41.2297 27.4894 42.163 27.3643Z" fill="#474249"/>
<path d="M42.875 51.6719C44.991 49.1716 42.0107 45.2573 45.8375 42.3912C46.6693 41.7682 47.7025 41.3441 48.7415 41.2545C49.6982 41.172 50.6865 41.2235 51.6469 41.2281C53.8624 41.2387 55.6688 41.0563 57.4819 42.6002C58.5969 43.5497 59.2274 44.8797 59.342 46.3311C59.4792 48.0706 58.9441 50.2148 60.154 51.6501C59.4275 52.0314 58.0544 52.5051 57.2914 52.7826C55.7755 53.3339 54.7964 53.4853 53.284 52.8885C52.8599 52.7212 52.1753 52.5762 51.6995 52.5528C50.7898 52.5082 49.9357 52.8484 49.0682 53.1155C47.5676 53.5776 46.0975 52.9066 44.6981 52.3944C44.1463 52.1925 43.3975 51.9271 42.875 51.6719Z" fill="#FED59F"/>
<path d="M50.7716 35.3935C50.0156 35.4068 49.3947 35.2834 48.8211 34.7312C48.3382 34.2725 48.064 33.6361 48.0621 32.9701C48.059 32.3475 48.3063 31.7499 48.7486 31.3117C49.6323 30.4467 51.2798 30.7124 52.445 30.6863C55.8818 30.6093 55.898 35.3758 52.2883 35.4001C52.2853 36.257 52.1021 38.2287 52.6736 38.7675C53.3879 39.4408 54.4766 39.1354 55.5884 39.4392C58.7821 40.312 60.9063 42.8936 60.8385 46.2472C60.8183 47.247 60.7818 48.8231 60.912 49.8162C60.9551 50.1446 61.6212 51.033 61.6429 51.1154C61.213 51.2674 60.5651 51.538 60.1533 51.6501C58.9434 50.2148 59.4785 48.0706 59.3413 46.3311C59.2267 44.8797 58.5962 43.5497 57.4812 42.6002C55.6681 41.0563 53.8617 41.2387 51.6462 41.2281C50.6858 41.2235 49.6975 41.172 48.7408 41.2545C47.7018 41.3441 46.6686 41.7682 45.8368 42.3912C42.01 45.2573 44.9903 49.1716 42.8743 51.6719C42.3775 51.4825 41.8525 51.2715 41.3477 51.1137C42.3094 50.081 42.2255 49.3524 42.2277 48.0369C42.2304 46.4641 42.0694 44.836 42.7532 43.3712C43.7068 41.1944 45.8336 39.6352 48.1755 39.2947C48.7833 39.2064 49.6354 39.3076 50.166 38.9608C51.08 38.3632 50.7576 36.4108 50.7716 35.3935Z" fill="#474249"/>
<path d="M47.622 21.7312C49.4939 21.9765 51.3847 22.0444 53.2693 21.934C53.8516 21.9029 54.9656 21.7262 55.4311 21.7279C54.9836 23.7789 56.3086 26.52 56.8401 28.5405C56.9833 29.0852 57.284 29.8037 57.3399 30.3698C56.6568 30.1926 55.9926 29.9031 55.2971 29.7163C52.9317 29.0806 50.4441 29.0521 48.0648 29.6336C47.2225 29.8338 46.3283 30.2301 45.6875 30.3786C45.7209 30.0551 46.0479 29.1074 46.1485 28.7554C46.6838 26.881 47.5187 24.9221 47.7409 22.9917C47.7893 22.5711 47.7056 22.1332 47.622 21.7312Z" fill="#FED59F"/>
<path d="M52.999 45.1366L86.5693 26.587V68.1857L52.999 45.1366Z" fill="#213E77"/>
<path d="M19.4297 26.587L53 45.1366L19.4297 68.1857V26.587Z" fill="#213E77"/>
<path d="M19.4297 68.1857L53 45.1366L86.5703 68.1857H19.4297Z" fill="#4061A2"/>
</g>
<defs>
<clipPath id="clip0_626_7669">
<rect width="106" height="54" rx="27" fill="white"/>
</clipPath>
</defs>
</svg>
