<svg width="80" height="80" viewBox="0 0 80 80" fill="none" xmlns="http://www.w3.org/2000/svg">
<g clip-path="url(#clip0_493_55079)">
<path d="M12.0926 39.7872C10.9286 40.6335 9.77993 40.469 8.68873 39.5378C6.60778 37.7621 5.24226 35.1394 3.94126 32.7567C3.28727 31.5589 2.7109 29.6895 3.1186 28.309C3.66055 26.8867 5.769 25.6491 7.08803 25.1197C10.903 23.5884 20.8731 18.939 24.6415 20.302C25.6197 20.8505 25.7844 21.2768 25.9963 22.3529C26.4771 22.0221 28.1528 21.6348 28.8201 21.5136C35.8057 20.2442 42.9527 20.1712 49.9638 21.2891C50.6642 21.4008 54.176 22.4437 54.1688 22.4435C54.2876 21.4586 54.7794 20.984 55.584 20.4687C60.3302 19.0854 69.8819 23.6997 74.3658 25.7143C78.8076 27.71 77.1968 31.5046 75.2115 34.7028C73.8361 36.9512 71.4277 41.5191 68.1875 39.884L68.1912 39.9504C68.236 40.6375 68.6309 41.959 68.7337 42.7719C69.5398 49.1465 70.8766 53.3836 66.7115 58.9168C65.4268 60.481 64.3935 61.509 62.7446 62.7241C62.1153 63.1546 60.4416 64.3682 59.7818 64.5326C59.5668 64.6602 59.1456 64.9275 58.9365 65.024C58.494 65.2987 58.2491 65.4216 57.7811 65.6387C58.0099 66.1599 58.6841 66.4821 59.0475 66.9534L59.2262 67.0487C60.1703 67.8124 62.0728 69.3178 62.8839 70.1423L62.787 70.2011C63.13 72.7796 59.8055 74.8703 57.574 75.2397C57.0589 75.3249 55.897 75.2461 55.3498 75.1591C53.8493 78.3361 49.3773 79.5245 46.4798 77.5732C43.5688 80.6217 37.1835 80.7305 34.1753 77.8749C34.0559 77.7604 33.9399 77.6424 33.8277 77.521C31.335 79.3396 27.0343 78.4244 25.443 75.8997C25.2879 75.6538 25.1215 75.4115 24.9555 75.1722C24.2148 75.1205 23.4765 75.3052 22.7539 75.2515C21.0654 75.1258 19.2842 73.9172 18.1705 72.6947C17.6143 72.0842 17.0413 71.1237 17.1935 70.2903L17.1488 70.1497C17.8167 69.6878 20.1776 67.5267 20.9098 66.8878L21.1241 66.736C21.5042 66.2808 22.0712 65.9593 22.3661 65.4623C22.0772 65.3601 21.8596 65.2177 21.597 65.0618C21.1631 64.9193 20.7263 64.624 20.3414 64.3759C19.7063 64.1398 18.1108 63.03 17.488 62.615C15.8038 61.3464 14.8038 60.3734 13.4687 58.7765C12.2448 56.9838 11.1573 55.0917 10.9249 52.8812C10.5292 49.1164 11.1592 45.3304 11.8274 41.6348C11.8982 41.2431 12.2285 40.085 12.0926 39.7872Z" fill="#F6C48D"/>
<path d="M20.341 64.3759C15.6212 59.8913 16.9401 51.7154 21.2082 47.5689C22.711 46.109 24.1738 44.826 25.8835 43.6068C29.3861 40.7884 32.5013 38.5083 37.0565 37.784C41.703 37.0452 45.9625 37.9251 49.9963 40.359C51.4056 41.2384 52.6932 42.3181 54.0256 43.3001C57.6442 45.9672 61.4316 48.8929 62.5686 53.488C63.4727 57.1415 62.9484 61.327 60.2316 64.1004C60.0866 64.2496 59.9364 64.3938 59.7814 64.5326C59.5665 64.6602 59.1452 64.9275 58.9361 65.024C58.4936 65.2987 58.2487 65.4216 57.7807 65.6387C58.0095 66.1599 58.6837 66.4821 59.0471 66.9534L59.2258 67.0487C60.1699 67.8124 62.0724 69.3178 62.8835 70.1423L62.7866 70.2011C63.1296 72.7796 59.8051 74.8703 57.5736 75.2397C57.0585 75.3249 55.8967 75.2461 55.3494 75.1591C53.8489 78.3361 49.3769 79.5245 46.4794 77.5732C43.5684 80.6217 37.1831 80.7305 34.1749 77.8749C34.0555 77.7605 33.9395 77.6424 33.8273 77.521C31.3346 79.3396 27.0339 78.4244 25.4426 75.8997C25.2875 75.6538 25.1211 75.4115 24.9551 75.1722C24.2144 75.1206 23.4762 75.3053 22.7535 75.2515C21.065 75.1258 19.2838 73.9172 18.1701 72.6947C17.6139 72.0842 17.0409 71.1237 17.1931 70.2903L17.1484 70.1497C17.8163 69.6878 20.1772 67.5267 20.9094 66.8878L21.1237 66.736C21.5038 66.2808 22.0708 65.9593 22.3657 65.4623C22.0768 65.3601 21.8592 65.2178 21.5967 65.0618C21.1627 64.9193 20.7259 64.624 20.341 64.3759Z" fill="#50362E"/>
<path d="M22.3657 65.4623C23.5059 65.9987 24.6686 66.486 25.8506 66.9226C26.6624 67.1988 27.7589 67.6032 28.5744 67.7937C30.6305 68.3133 32.6108 68.7662 34.7139 69.0535C34.9524 69.086 35.2417 69.1112 35.4719 69.1556C39.2278 69.4589 40.9012 69.471 44.6353 69.214C47.0542 68.8441 48.8468 68.6432 51.2592 67.9845C52.4727 67.6846 53.3722 67.3859 54.5389 66.9733C55.6015 66.5497 56.7635 66.1448 57.7807 65.6387C58.0095 66.1599 58.6837 66.4821 59.0471 66.9534L59.2258 67.0487C60.1699 67.8124 62.0724 69.3178 62.8835 70.1423L62.7866 70.2011C63.1296 72.7796 59.8051 74.8703 57.5736 75.2397C57.0585 75.3249 55.8967 75.2461 55.3494 75.1591C53.8489 78.3361 49.3769 79.5245 46.4794 77.5732C43.5684 80.6217 37.1831 80.7305 34.1749 77.8749C34.0555 77.7604 33.9395 77.6424 33.8273 77.521C31.3346 79.3396 27.0339 78.4244 25.4426 75.8997C25.2875 75.6538 25.1211 75.4114 24.9551 75.1722C24.2144 75.1205 23.4762 75.3052 22.7535 75.2515C21.065 75.1258 19.2838 73.9172 18.1701 72.6946C17.6139 72.0842 17.0409 71.1237 17.1931 70.2903L17.1484 70.1497C17.8163 69.6878 20.1772 67.5267 20.9094 66.8878L21.1237 66.736C21.5038 66.2808 22.0708 65.9593 22.3657 65.4623Z" fill="#2052B6"/>
<path d="M35.4718 69.1556C39.2278 69.4589 40.9012 69.471 44.6353 69.214C44.7526 69.8722 45.1131 71.0036 45.2862 71.7643C45.4902 72.5076 46.4327 75.3826 46.2475 75.9217C46.1293 76.0543 46.0073 76.1835 45.8819 76.3092C45.5193 76.6667 44.8649 77.0883 44.3889 77.295C41.0003 78.7669 36.4612 78.4509 33.7744 75.7407C33.9874 74.713 34.5398 72.6553 34.8672 71.6738L34.9321 71.5448C34.9504 71.2449 35.3803 69.4296 35.4718 69.1556Z" fill="#65AAFD"/>
<path d="M35.4714 69.1556C39.2274 69.4589 40.9007 69.471 44.6349 69.214C44.7522 69.8722 45.1127 71.0036 45.2857 71.7643C44.6486 71.532 44.0527 71.1889 43.3926 70.9552C41.1754 70.1705 38.4676 70.2275 36.2665 71.0351C35.817 71.2 35.4827 71.4285 35.0026 71.5304L34.9316 71.5448C34.95 71.2449 35.3799 69.4296 35.4714 69.1556Z" fill="#5094EF"/>
<path d="M28.5748 67.7937C30.631 68.3133 32.6112 68.7662 34.7143 69.0535C34.9528 69.086 35.2421 69.1113 35.4723 69.1556C35.3808 69.4296 34.9509 71.2449 34.9325 71.5448L34.8676 71.6739C34.5403 72.6553 33.9878 74.713 33.7748 75.7408C33.7079 75.9482 33.6545 76.1171 33.4568 76.2312C30.572 77.8947 26.3194 76.1798 24.749 73.5042C25.1243 73.4051 27.1023 70.1717 27.4151 69.6525L27.4665 69.6264C27.8587 69.0295 28.2284 68.4181 28.5748 67.7937Z" fill="#3570DE"/>
<path d="M28.5741 67.7937C30.6303 68.3133 32.6105 68.7662 34.7137 69.0535C34.9522 69.086 35.2414 69.1113 35.4716 69.1556C35.3801 69.4296 34.9502 71.2449 34.9318 71.5448L34.8669 71.6739C34.6475 71.5261 34.2739 71.1643 33.9578 70.9492C32.5919 69.9942 31.0485 69.5768 29.3936 69.5578C28.8101 69.5511 28.0024 69.7009 27.4658 69.6264C27.858 69.0295 28.2277 68.4181 28.5741 67.7937Z" fill="#2052B6"/>
<path d="M44.6357 69.214C47.0546 68.8441 48.8472 68.6432 51.2596 67.9845C51.5403 68.3735 52.3311 69.5242 52.6199 69.8289L52.7198 69.8978C52.9555 70.4128 54.8823 73.3286 55.3145 73.4969C55.2897 74.0721 54.5206 74.7878 54.0922 75.1471C51.7538 77.1081 48.8348 77.5583 46.248 75.9217C46.4331 75.3827 45.4906 72.5077 45.2866 71.7643C45.1136 71.0036 44.7531 69.8723 44.6357 69.214Z" fill="#3570DE"/>
<path d="M44.6357 69.214C47.0546 68.8441 48.8472 68.6432 51.2596 67.9845C51.5403 68.3735 52.3311 69.5242 52.6199 69.8289L52.5406 69.8365C50.7351 70.0008 49.2047 69.622 47.3579 70.5066C46.7971 70.7752 45.6565 71.6168 45.2866 71.7643C45.1136 71.0036 44.7531 69.8723 44.6357 69.214Z" fill="#2052B6"/>
<path d="M22.3657 65.4623C23.5059 65.9987 24.6686 66.486 25.8506 66.9226C26.6624 67.1988 27.7589 67.6032 28.5744 67.7937C28.228 68.4181 27.8583 69.0295 27.4661 69.6264L27.4147 69.6525C27.1019 70.1717 25.1239 73.4051 24.7486 73.5042C24.4247 73.5408 24.1248 73.6471 23.8095 73.6547C22.0595 73.7094 20.5355 72.9907 19.1844 71.9163C18.6903 71.5234 18.0597 70.475 17.4703 70.1658C17.425 70.142 17.2574 70.2551 17.1931 70.2903L17.1484 70.1497C17.8163 69.6878 20.1772 67.5267 20.9094 66.8878L21.1237 66.736C21.5038 66.2808 22.0708 65.9593 22.3657 65.4623Z" fill="#65AAFD"/>
<path d="M22.3661 65.4623C23.5062 65.9987 24.6689 66.486 25.851 66.9226C26.6627 67.1988 27.7592 67.6032 28.5748 67.7937C28.2284 68.4181 27.8586 69.0295 27.4664 69.6264L27.415 69.6525C27.1936 69.5442 26.9847 69.3655 26.802 69.2043C25.7971 68.3172 24.6747 67.6498 23.3961 67.2359C22.701 67.0108 21.9021 66.9786 21.1917 66.7575L21.124 66.736C21.5041 66.2808 22.0712 65.9593 22.3661 65.4623Z" fill="#5094EF"/>
<path d="M54.5385 66.9733C55.6011 66.5497 56.7631 66.1449 57.7803 65.6387C58.009 66.1599 58.6833 66.4822 59.0466 66.9534L59.2253 67.0487C60.1695 67.8124 62.0719 69.3178 62.8831 70.1423L62.7861 70.2012C62.5282 70.2012 62.5384 70.1447 62.3644 70.3322C61.9977 70.7274 61.6728 71.1443 61.291 71.5273C59.7228 73.1 57.5354 74.0224 55.3136 73.4969C54.8814 73.3286 52.9546 70.4128 52.7189 69.8978L52.619 69.8289C52.3302 69.5242 51.5395 68.3735 51.2588 67.9845C52.4723 67.6846 53.3718 67.3859 54.5385 66.9733Z" fill="#65AAFD"/>
<path d="M54.5385 66.9733C55.6011 66.5497 56.7631 66.1449 57.7803 65.6387C58.009 66.1599 58.6833 66.4822 59.0466 66.9534L58.987 66.9799C58.6158 67.1404 58.3243 67.1288 57.9288 67.2209C56.9722 67.4437 56.1628 67.7166 55.2673 68.0917C54.4527 68.4329 53.3515 69.6706 52.7189 69.8978L52.619 69.8289C52.3302 69.5242 51.5395 68.3735 51.2588 67.9845C52.4723 67.6846 53.3718 67.3859 54.5385 66.9733Z" fill="#5094EF"/>
<path d="M25.8506 66.9226C26.1218 66.5846 26.5615 66.3751 26.9387 66.142C29.2326 64.7251 30.0654 62.1482 31.1243 59.8229C33.5249 54.1074 39.7264 50.344 45.2848 54.5422C47.6702 56.334 48.8648 58.6205 49.984 61.3673C50.7893 63.3639 51.9135 65.2584 53.8257 66.3931C54.1286 66.5747 54.3906 66.6191 54.5388 66.9733C53.3722 67.3859 52.4727 67.6846 51.2592 67.9845C48.8467 68.6432 47.0541 68.8441 44.6353 69.214C40.9012 69.471 39.2278 69.4589 35.4718 69.1556C35.2417 69.1112 34.9524 69.086 34.7139 69.0535C32.6108 68.7662 30.6305 68.3133 28.5743 67.7937C27.7588 67.6032 26.6623 67.1988 25.8506 66.9226Z" fill="#50362E"/>
<path d="M34.566 43.1611C33.9355 41.9086 34.3401 40.4505 35.5884 39.7296C37.5433 38.6009 40.8254 38.6003 42.9826 39.0584C45.2567 39.5413 46.4463 40.6845 45.8295 43.1249C44.7286 44.8861 43.2706 45.5837 41.2525 45.8498C41.2063 50.8895 41.0351 49.9866 45.1461 52.1322C46.2383 52.7092 47.2459 53.4341 48.1401 54.2864C49.2906 55.3817 50.3792 56.9465 51.0752 58.3293C52.6241 61.4061 53.5674 65.2172 57.8258 65.1022C58.1997 65.0921 58.5513 65.0377 58.9362 65.024C58.4936 65.2987 58.2487 65.4216 57.7808 65.6387C56.7635 66.1449 55.6015 66.5497 54.5389 66.9733C54.3907 66.6191 54.1286 66.5747 53.8258 66.3931C51.9135 65.2584 50.7893 63.3639 49.9841 61.3673C48.8649 58.6205 47.6703 56.334 45.2849 54.5422C39.7265 50.344 33.525 54.1074 31.1244 59.8229C30.0655 62.1482 29.2327 64.7252 26.9388 66.1421C26.5615 66.3751 26.1219 66.5846 25.8507 66.9226C24.6686 66.486 23.5059 65.9987 22.3657 65.4623C22.0768 65.3601 21.8592 65.2178 21.5967 65.0618C21.7218 65.046 22.3523 65.0939 22.5388 65.098C26.7417 65.1915 27.7695 61.5482 29.2799 58.4626C29.9467 57.1003 31.1056 55.4215 32.2477 54.3248C33.126 53.4922 34.1066 52.7745 35.1657 52.1891C36.0323 51.7186 37.7483 51.0671 38.3894 50.4126C39.3414 49.4404 39.1346 47.1285 39.1067 45.8319C38.6665 45.8055 38.2307 45.7296 37.8075 45.6058C36.3825 45.1964 35.2886 44.4819 34.566 43.1611Z" fill="#17151A"/>
<path d="M34.5661 43.1611C33.9357 41.9086 34.3402 40.4505 35.5886 39.7296C37.5434 38.6009 40.8256 38.6003 42.9828 39.0584C45.2569 39.5413 46.4465 40.6845 45.8297 43.1249C45.0656 43.084 44.832 43.082 44.1363 42.717C44.2443 42.3189 44.3955 41.7486 44.1214 41.4419C43.2952 40.4629 42.0856 41.5606 41.8965 42.6195C41.621 44.1608 41.833 45.8541 39.6334 45.4396C37.9797 45.1282 39.1162 41.5843 37.4783 41.1524C37.0886 41.0497 36.1934 41.1198 36.1415 41.6484C36.0946 42.0199 36.2705 42.4503 36.1016 42.7438C35.6141 43.1057 35.0077 43.0017 34.5661 43.1611Z" fill="#2E2A2E"/>
<path d="M55.5832 20.4687C60.3294 19.0854 69.8811 23.6997 74.365 25.7143C78.8068 27.71 77.196 31.5046 75.2107 34.7028C73.8353 36.9512 71.4269 41.5191 68.1867 39.884C67.6464 39.4797 66.9335 38.6674 66.3967 38.1497C62.8512 36.3268 55.5199 26.313 54.168 22.4435C54.2868 21.4586 54.7786 20.984 55.5832 20.4687Z" fill="#50362E"/>
<path d="M54.168 22.4435C54.2868 21.4586 54.7786 20.984 55.5832 20.4687C56.0211 21.2561 56.5609 22.0426 57.0645 22.7939C60.0789 27.2914 62.7407 32.0084 65.6055 36.5992C65.8809 37.0404 66.2938 37.6456 66.3967 38.1497C62.8512 36.3268 55.5199 26.313 54.168 22.4435Z" fill="#9B5F40"/>
<path d="M12.0926 39.7872C10.9286 40.6335 9.77993 40.469 8.68873 39.5378C6.60778 37.7621 5.24226 35.1394 3.94126 32.7567C3.28727 31.5589 2.7109 29.6895 3.1186 28.309C3.66055 26.8867 5.769 25.6491 7.08803 25.1197C10.903 23.5884 20.8731 18.939 24.6415 20.302C25.6197 20.8505 25.7844 21.2768 25.9963 22.3529C24.0868 26.6784 21.1377 30.6139 18.0562 34.1727C17.1953 35.1669 14.7388 37.6672 13.6339 38.11C13.2689 38.5489 12.5086 39.4446 12.0926 39.7872Z" fill="#50362E"/>
<path d="M24.6414 20.302C25.6196 20.8505 25.7843 21.2768 25.9962 22.3529C24.0867 26.6784 21.1375 30.6139 18.0561 34.1727C17.1952 35.1669 14.7387 37.6672 13.6338 38.11C13.7223 37.69 15.3712 35.1835 15.6999 34.6488C17.6135 31.4847 19.5479 28.3331 21.5029 25.1943C22.4821 23.6325 23.7513 21.8195 24.6414 20.302Z" fill="#9B5F40"/>
<path d="M23.7898 35.173C25.8964 35.0349 27.7172 36.6289 27.8587 38.7354C28.0003 40.8419 26.4092 42.6651 24.3029 42.8101C22.1918 42.9553 20.3635 41.3599 20.2217 39.2486C20.0798 37.1372 21.6782 35.3115 23.7898 35.173Z" fill="#2E2A2E"/>
<path d="M55.923 35.252C58.0197 34.9428 59.9684 36.3965 60.2693 38.4942C60.5703 40.5921 59.109 42.535 57.01 42.8277C54.9227 43.1188 52.9929 41.6673 52.6936 39.5812C52.3943 37.495 53.8381 35.5595 55.923 35.252Z" fill="#2E2A2E"/>
<path d="M12.3846 66.3482C12.2778 66.1373 11.3521 65.7018 11.0981 65.4659C6.96867 61.6299 11.0272 60.7399 13.4678 58.7765C14.8029 60.3734 15.8029 61.3464 17.4871 62.615C18.1099 63.03 19.7054 64.1399 20.3405 64.3759C20.7254 64.624 21.1622 64.9193 21.5962 65.0618C21.8587 65.2178 22.0763 65.3601 22.3652 65.4623C22.0703 65.9593 21.5033 66.2808 21.1232 66.736L20.9089 66.8878C20.1767 67.5267 17.8158 69.6878 17.148 70.1497C15.3085 70.8635 12.1494 68.3448 12.3846 66.3482Z" fill="#3570DE"/>
<path d="M12.3846 66.3482C12.2778 66.1373 11.3521 65.7018 11.0981 65.4659C6.96867 61.6299 11.0272 60.7399 13.4678 58.7765C14.8029 60.3734 15.8029 61.3464 17.4871 62.615L16.7061 63.2709C15.2504 64.3415 13.8255 65.216 12.3846 66.3482Z" fill="#65AAFD"/>
<path d="M17.4871 62.615C18.1099 63.03 19.7054 64.1398 20.3405 64.3759C20.7254 64.624 21.1622 64.9193 21.5962 65.0618C21.8587 65.2177 22.0763 65.3601 22.3652 65.4623C22.0703 65.9593 21.5033 66.2808 21.1232 66.736L20.9089 66.8878C20.1359 65.8528 19.1552 64.924 18.0407 64.2703C17.5434 63.9787 17.0188 63.7622 16.7061 63.2709L17.4871 62.615Z" fill="#2052B6"/>
<path d="M66.7106 58.9168C68.8161 60.2653 72.2017 61.5929 70.0955 64.372C69.53 65.1182 68.5757 66.07 67.6442 66.2606C68.6129 68.016 64.8999 70.9046 62.883 70.1423C62.0719 69.3178 60.1695 67.8124 59.2253 67.0487L59.0466 66.9534C58.6832 66.4821 58.009 66.1599 57.7803 65.6387C58.2482 65.4216 58.4931 65.2987 58.9357 65.024C59.1447 64.9275 59.566 64.6602 59.7809 64.5326C60.4407 64.3682 62.1145 63.1546 62.7438 62.7241C64.3926 61.509 65.4259 60.481 66.7106 58.9168Z" fill="#3570DE"/>
<path d="M66.711 58.9168C68.8165 60.2653 72.2021 61.5929 70.0959 64.372C69.5304 65.1182 68.576 66.07 67.6445 66.2606C66.6987 65.4786 65.015 64.4061 63.9311 63.6258C63.5638 63.3822 63.0063 63.0546 62.7441 62.7241C64.393 61.509 65.4263 60.481 66.711 58.9168Z" fill="#65AAFD"/>
<path d="M62.7438 62.7241C63.006 63.0546 63.5635 63.3822 63.9308 63.6258L63.872 63.657C63.5492 63.826 63.0241 64.0065 62.6424 64.1821C61.1152 64.8847 60.3251 65.8052 59.2253 67.0487L59.0466 66.9534C58.6832 66.4821 58.009 66.1599 57.7803 65.6387C58.2482 65.4216 58.4931 65.2987 58.9357 65.024C59.1447 64.9275 59.566 64.6602 59.7809 64.5326C60.4407 64.3682 62.1145 63.1546 62.7438 62.7241Z" fill="#2052B6"/>
</g>
<defs>
<clipPath id="clip0_493_55079">
<rect width="80" height="80" fill="white"/>
</clipPath>
</defs>
</svg>
