<svg width="161" height="72" viewBox="0 0 161 72" fill="none" xmlns="http://www.w3.org/2000/svg">
<g clip-path="url(#clip0_650_13378)">
<rect width="161" height="72" rx="36" fill="#17284B"/>
<path d="M5.1729 35.0753C5.995 34.9468 6.26879 35.3629 6.70985 35.9662L7.36103 36.863L9.14339 39.3077C10.4787 39.5692 11.8222 39.7837 13.1584 40.0427C13.7015 40.148 14.2712 40.2229 14.8064 40.3645C14.86 40.3787 15.0036 40.4364 15.049 40.4686C16.3342 41.381 15.3841 42.3257 14.7561 43.1674L13.1804 45.3129C12.9673 45.6021 12.4568 46.2604 12.3013 46.5392C12.3514 46.7675 12.3771 47.0575 12.413 47.2972L12.6879 49.1747L12.9309 50.7675C13.0172 51.3005 13.2222 52.1284 13.0403 52.6327C12.8509 53.0986 12.3949 53.4042 11.9085 53.4322C11.5074 53.4553 11.235 53.2963 10.8764 53.1466L9.99228 52.7823L6.27126 51.2302C6.24465 51.215 6.16318 51.1673 6.13556 51.1802C5.87627 51.3016 5.63158 51.4578 5.37697 51.5906L2.41806 53.1707L1.55908 53.6315C1.18688 53.8305 0.956103 53.9928 0.520874 53.9792C0.173148 53.9655 -0.155502 53.8128 -0.393969 53.5541C-0.566425 53.3655 -0.678113 53.1278 -0.714008 52.8728C-0.761852 52.5173 -0.668404 51.8153 -0.652955 51.4356C-0.5947 50.0043 -0.482433 48.5677 -0.436575 47.1361C-0.702865 46.81 -1.0819 46.4102 -1.36876 46.0902L-3.04214 44.2225C-3.14802 44.1049 -3.25883 43.9888 -3.36204 43.8692C-3.84325 43.3114 -4.52494 42.8356 -4.22745 41.9918C-4.13263 41.7167 -3.94536 41.4848 -3.69876 41.3372C-3.43843 41.1802 -2.81124 41.0289 -2.48645 40.9341L0.737742 40.003C1.01833 39.9213 1.76797 39.7435 2.01786 39.6243C2.13745 39.4704 2.45395 38.8973 2.5736 38.6964C2.98417 38.0113 3.38987 37.3232 3.79069 36.632C3.98183 36.3073 4.1692 35.9681 4.37028 35.6507C4.55275 35.3627 4.83465 35.138 5.1729 35.0753Z" fill="#FFB806"/>
<g clip-path="url(#clip1_650_13378)">
<rect x="19.7539" y="57.5679" width="59.6777" height="23.9927" rx="11.9963" fill="#884B21"/>
<path d="M35.0313 17.9583C35.0538 17.878 35.0769 17.7979 35.1009 17.718C35.2206 17.3199 35.3809 16.8717 35.5345 16.4783C36.6257 13.685 37.4157 10.6888 38.7485 8.0102C38.9784 7.54843 39.6578 7.0295 40.1037 6.7955C40.81 6.43199 41.6033 6.27155 42.3953 6.33205C45.8706 6.58888 47.1294 10.1434 50.4989 10.0229C52.4109 9.9546 53.7151 8.02539 55.3311 7.15086C57.5889 5.99951 60.2685 5.92437 61.5922 8.62241C62.3378 10.142 62.7456 11.885 63.379 13.4548C63.8586 14.8692 64.5829 16.5772 64.9665 17.9649C65.5145 19.3328 65.9341 20.6579 66.4523 21.9927C66.7223 22.1175 66.8803 21.9967 67.1652 21.9074C71.3287 20.6163 76.9516 16.4287 81.3211 18.2165C84.4978 19.5162 84.7033 24.3628 83.284 27.0504C81.924 29.6259 80.6948 30.7158 78.3543 32.3763C78.7734 32.9719 79.0908 33.4577 79.4307 34.1066C78.1239 35.0459 76.8686 36.3438 75.577 37.278C75.5922 37.5949 76.4704 39.2386 76.6288 39.6835C76.9853 40.6854 77.3852 41.6102 77.6221 42.6759C77.8098 43.5159 77.9384 44.368 78.0068 45.2261C78.1176 46.7932 78.0653 49.7813 78.0531 51.4147C78.0339 53.962 78.2569 58.1066 77.7109 60.464C77.2266 62.578 76.2637 64.5526 74.8964 66.2361C74.3807 66.8766 73.5369 67.7973 72.9058 68.3371L72.8989 68.399C72.682 70.4918 73.523 72.4855 71.3992 74.287C70.4322 75.1072 69.4126 75.3158 68.1805 75.2619C67.2343 75.2204 66.1788 74.3605 65.7893 74.3012C65.1184 74.5385 64.1072 74.9608 63.4644 75.1358C62.3306 75.7309 60.1876 76.4702 58.9967 76.9033C56.6307 77.7639 55.1026 78.0002 52.742 77.0686C52.0801 76.8075 51.0117 76.5811 50.269 76.5447C48.8493 76.475 47.5162 77.006 46.1622 77.4229C43.8202 78.1441 41.5257 77.0969 39.3416 76.2975C38.4804 75.9823 37.3117 75.5681 36.4961 75.1699C35.7208 74.8742 34.9013 74.5449 34.1134 74.2986C30.5705 76.7001 26.6135 74.3418 27.155 70.0385C27.1948 69.7222 27.1616 68.5004 27.0526 68.2605C24.9791 66.5446 23.3575 64.0042 22.5561 61.4434C22.2713 60.5559 22.0826 59.6403 21.9933 58.7125C21.8602 57.2231 21.9159 54.439 21.936 52.8636C21.9738 49.8917 21.7285 46.4986 22.2007 43.612C22.5495 41.4802 23.4901 39.2624 24.4841 37.3589C23.5978 36.6111 21.4497 34.6751 20.5669 34.1279C20.905 33.5081 21.2448 32.9694 21.6232 32.3724C20.0911 31.2111 18.9538 30.5064 17.7807 28.8645C16.5022 27.1078 15.4585 24.5043 15.9163 22.2676C17.2837 15.5873 23.2399 17.8263 27.3047 19.5916L30.9477 21.1643C31.6101 21.4466 32.8307 22.0123 33.5023 22.0993C33.9598 20.8237 34.5065 19.1708 35.0313 17.9583Z" fill="#FEE6C5"/>
<path d="M35.0313 17.9583C35.0538 17.878 35.0769 17.7979 35.1009 17.718C35.2206 17.3199 35.3809 16.8717 35.5345 16.4783C36.6257 13.685 37.4157 10.6888 38.7485 8.0102C38.9784 7.54843 39.6578 7.0295 40.1037 6.7955C40.81 6.43199 41.6033 6.27155 42.3953 6.33205C45.8706 6.58888 47.1294 10.1434 50.4989 10.0229C52.4109 9.9546 53.7151 8.02539 55.3311 7.15086C57.5889 5.99951 60.2685 5.92437 61.5922 8.62241C62.3378 10.142 62.7456 11.885 63.379 13.4548C63.8586 14.8692 64.5829 16.5772 64.9665 17.9649C65.5145 19.3328 65.9341 20.6579 66.4523 21.9927C66.4247 22.0462 66.3912 22.1114 66.3516 22.1883C65.5303 22.5607 64.3335 22.9054 63.5242 23.1919C63.5384 25.0639 61.3694 26.6232 60.9718 27.5246C59.4363 27.9008 57.6624 28.2021 56.0937 28.4345C55.3672 28.4317 53.6285 28.7076 52.7197 28.7561C49.7782 28.9283 46.8271 28.8224 43.9056 28.4396C43.4877 28.4311 42.1449 28.1833 41.7066 28.1049C39.8214 27.7685 37.9454 27.3824 36.0805 26.947C35.2621 27.3425 34.0747 27.8244 33.3294 28.2387C29.948 30.118 26.3282 33.9248 24.4841 37.3589C23.5978 36.6111 21.4497 34.6751 20.5669 34.1279C20.905 33.5081 21.2448 32.9694 21.6232 32.3724C20.0911 31.2111 18.9538 30.5064 17.7807 28.8645C16.5022 27.1078 15.4585 24.5043 15.9163 22.2676C17.2837 15.5873 23.2399 17.8263 27.3047 19.5916L30.9477 21.1643C31.6101 21.4466 32.8307 22.0123 33.5023 22.0993C33.9598 20.8237 34.5065 19.1708 35.0313 17.9583Z" fill="#FE92B6"/>
<path d="M35.0312 17.9583C35.0537 17.878 35.0769 17.7979 35.1008 17.718C35.2205 17.3199 35.3808 16.8717 35.5344 16.4783C36.6256 13.685 37.4157 10.6888 38.7485 8.0102C38.9783 7.54843 39.6577 7.0295 40.1037 6.7955C40.81 6.43199 41.6032 6.27155 42.3952 6.33205C45.8705 6.58888 47.1293 10.1434 50.4988 10.0229C52.4109 9.9546 53.715 8.02539 55.3311 7.15086C57.5888 5.99951 60.2684 5.92437 61.5921 8.62241C62.3377 10.142 62.7455 11.885 63.3789 13.4548C63.8585 14.8692 64.5828 16.5772 64.9665 17.9649C63.1856 18.0346 61.2626 17.9965 59.4709 17.9921L59.4055 17.9686C58.2673 18.0521 56.4117 17.9992 55.2435 17.9993L47.4574 17.9984L39.4984 18.0025C38.2087 18.0027 36.283 18.0515 35.0312 17.9583Z" fill="#FE92B6"/>
<path d="M55.332 7.15087C57.5898 5.99953 60.2694 5.92438 61.5931 8.62242C62.3387 10.142 62.7465 11.885 63.3799 13.4548C63.8595 14.8692 64.5838 16.5772 64.9674 17.9649C63.1866 18.0346 61.2636 17.9965 59.4718 17.9921L59.4065 17.9686C58.6639 15.276 57.6173 12.4891 56.5838 9.89743C56.3127 9.21774 55.6986 7.73379 55.332 7.15087Z" fill="#FE709A"/>
<path d="M59.4706 17.9921C61.2623 17.9965 63.1853 18.0346 64.9662 17.9649C65.5142 19.3328 65.9338 20.6579 66.452 21.9927C66.4244 22.0462 66.3908 22.1114 66.3512 22.1883C65.53 22.5607 64.3332 22.9054 63.5239 23.1918C62.3607 23.5238 61.2917 23.821 60.1143 24.0926C56.1966 25.0068 51.2324 25.3009 47.2382 25.099C43.1512 24.8928 39.1124 24.1217 35.237 22.8077C34.8997 22.696 33.6969 22.315 33.502 22.0993C33.9595 20.8237 34.5062 19.1708 35.031 17.9583C36.2827 18.0515 38.2085 18.0027 39.4982 18.0025L47.4571 17.9984L55.2432 17.9993C56.4114 17.9992 58.267 18.0521 59.4053 17.9686L59.4706 17.9921Z" fill="#CF385C"/>
<path d="M59.4707 17.992C61.2624 17.9964 63.1854 18.0346 64.9663 17.9648C65.5143 19.3327 65.9339 20.6578 66.4521 21.9927C66.4245 22.0462 66.3909 22.1114 66.3513 22.1883C65.5301 22.5606 64.3333 22.9053 63.524 23.1918C62.3608 23.5238 61.2918 23.8209 60.1144 24.0926C60.1588 21.59 59.9468 20.4016 59.4707 17.992Z" fill="#A42243"/>
<path d="M21.6247 32.3724C23.2014 30.3683 24.5673 28.6089 26.848 27.2813C30.0822 25.3986 32.6907 26.0326 36.082 26.9469C35.2635 27.3425 34.0762 27.8244 33.3309 28.2387C29.9495 30.1179 26.3296 33.9248 24.4856 37.3589C23.5993 36.6111 21.4512 34.6751 20.5684 34.1279C20.9064 33.508 21.2463 32.9694 21.6247 32.3724Z" fill="#AC5B27"/>
<path d="M66.4534 21.9926C66.7233 22.1174 66.8814 21.9966 67.1663 21.9073C71.3297 20.6162 76.9527 16.4286 81.3222 18.2164C84.4989 19.5161 84.7044 24.3627 83.2851 27.0503C81.9251 29.6258 80.6958 30.7157 78.3553 32.3762C78.7744 32.9718 79.0919 33.4576 79.4318 34.1065C78.125 35.0458 76.8697 36.3437 75.578 37.2779C75.5933 37.5948 76.4715 39.2385 76.6299 39.6834C76.9864 40.6853 77.3863 41.6101 77.6231 42.6758C77.8109 43.5158 77.9395 44.3679 78.0078 45.226C78.1187 46.7931 78.0664 49.7812 78.0541 51.4146C78.0349 53.9619 78.258 58.1065 77.712 60.4639C77.2277 62.5779 76.2648 64.5525 74.8975 66.236C74.3818 66.8765 73.538 67.7972 72.9069 68.337C72.8529 67.8843 72.9061 66.1493 72.9046 65.615C72.8953 62.3819 73.0915 59.6024 72.1761 56.4234C70.6767 51.2165 67.3258 46.9304 62.8527 43.9218C61.5642 43.0551 60.3307 42.6279 59.074 41.9222C58.9867 41.0387 58.5175 39.9173 58.2938 39.0671C57.4643 35.9136 55.3963 31.6355 56.0948 28.4344C57.6634 28.202 59.4373 27.9007 60.9729 27.5245C61.3705 26.6231 63.5394 25.0638 63.5253 23.1918C64.3346 22.9053 65.5314 22.5606 66.3526 22.1882C66.3922 22.1113 66.4258 22.0461 66.4534 21.9926Z" fill="#D57F42"/>
<path d="M66.4532 21.9926C66.7231 22.1174 66.8811 21.9966 67.1661 21.9073C71.3295 20.6162 76.9524 16.4286 81.3219 18.2164C84.4986 19.5161 84.7041 24.3627 83.2848 27.0503C81.9248 29.6258 80.6956 30.7157 78.3551 32.3762C78.7742 32.9718 79.0916 33.4576 79.4315 34.1065C78.1247 35.0458 76.8694 36.3437 75.5778 37.2779C75.3017 37.0746 73.4741 34.2206 72.9914 33.6549C70.8107 31.0994 68.3061 28.8162 65.1546 27.511C64.6576 27.3051 64.2601 27.2102 63.8342 26.9429C63.279 27.0648 61.4575 27.4984 60.9727 27.5245C61.3702 26.6231 63.5392 25.0638 63.5251 23.1918C64.3343 22.9053 65.5312 22.5606 66.3524 22.1882C66.392 22.1113 66.4255 22.0461 66.4532 21.9926Z" fill="#FE709A"/>
<path d="M63.834 26.9429C67.1825 26.0458 69.9531 25.3733 73.1049 27.2543C75.2908 28.5589 76.887 30.3254 78.3548 32.3763C78.7739 32.9718 79.0914 33.4576 79.4313 34.1066C78.1245 35.0458 76.8692 36.3438 75.5775 37.278C75.3015 37.0747 73.4738 34.2207 72.9912 33.655C70.8105 31.0995 68.3059 28.8162 65.1544 27.5111C64.6573 27.3052 64.2598 27.2103 63.834 26.9429Z" fill="#AC5B27"/>
<path d="M63.9418 37.2338C64.8895 37.1087 65.8313 37.5028 66.4074 38.2657C66.9835 39.0285 67.1049 40.0421 66.7253 40.9194C66.3456 41.7967 65.5236 42.4022 64.5731 42.5044C63.128 42.6597 61.8267 41.624 61.6538 40.181C61.481 38.7379 62.5009 37.4241 63.9418 37.2338Z" fill="#474249"/>
<path d="M36.0814 26.947C37.9463 27.3824 39.8223 27.7686 41.7075 28.105C42.1458 28.1834 43.4886 28.4312 43.9065 28.4397C44.037 29.0671 44.1675 29.7506 44.092 30.407C43.7452 33.4199 42.4422 36.4772 41.6066 39.4027C41.4497 39.9522 40.9394 41.4312 40.8872 41.9362C39.7878 42.481 38.4631 43.095 37.443 43.7497C33.1421 46.51 29.7896 50.6057 28.1342 55.455C27.0581 58.6075 27.0909 61.4177 27.1304 64.6705C27.1371 65.2249 27.2059 67.9982 27.0535 68.2606C24.98 66.5447 23.3584 64.0043 22.557 61.4435C22.2722 60.556 22.0835 59.6403 21.9942 58.7126C21.861 57.2232 21.9168 54.439 21.9368 52.8637C21.9747 49.8917 21.7294 46.4987 22.2016 43.6121C22.5503 41.4803 23.4909 39.2624 24.485 37.359C26.3291 33.9249 29.9489 30.118 33.3303 28.2388C34.0756 27.8245 35.263 27.3426 36.0814 26.947Z" fill="#D57F42"/>
<path d="M35.3853 37.2314C36.8338 37.0371 38.1667 38.0507 38.3666 39.4985C38.5665 40.9463 37.5581 42.2831 36.1112 42.4887C34.6561 42.6954 33.3102 41.6802 33.1092 40.2244C32.9083 38.7686 33.9288 37.4267 35.3853 37.2314Z" fill="#474249"/>
<path d="M36.4961 75.1698C39.7986 71.2674 35.1471 65.1581 41.1198 60.6848C42.4181 59.7125 44.0307 59.0506 45.6523 58.9107C47.1455 58.7819 48.6879 58.8623 50.187 58.8695C53.6448 58.8861 56.4641 58.6013 59.2939 61.011C61.0342 62.493 62.0182 64.5688 62.197 66.834C62.4113 69.5489 61.5761 72.8956 63.4644 75.1357C62.3306 75.7308 60.1875 76.4701 58.9966 76.9032C56.6306 77.7638 55.1025 78.0001 52.742 77.0686C52.0801 76.8074 51.0117 76.5811 50.2689 76.5446C48.8492 76.4749 47.5161 77.006 46.1622 77.4229C43.8202 78.144 41.5257 77.0968 39.3415 76.2974C38.4804 75.9823 37.3116 75.568 36.4961 75.1698Z" fill="#FED59F"/>
<path d="M48.8217 49.7633C47.6419 49.7839 46.6728 49.5914 45.7775 48.7296C45.0238 48.0136 44.5958 47.0204 44.593 45.9808C44.588 45.0092 44.9741 44.0764 45.6644 43.3926C47.0437 42.0425 49.6149 42.4572 51.4336 42.4165C56.7975 42.2963 56.8229 49.7357 51.189 49.7736C51.1843 51.111 50.8983 54.1882 51.7904 55.0292C52.9052 56.08 54.6044 55.6034 56.3396 56.0776C61.3243 57.4398 64.6397 61.469 64.5338 66.7032C64.5022 68.2636 64.4454 70.7237 64.6485 72.2735C64.7157 72.7862 65.7554 74.1727 65.7892 74.3013C65.1182 74.5386 64.1071 74.9608 63.4643 75.1359C61.5761 72.8958 62.4112 69.5491 62.1969 66.8341C62.0181 64.5689 61.0341 62.4932 59.2938 61.0112C56.464 58.6014 53.6447 58.8862 50.1869 58.8697C48.6878 58.8624 47.1454 58.7821 45.6522 58.9109C44.0306 59.0507 42.418 59.7126 41.1198 60.6849C35.147 65.1582 39.7985 71.2676 36.496 75.1699C35.7207 74.8743 34.9012 74.5449 34.1133 74.2986C35.6143 72.6869 35.4834 71.5497 35.4868 69.4965C35.491 67.0418 35.2398 64.5007 36.307 62.2145C37.7954 58.817 41.1147 56.3834 44.7698 55.8521C45.7185 55.7142 47.0485 55.8722 47.8766 55.3309C49.3031 54.3982 48.8 51.351 48.8217 49.7633Z" fill="#474249"/>
<path d="M43.906 28.4395C46.8275 28.8223 49.7786 28.9282 52.7201 28.756C53.6289 28.7075 55.3676 28.4316 56.0941 28.4343C55.3957 31.6355 57.4636 35.9136 58.2932 39.0671C58.5168 39.9173 58.986 41.0386 59.0734 41.9222C58.0071 41.6457 56.9705 41.1938 55.885 40.9023C52.1932 39.9101 48.3106 39.8657 44.597 40.7731C43.2825 41.0857 41.8868 41.7042 40.8867 41.936C40.9389 41.4311 41.4492 39.952 41.6062 39.4025C42.4418 36.477 43.7447 33.4197 44.0915 30.4068C44.1671 29.7504 44.0365 29.0669 43.906 28.4395Z" fill="#FED59F"/>
</g>
<path d="M127.95 6.33966C128.772 6.21118 129.046 6.62729 129.487 7.2306L130.138 8.12737L131.921 10.5721C133.256 10.8336 134.6 11.0481 135.936 11.3071C136.479 11.4124 137.049 11.4873 137.584 11.6289C137.637 11.6431 137.781 11.7008 137.826 11.733C139.112 12.6454 138.161 13.5901 137.533 14.4319L135.958 16.5773C135.745 16.8665 135.234 17.5248 135.079 17.8036C135.129 18.0319 135.154 18.3219 135.19 18.5616L135.465 20.4391L135.708 22.0319C135.795 22.5649 136 23.3928 135.818 23.8971C135.628 24.363 135.172 24.6686 134.686 24.6966C134.285 24.7197 134.012 24.5607 133.654 24.411L132.77 24.0467L129.049 22.4946C129.022 22.4794 128.941 22.4317 128.913 22.4446C128.654 22.566 128.409 22.7222 128.154 22.855L125.195 24.4351L124.336 24.8959C123.964 25.0949 123.733 25.2572 123.298 25.2436C122.95 25.2299 122.622 25.0772 122.383 24.8185C122.211 24.6299 122.099 24.3922 122.063 24.1372C122.015 23.7817 122.109 23.0797 122.124 22.7C122.183 21.2687 122.295 19.8321 122.341 18.4005C122.074 18.0745 121.695 17.6746 121.409 17.3546L119.735 15.4869C119.629 15.3693 119.519 15.2532 119.415 15.1336C118.934 14.5758 118.252 14.1 118.55 13.2562C118.645 12.9811 118.832 12.7492 119.079 12.6016C119.339 12.4446 119.966 12.2933 120.291 12.1985L123.515 11.2674C123.796 11.1857 124.545 11.0079 124.795 10.8887C124.915 10.7348 125.231 10.1617 125.351 9.96083C125.762 9.2757 126.167 8.58756 126.568 7.89644C126.759 7.57171 126.947 7.23249 127.148 6.9151C127.33 6.62709 127.612 6.40237 127.95 6.33966Z" fill="#FFB806"/>
<path d="M154.63 16.563C155.452 16.4346 155.726 16.8507 156.167 17.454L156.818 18.3508L158.6 20.7955C159.936 21.057 161.279 21.2715 162.615 21.5305C163.159 21.6357 163.728 21.7107 164.263 21.8523C164.317 21.8665 164.461 21.9242 164.506 21.9564C165.791 22.8688 164.841 23.8135 164.213 24.6552L162.637 26.8007C162.424 27.0899 161.914 27.7482 161.758 28.027C161.808 28.2553 161.834 28.5453 161.87 28.785L162.145 30.6625L162.388 32.2553C162.474 32.7883 162.679 33.6162 162.497 34.1205C162.308 34.5864 161.852 34.892 161.366 34.92C160.964 34.9431 160.692 34.7841 160.333 34.6344L159.449 34.2701L155.728 32.718C155.702 32.7028 155.62 32.6551 155.593 32.668C155.333 32.7894 155.089 32.9456 154.834 33.0783L151.875 34.6585L151.016 35.1193C150.644 35.3183 150.413 35.4806 149.978 35.467C149.63 35.4533 149.302 35.3006 149.063 35.0419C148.891 34.8533 148.779 34.6156 148.743 34.3605C148.695 34.005 148.789 33.3031 148.804 32.9234C148.862 31.4921 148.975 30.0555 149.02 28.6239C148.754 28.2978 148.375 27.898 148.088 27.578L146.415 25.7103C146.309 25.5927 146.198 25.4766 146.095 25.3569C145.614 24.7992 144.932 24.3234 145.23 23.4796C145.324 23.2045 145.512 22.9726 145.758 22.825C146.019 22.668 146.646 22.5167 146.971 22.4219L150.195 21.4907C150.475 21.4091 151.225 21.2313 151.475 21.1121C151.594 20.9582 151.911 20.3851 152.031 20.1842C152.441 19.4991 152.847 18.811 153.248 18.1198C153.439 17.7951 153.626 17.4559 153.827 17.1385C154.01 16.8505 154.292 16.6258 154.63 16.563Z" fill="#FFB806"/>
<g clip-path="url(#clip2_650_13378)">
<rect x="85.375" y="61.1233" width="59.6777" height="19.0291" rx="9.51453" fill="#EAB880"/>
<path d="M90.3314 42.3894C89.3145 43.1157 88.3111 42.9745 87.3579 42.1753C85.54 40.6514 84.3472 38.4004 83.2107 36.3556C82.6394 35.3276 82.1359 33.7231 82.492 32.5384C82.9654 31.3177 84.8073 30.2556 85.9596 29.8012C89.2922 28.487 98.0017 24.4967 101.294 25.6664C102.148 26.1372 102.292 26.5031 102.477 27.4266C102.897 27.1427 104.361 26.8103 104.944 26.7063C111.046 25.6168 117.29 25.5542 123.414 26.5136C124.026 26.6095 127.094 27.5046 127.088 27.5044C127.191 26.6591 127.621 26.2518 128.324 25.8096C132.47 24.6223 140.814 28.5825 144.731 30.3115C148.611 32.0242 147.204 35.2809 145.47 38.0258C144.268 39.9554 142.164 43.8758 139.334 42.4725L139.337 42.5294C139.376 43.1191 139.721 44.2533 139.811 44.951C140.515 50.4219 141.683 54.0584 138.044 58.8071C136.922 60.1496 136.019 61.0318 134.579 62.0747C134.029 62.4441 132.567 63.4857 131.991 63.6268C131.803 63.7363 131.435 63.9658 131.252 64.0485C130.866 64.2843 130.652 64.3898 130.243 64.5761C130.443 65.0234 131.032 65.3 131.349 65.7045L131.506 65.7862C132.33 66.4416 133.992 67.7337 134.701 68.4412L134.616 68.4918C134.916 70.7047 132.012 72.499 130.062 72.816C129.612 72.8892 128.597 72.8216 128.119 72.7469C126.808 75.4735 122.902 76.4934 120.371 74.8187C117.828 77.4351 112.25 77.5285 109.622 75.0777C109.518 74.9795 109.416 74.8782 109.318 74.774C107.141 76.3348 103.384 75.5493 101.994 73.3825C101.858 73.1714 101.713 72.9635 101.568 72.7581C100.921 72.7138 100.276 72.8723 99.6447 72.8261C98.1696 72.7183 96.6136 71.681 95.6408 70.6318C95.1549 70.1079 94.6543 69.2836 94.7873 68.5683L94.7483 68.4477C95.3317 68.0512 97.3941 66.1965 98.0337 65.6482L98.2209 65.5179C98.553 65.1272 99.0483 64.8513 99.3059 64.4247C99.0535 64.337 98.8634 64.2148 98.6341 64.081C98.255 63.9587 97.8734 63.7052 97.5372 63.4923C96.9824 63.2897 95.5886 62.3372 95.0446 61.981C93.5733 60.8923 92.6998 60.0572 91.5334 58.6867C90.4643 57.1481 89.5143 55.5243 89.3113 53.6271C88.9656 50.396 89.516 47.1468 90.0997 43.9751C90.1616 43.6389 90.4501 42.645 90.3314 42.3894Z" fill="#F6C48D"/>
<path d="M97.537 63.4925C93.4139 59.6436 94.5661 52.6268 98.2945 49.0681C99.6073 47.8152 100.885 46.7141 102.379 45.6677C105.438 43.2488 108.16 41.292 112.139 40.6704C116.198 40.0363 119.919 40.7914 123.443 42.8803C124.674 43.635 125.799 44.5616 126.963 45.4045C130.124 47.6935 133.432 50.2044 134.425 54.1481C135.215 57.2837 134.757 60.8758 132.384 63.2561C132.257 63.3841 132.126 63.5079 131.991 63.627C131.803 63.7365 131.435 63.9659 131.252 64.0487C130.866 64.2845 130.652 64.3899 130.243 64.5763C130.443 65.0236 131.032 65.3002 131.349 65.7046L131.505 65.7864C132.33 66.4418 133.992 67.7338 134.701 68.4414L134.616 68.4919C134.916 70.7049 132.011 72.4992 130.062 72.8162C129.612 72.8893 128.597 72.8217 128.119 72.7471C126.808 75.4736 122.902 76.4936 120.371 74.8189C117.828 77.4352 112.25 77.5286 109.622 75.0778C109.517 74.9796 109.416 74.8783 109.318 74.7741C107.141 76.3349 103.384 75.5495 101.994 73.3827C101.858 73.1716 101.713 72.9636 101.568 72.7583C100.921 72.714 100.276 72.8725 99.6444 72.8263C98.1694 72.7185 96.6134 71.6812 95.6405 70.632C95.1547 70.1081 94.6541 69.2837 94.7871 68.5684L94.748 68.4478C95.3315 68.0514 97.3939 66.1967 98.0335 65.6483L98.2207 65.518C98.5527 65.1273 99.0481 64.8514 99.3057 64.4249C99.0533 64.3371 98.8632 64.215 98.6338 64.0811C98.2547 63.9589 97.8732 63.7054 97.537 63.4925Z" fill="#50362E"/>
<path d="M99.3057 64.4248C100.302 64.8852 101.317 65.3034 102.35 65.6781C103.059 65.9151 104.017 66.2622 104.729 66.4257C106.526 66.8717 108.255 67.2604 110.093 67.5069C110.301 67.5348 110.554 67.5565 110.755 67.5946C114.036 67.8549 115.498 67.8652 118.76 67.6447C120.873 67.3272 122.439 67.1548 124.546 66.5895C125.606 66.3321 126.392 66.0757 127.411 65.7216C128.339 65.3581 129.354 65.0106 130.243 64.5763C130.443 65.0235 131.032 65.3001 131.349 65.7046L131.505 65.7863C132.33 66.4418 133.992 67.7338 134.701 68.4413L134.616 68.4919C134.916 70.7048 132.011 72.4992 130.062 72.8161C129.612 72.8893 128.597 72.8217 128.119 72.747C126.808 75.4736 122.902 76.4935 120.371 74.8189C117.828 77.4352 112.25 77.5286 109.622 75.0778C109.517 74.9796 109.416 74.8783 109.318 74.7741C107.141 76.3349 103.384 75.5494 101.994 73.3826C101.858 73.1715 101.713 72.9636 101.568 72.7582C100.921 72.7139 100.276 72.8724 99.6444 72.8263C98.1694 72.7184 96.6134 71.6811 95.6405 70.6319C95.1547 70.108 94.6541 69.2837 94.7871 68.5684L94.748 68.4478C95.3315 68.0513 97.3939 66.1966 98.0335 65.6483L98.2207 65.518C98.5527 65.1273 99.0481 64.8514 99.3057 64.4248Z" fill="#2052B6"/>
<path d="M110.756 67.5945C114.037 67.8548 115.499 67.8651 118.761 67.6446C118.864 68.2095 119.179 69.1805 119.33 69.8334C119.508 70.4713 120.331 72.9388 120.169 73.4014C120.066 73.5152 119.96 73.6261 119.85 73.734C119.533 74.0408 118.962 74.4026 118.546 74.58C115.586 75.8433 111.621 75.5721 109.273 73.2461C109.46 72.364 109.942 70.5981 110.228 69.7557L110.285 69.645C110.301 69.3876 110.676 67.8296 110.756 67.5945Z" fill="#65AAFD"/>
<path d="M110.755 67.5945C114.036 67.8548 115.498 67.8651 118.76 67.6446C118.862 68.2095 119.177 69.1805 119.328 69.8334C118.772 69.634 118.251 69.3395 117.674 69.139C115.738 68.4655 113.372 68.5144 111.449 69.2075C111.057 69.3491 110.765 69.5452 110.345 69.6327L110.283 69.645C110.299 69.3876 110.675 67.8296 110.755 67.5945Z" fill="#5094EF"/>
<path d="M104.731 66.4258C106.527 66.8717 108.257 67.2605 110.094 67.507C110.302 67.5349 110.555 67.5566 110.756 67.5946C110.676 67.8298 110.301 69.3877 110.285 69.6451L110.228 69.7559C109.942 70.5982 109.459 72.3642 109.273 73.2463C109.215 73.4243 109.168 73.5693 108.996 73.6671C106.475 75.0948 102.761 73.6231 101.389 71.3267C101.716 71.2417 103.444 68.4667 103.718 68.0211L103.763 67.9987C104.105 67.4864 104.428 66.9617 104.731 66.4258Z" fill="#3570DE"/>
<path d="M104.73 66.4258C106.526 66.8717 108.256 67.2605 110.093 67.507C110.302 67.5349 110.554 67.5566 110.755 67.5946C110.675 67.8298 110.3 69.3877 110.284 69.6451L110.227 69.7559C110.035 69.6291 109.709 69.3185 109.433 69.134C108.24 68.3143 106.891 67.9561 105.446 67.9398C104.936 67.9341 104.23 68.0626 103.762 67.9987C104.104 67.4864 104.427 66.9617 104.73 66.4258Z" fill="#2052B6"/>
<path d="M118.76 67.6445C120.873 67.3271 122.439 67.1547 124.546 66.5894C124.791 66.9232 125.482 67.9108 125.734 68.1723L125.822 68.2314C126.028 68.6734 127.711 71.1759 128.088 71.3203C128.067 71.814 127.395 72.4282 127.021 72.7366C124.978 74.4196 122.428 74.8059 120.168 73.4014C120.33 72.9387 119.507 70.4713 119.328 69.8333C119.177 69.1805 118.862 68.2095 118.76 67.6445Z" fill="#3570DE"/>
<path d="M118.76 67.6445C120.873 67.3271 122.439 67.1547 124.546 66.5894C124.791 66.9232 125.482 67.9108 125.734 68.1723L125.665 68.1788C124.088 68.3198 122.751 67.9948 121.138 68.7539C120.648 68.9844 119.652 69.7067 119.328 69.8333C119.177 69.1805 118.862 68.2095 118.76 67.6445Z" fill="#2052B6"/>
<path d="M99.3057 64.4248C100.302 64.8852 101.317 65.3034 102.35 65.6781C103.059 65.9151 104.017 66.2622 104.729 66.4257C104.427 66.9616 104.104 67.4864 103.761 67.9986L103.716 68.021C103.443 68.4666 101.715 71.2416 101.387 71.3267C101.104 71.3581 100.842 71.4494 100.567 71.4559C99.0382 71.5028 97.7069 70.886 96.5266 69.9639C96.095 69.6267 95.5441 68.727 95.0292 68.4615C94.9896 68.4411 94.8432 68.5382 94.7871 68.5684L94.748 68.4478C95.3315 68.0513 97.3939 66.1966 98.0335 65.6483L98.2207 65.518C98.5527 65.1273 99.0481 64.8514 99.3057 64.4248Z" fill="#65AAFD"/>
<path d="M99.3057 64.4248C100.302 64.8852 101.317 65.3034 102.35 65.6781C103.059 65.9151 104.017 66.2622 104.729 66.4257C104.427 66.9616 104.104 67.4864 103.761 67.9986L103.716 68.021C103.523 67.9281 103.34 67.7747 103.181 67.6363C102.303 66.875 101.322 66.3022 100.206 65.947C99.5983 65.7539 98.9004 65.7261 98.2799 65.5364L98.2207 65.518C98.5528 65.1273 99.0481 64.8514 99.3057 64.4248Z" fill="#5094EF"/>
<path d="M127.412 65.7215C128.34 65.358 129.355 65.0105 130.244 64.5762C130.444 65.0234 131.033 65.3 131.35 65.7045L131.506 65.7862C132.331 66.4417 133.993 67.7337 134.701 68.4413L134.617 68.4918C134.391 68.4918 134.4 68.4434 134.248 68.6043C133.928 68.9434 133.644 69.3012 133.311 69.63C131.941 70.9797 130.03 71.7713 128.089 71.3203C127.711 71.1759 126.028 68.6734 125.822 68.2315L125.735 68.1724C125.483 67.9108 124.792 66.9232 124.547 66.5894C125.607 66.332 126.393 66.0756 127.412 65.7215Z" fill="#65AAFD"/>
<path d="M127.412 65.7215C128.34 65.358 129.355 65.0105 130.244 64.5762C130.444 65.0234 131.033 65.3 131.35 65.7045L131.298 65.7272C130.974 65.865 130.719 65.855 130.374 65.934C129.538 66.1252 128.831 66.3594 128.049 66.6814C127.337 66.9742 126.375 68.0364 125.822 68.2315L125.735 68.1724C125.483 67.9108 124.792 66.9232 124.547 66.5894C125.607 66.332 126.393 66.0756 127.412 65.7215Z" fill="#5094EF"/>
<path d="M102.352 65.6779C102.588 65.3879 102.973 65.2081 103.302 65.0081C105.306 63.792 106.033 61.5804 106.958 59.5847C109.056 54.6795 114.473 51.4496 119.329 55.0527C121.412 56.5904 122.456 58.5528 123.434 60.9102C124.137 62.6237 125.119 64.2496 126.79 65.2235C127.054 65.3793 127.283 65.4175 127.413 65.7215C126.393 66.0756 125.608 66.3319 124.548 66.5893C122.44 67.1546 120.874 67.3271 118.761 67.6445C115.499 67.8651 114.037 67.8547 110.756 67.5944C110.555 67.5563 110.303 67.5347 110.094 67.5068C108.257 67.2602 106.527 66.8715 104.731 66.4256C104.019 66.2621 103.061 65.915 102.352 65.6779Z" fill="#50362E"/>
<path d="M109.964 45.2849C109.413 44.21 109.767 42.9586 110.857 42.3399C112.565 41.3712 115.432 41.3707 117.317 41.7638C119.303 42.1783 120.342 43.1595 119.804 45.2538C118.842 46.7654 117.568 47.3641 115.805 47.5925C115.765 51.9178 115.615 51.1428 119.207 52.9843C120.161 53.4795 121.041 54.1016 121.822 54.8331C122.827 55.7731 123.778 57.1161 124.386 58.3029C125.739 60.9435 126.563 64.2143 130.283 64.1156C130.61 64.107 130.917 64.0603 131.253 64.0485C130.867 64.2843 130.653 64.3897 130.244 64.5761C129.355 65.0105 128.34 65.3579 127.412 65.7215C127.282 65.4175 127.053 65.3794 126.789 65.2235C125.118 64.2497 124.136 62.6238 123.433 60.9102C122.455 58.5528 121.412 56.5904 119.328 55.0527C114.472 51.4496 109.055 54.6795 106.958 59.5847C106.033 61.5804 105.305 63.792 103.301 65.0081C102.972 65.2081 102.588 65.3879 102.351 65.678C101.318 65.3032 100.303 64.8851 99.3066 64.4247C99.0542 64.3369 98.8641 64.2148 98.6348 64.0809C98.7441 64.0674 99.2949 64.1085 99.4578 64.112C103.129 64.1923 104.027 61.0655 105.347 58.4173C105.929 57.2481 106.941 55.8073 107.939 54.8661C108.706 54.1515 109.563 53.5356 110.488 53.0331C111.245 52.6293 112.744 52.0702 113.304 51.5084C114.136 50.6741 113.955 48.6899 113.931 47.5771C113.546 47.5544 113.166 47.4893 112.796 47.3831C111.551 47.0317 110.596 46.4185 109.964 45.2849Z" fill="#17151A"/>
<path d="M109.964 45.2849C109.413 44.21 109.766 42.9586 110.857 42.3399C112.564 41.3712 115.432 41.3707 117.316 41.7638C119.303 42.1783 120.342 43.1595 119.803 45.2538C119.136 45.2188 118.931 45.2171 118.324 44.9038C118.418 44.5622 118.55 44.0727 118.311 43.8094C117.589 42.9693 116.532 43.9113 116.367 44.8201C116.126 46.1429 116.312 47.5961 114.39 47.2405C112.946 46.9731 113.938 43.9316 112.508 43.561C112.167 43.4729 111.385 43.533 111.34 43.9867C111.299 44.3055 111.452 44.6749 111.305 44.9268C110.879 45.2374 110.349 45.1481 109.964 45.2849Z" fill="#2E2A2E"/>
<path d="M128.324 25.8097C132.47 24.6225 140.814 28.5826 144.731 30.3116C148.611 32.0244 147.204 35.2811 145.47 38.0259C144.269 39.9555 142.165 43.8759 139.334 42.4726C138.862 42.1256 138.239 41.4284 137.77 40.9842C134.673 39.4197 128.269 30.8255 127.088 27.5045C127.192 26.6592 127.621 26.2519 128.324 25.8097Z" fill="#50362E"/>
<path d="M127.088 27.5044C127.192 26.6591 127.621 26.2518 128.324 25.8096C128.707 26.4853 129.178 27.1603 129.618 27.8052C132.251 31.665 134.577 35.7133 137.079 39.6534C137.32 40.032 137.681 40.5514 137.77 40.984C134.673 39.4195 128.269 30.8254 127.088 27.5044Z" fill="#9B5F40"/>
<path d="M90.3314 42.3894C89.3145 43.1157 88.3111 42.9745 87.3579 42.1753C85.54 40.6514 84.3472 38.4004 83.2107 36.3556C82.6394 35.3276 82.1359 33.7231 82.492 32.5384C82.9654 31.3177 84.8073 30.2556 85.9596 29.8012C89.2922 28.487 98.0017 24.4967 101.294 25.6664C102.148 26.1372 102.292 26.5031 102.477 27.4266C100.809 31.1389 98.2328 34.5165 95.541 37.5708C94.7889 38.4241 92.643 40.5699 91.6778 40.95C91.359 41.3267 90.6948 42.0954 90.3314 42.3894Z" fill="#50362E"/>
<path d="M101.294 25.6665C102.148 26.1373 102.292 26.5031 102.477 27.4267C100.809 31.139 98.2327 34.5166 95.5409 37.5709C94.7888 38.4241 92.6429 40.57 91.6777 40.9501C91.7551 40.5896 93.1954 38.4384 93.4826 37.9795C95.1543 35.2639 96.8441 32.5592 98.5519 29.8653C99.4073 28.5249 100.516 26.9689 101.294 25.6665Z" fill="#9B5F40"/>
<path d="M100.55 38.4293C102.391 38.3107 103.981 39.6788 104.105 41.4867C104.229 43.2946 102.839 44.8593 100.999 44.9837C99.1545 45.1084 97.5574 43.7391 97.4334 41.9271C97.3095 40.115 98.7058 38.5481 100.55 38.4293Z" fill="#2E2A2E"/>
<path d="M128.621 38.4973C130.453 38.2318 132.155 39.4795 132.418 41.2798C132.681 43.0803 131.404 44.7478 129.571 44.999C127.747 45.2488 126.061 44.0031 125.8 42.2127C125.538 40.4223 126.8 38.7612 128.621 38.4973Z" fill="#2E2A2E"/>
<path d="M90.5878 65.185C90.4945 65.004 89.6858 64.6303 89.4639 64.4278C85.8566 61.1356 89.402 60.3718 91.534 58.6868C92.7003 60.0572 93.5739 60.8924 95.0451 61.9811C95.5891 62.3373 96.983 63.2898 97.5378 63.4923C97.874 63.7053 98.2555 63.9587 98.6346 64.081C98.864 64.2149 99.054 64.337 99.3065 64.4247C99.0489 64.8513 98.5535 65.1272 98.2215 65.5179L98.0343 65.6482C97.3947 66.1965 95.3323 68.0512 94.7488 68.4477C93.1419 69.0603 90.3823 66.8986 90.5878 65.185Z" fill="#3570DE"/>
<path d="M90.5878 65.185C90.4945 65.004 89.6858 64.6303 89.4639 64.4278C85.8566 61.1356 89.402 60.3718 91.534 58.6868C92.7003 60.0572 93.5739 60.8924 95.0451 61.9811L94.3628 62.544C93.0912 63.4628 91.8464 64.2133 90.5878 65.185Z" fill="#65AAFD"/>
<path d="M95.0456 61.9812C95.5896 62.3374 96.9834 63.2899 97.5382 63.4925C97.8744 63.7054 98.256 63.9588 98.6351 64.0811C98.8644 64.215 99.0545 64.3371 99.3069 64.4249C99.0493 64.8514 98.554 65.1273 98.2219 65.518L98.0347 65.6483C97.3595 64.76 96.5028 63.9629 95.5292 63.4018C95.0948 63.1516 94.6365 62.9658 94.3633 62.5441L95.0456 61.9812Z" fill="#2052B6"/>
<path d="M138.045 58.8071C139.885 59.9645 142.842 61.1039 141.002 63.489C140.508 64.1294 139.675 64.9463 138.861 65.1098C139.707 66.6164 136.464 69.0955 134.702 68.4412C133.993 67.7337 132.331 66.4417 131.506 65.7862L131.35 65.7045C131.033 65.3 130.444 65.0234 130.244 64.5761C130.653 64.3898 130.867 64.2843 131.253 64.0485C131.436 63.9658 131.804 63.7363 131.992 63.6268C132.568 63.4858 134.03 62.4441 134.58 62.0747C136.02 61.0318 136.923 60.1496 138.045 58.8071Z" fill="#3570DE"/>
<path d="M138.045 58.8071C139.885 59.9645 142.842 61.1039 141.002 63.489C140.508 64.1294 139.675 64.9463 138.861 65.1098C138.035 64.4387 136.564 63.5183 135.617 62.8485C135.296 62.6395 134.809 62.3583 134.58 62.0747C136.02 61.0318 136.923 60.1496 138.045 58.8071Z" fill="#65AAFD"/>
<path d="M134.58 62.0747C134.809 62.3584 135.296 62.6395 135.617 62.8486L135.566 62.8754C135.284 63.0204 134.825 63.1753 134.492 63.326C133.157 63.929 132.467 64.719 131.506 65.7862L131.35 65.7045C131.033 65.3 130.444 65.0235 130.244 64.5762C130.653 64.3898 130.867 64.2844 131.253 64.0486C131.436 63.9658 131.804 63.7363 131.992 63.6269C132.568 63.4858 134.03 62.4442 134.58 62.0747Z" fill="#2052B6"/>
</g>
</g>
<defs>
<clipPath id="clip0_650_13378">
<rect width="161" height="72" rx="36" fill="white"/>
</clipPath>
<clipPath id="clip1_650_13378">
<rect width="80" height="80" fill="white" transform="translate(10 -1.86035)"/>
</clipPath>
<clipPath id="clip2_650_13378">
<rect width="76" height="84" fill="white" transform="translate(81.5156 11.6755)"/>
</clipPath>
</defs>
</svg>
