<svg width="80" height="80" viewBox="0 0 80 80" fill="none" xmlns="http://www.w3.org/2000/svg">
<g clip-path="url(#clip0_493_55080)">
<path d="M25.0323 19.8186C25.0547 19.7383 25.0779 19.6582 25.1019 19.5783C25.2216 19.1803 25.3818 18.732 25.5354 18.3387C26.6267 15.5453 27.4167 12.5492 28.7495 9.87054C28.9793 9.40877 29.6588 8.88983 30.1047 8.65584C30.811 8.29233 31.6043 8.13189 32.3963 8.19239C35.8715 8.44922 37.1304 12.0037 40.4999 11.8832C42.4119 11.8149 43.7161 9.88573 45.3321 9.0112C47.5899 7.85985 50.2694 7.7847 51.5931 10.4827C52.3387 12.0024 52.7466 13.7453 53.3799 15.3152C53.8595 16.7295 54.5838 18.4376 54.9675 19.8252C55.5155 21.1931 55.9351 22.5182 56.4533 23.8531C56.7232 23.9779 56.8813 23.857 57.1662 23.7678C61.3297 22.4766 66.9526 18.289 71.3221 20.0768C74.4988 21.3765 74.7043 26.2231 73.285 28.9108C71.925 31.4863 70.6957 32.5762 68.3552 34.2366C68.7744 34.8322 69.0918 35.318 69.4317 35.967C68.1249 36.9062 66.8696 38.2041 65.578 39.1384C65.5932 39.4552 66.4714 41.0989 66.6298 41.5439C66.9863 42.5457 67.3862 43.4705 67.623 44.5363C67.8108 45.3762 67.9394 46.2284 68.0078 47.0864C68.1186 48.6535 68.0663 51.6417 68.0541 53.275C68.0349 55.8223 68.2579 59.9669 67.7119 62.3243C67.2276 64.4383 66.2647 66.413 64.8974 68.0965C64.3817 68.737 63.5379 69.6576 62.9068 70.1975L62.8999 70.2593C62.683 72.3522 63.5239 74.3458 61.4002 76.1474C60.4332 76.9676 59.4136 77.1762 58.1815 77.1222C57.2353 77.0807 56.1797 76.2209 55.7903 76.1616C55.1193 76.3988 54.1082 76.8211 53.4654 76.9961C52.3316 77.5912 50.1885 78.3305 48.9977 78.7636C46.6317 79.6242 45.1036 79.8605 42.743 78.929C42.0811 78.6678 41.0127 78.4415 40.27 78.405C38.8503 78.3354 37.5171 78.8664 36.1632 79.2833C33.8212 80.0044 31.5267 78.9572 29.3425 78.1578C28.4814 77.8427 27.3127 77.4284 26.4971 77.0302C25.7218 76.7345 24.9023 76.4052 24.1144 76.1589C20.5715 78.5604 16.6145 76.2022 17.156 71.8988C17.1958 71.5825 17.1625 70.3608 17.0536 70.1208C14.9801 68.405 13.3585 65.8645 12.5571 63.3037C12.2723 62.4162 12.0836 61.5006 11.9943 60.5728C11.8611 59.0835 11.9169 56.2993 11.9369 54.724C11.9748 51.752 11.7295 48.3589 12.2017 45.4724C12.5504 43.3405 13.491 41.1227 14.4851 39.2193C13.5988 38.4714 11.4507 36.5354 10.5679 35.9883C10.9059 35.3684 11.2458 34.8298 11.6242 34.2327C10.0921 33.0714 8.9548 32.3667 7.78166 30.7249C6.50317 28.9681 5.45951 26.3647 5.91728 24.1279C7.28464 17.4476 13.2409 19.6867 17.3057 21.452L20.9487 23.0247C21.6111 23.3069 22.8316 23.8726 23.5033 23.9597C23.9608 22.6841 24.5075 21.0312 25.0323 19.8186Z" fill="#FEE6C5"/>
<path d="M25.0323 19.8186C25.0547 19.7383 25.0779 19.6582 25.1019 19.5783C25.2216 19.1803 25.3818 18.732 25.5354 18.3387C26.6267 15.5453 27.4167 12.5492 28.7495 9.87054C28.9793 9.40877 29.6588 8.88983 30.1047 8.65584C30.811 8.29233 31.6043 8.13189 32.3963 8.19239C35.8715 8.44922 37.1304 12.0037 40.4999 11.8832C42.4119 11.8149 43.7161 9.88573 45.3321 9.0112C47.5899 7.85985 50.2694 7.7847 51.5931 10.4827C52.3387 12.0024 52.7466 13.7453 53.3799 15.3152C53.8595 16.7295 54.5838 18.4376 54.9675 19.8252C55.5155 21.1931 55.9351 22.5182 56.4533 23.853C56.4257 23.9066 56.3921 23.9717 56.3526 24.0486C55.5313 24.421 54.3345 24.7657 53.5252 25.0522C53.5393 26.9242 51.3704 28.4835 50.9728 29.3849C49.4372 29.7612 47.6633 30.0624 46.0947 30.2948C45.3682 30.2921 43.6295 30.5679 42.7207 30.6165C39.7792 30.7887 36.8281 30.6827 33.9066 30.3C33.4887 30.2915 32.1459 30.0436 31.7076 29.9652C29.8224 29.6289 27.9464 29.2427 26.0815 28.8073C25.2631 29.2029 24.0757 29.6848 23.3304 30.099C19.949 31.9783 16.3292 35.7851 14.4851 39.2193C13.5988 38.4714 11.4507 36.5354 10.5679 35.9883C10.9059 35.3684 11.2458 34.8297 11.6242 34.2327C10.0921 33.0714 8.9548 32.3667 7.78166 30.7249C6.50317 28.9681 5.45951 26.3647 5.91728 24.1279C7.28464 17.4476 13.2409 19.6867 17.3057 21.452L20.9487 23.0247C21.6111 23.3069 22.8316 23.8726 23.5033 23.9597C23.9608 22.6841 24.5075 21.0312 25.0323 19.8186Z" fill="#FE92B6"/>
<path d="M25.0322 19.8186C25.0547 19.7383 25.0779 19.6582 25.1018 19.5783C25.2215 19.1803 25.3818 18.732 25.5354 18.3387C26.6266 15.5453 27.4167 12.5492 28.7494 9.87054C28.9793 9.40877 29.6587 8.88983 30.1046 8.65584C30.8109 8.29233 31.6042 8.13189 32.3962 8.19239C35.8715 8.44922 37.1303 12.0037 40.4998 11.8832C42.4118 11.8149 43.716 9.88573 45.332 9.0112C47.5898 7.85985 50.2694 7.7847 51.5931 10.4827C52.3387 12.0024 52.7465 13.7453 53.3799 15.3152C53.8595 16.7295 54.5838 18.4376 54.9674 19.8252C53.1866 19.895 51.2636 19.8568 49.4718 19.8524L49.4065 19.829C48.2683 19.9125 46.4126 19.8595 45.2444 19.8596L37.4584 19.8588L29.4994 19.8629C28.2097 19.863 26.284 19.9118 25.0322 19.8186Z" fill="#FE92B6"/>
<path d="M45.332 9.01119C47.5898 7.85985 50.2694 7.7847 51.5931 10.4827C52.3387 12.0024 52.7465 13.7453 53.3799 15.3152C53.8595 16.7295 54.5838 18.4376 54.9674 19.8252C53.1866 19.895 51.2636 19.8568 49.4718 19.8524L49.4065 19.829C48.6639 17.1363 47.6173 14.3494 46.5838 11.7578C46.3127 11.0781 45.6986 9.59411 45.332 9.01119Z" fill="#FE709A"/>
<path d="M49.4716 19.8524C51.2633 19.8568 53.1863 19.895 54.9672 19.8252C55.5152 21.1931 55.9347 22.5182 56.453 23.8531C56.4254 23.9066 56.3918 23.9717 56.3522 24.0486C55.531 24.421 54.3342 24.7657 53.5249 25.0522C52.3617 25.3841 51.2926 25.6813 50.1152 25.953C46.1976 26.8671 41.2333 27.1613 37.2392 26.9594C33.1522 26.7531 29.1134 25.982 25.238 24.668C24.9007 24.5564 23.6979 24.1754 23.5029 23.9597C23.9604 22.6841 24.5072 21.0312 25.032 19.8186C26.2837 19.9118 28.2094 19.863 29.4991 19.8629L37.4581 19.8588L45.2442 19.8596C46.4124 19.8596 48.268 19.9125 49.4062 19.829L49.4716 19.8524Z" fill="#CF385C"/>
<path d="M49.4717 19.8524C51.2634 19.8568 53.1864 19.895 54.9673 19.8252C55.5153 21.1931 55.9348 22.5182 56.4531 23.8531C56.4255 23.9066 56.3919 23.9717 56.3523 24.0486C55.5311 24.421 54.3342 24.7657 53.525 25.0522C52.3618 25.3841 51.2927 25.6813 50.1153 25.9529C50.1598 23.4504 49.9478 22.262 49.4717 19.8524Z" fill="#A42243"/>
<path d="M11.6237 34.2327C13.2004 32.2287 14.5663 30.4692 16.847 29.1416C20.0812 27.259 22.6897 27.893 26.081 28.8073C25.2626 29.2029 24.0752 29.6848 23.3299 30.0991C19.9485 31.9783 16.3287 35.7851 14.4846 39.2193C13.5983 38.4714 11.4502 36.5354 10.5674 35.9883C10.9054 35.3684 11.2453 34.8298 11.6237 34.2327Z" fill="#AC5B27"/>
<path d="M56.4534 23.8531C56.7233 23.9779 56.8814 23.8571 57.1663 23.7678C61.3297 22.4766 66.9527 18.2891 71.3222 20.0768C74.4989 21.3765 74.7044 26.2231 73.2851 28.9108C71.9251 31.4863 70.6958 32.5762 68.3553 34.2366C68.7744 34.8322 69.0919 35.318 69.4318 35.967C68.125 36.9062 66.8697 38.2042 65.578 39.1384C65.5933 39.4552 66.4715 41.0989 66.6299 41.5439C66.9864 42.5457 67.3863 43.4705 67.6231 44.5363C67.8109 45.3762 67.9395 46.2284 68.0078 47.0864C68.1187 48.6535 68.0664 51.6417 68.0541 53.275C68.0349 55.8223 68.258 59.9669 67.712 62.3243C67.2277 64.4383 66.2648 66.413 64.8975 68.0965C64.3818 68.737 63.538 69.6576 62.9069 70.1975C62.8529 69.7447 62.9061 68.0097 62.9046 67.4754C62.8953 64.2423 63.0915 61.4628 62.1761 58.2838C60.6767 53.0769 57.3258 48.7909 52.8527 45.7822C51.5642 44.9156 50.3307 44.4884 49.074 43.7827C48.9867 42.8991 48.5175 41.7778 48.2938 40.9276C47.4643 37.7741 45.3963 33.496 46.0948 30.2948C47.6634 30.0624 49.4373 29.7612 50.9729 29.385C51.3705 28.4835 53.5394 26.9242 53.5253 25.0522C54.3346 24.7657 55.5314 24.421 56.3526 24.0486C56.3922 23.9718 56.4258 23.9066 56.4534 23.8531Z" fill="#D57F42"/>
<path d="M56.4532 23.8531C56.7231 23.9779 56.8811 23.8571 57.1661 23.7678C61.3295 22.4766 66.9524 18.2891 71.3219 20.0768C74.4986 21.3765 74.7041 26.2231 73.2848 28.9108C71.9248 31.4863 70.6956 32.5762 68.3551 34.2366C68.7742 34.8322 69.0916 35.318 69.4315 35.967C68.1247 36.9062 66.8694 38.2042 65.5778 39.1384C65.3017 38.9351 63.4741 36.0811 62.9914 35.5154C60.8107 32.9599 58.3061 30.6766 55.1546 29.3714C54.6576 29.1656 54.2601 29.0707 53.8342 28.8033C53.279 28.9252 51.4575 29.3589 50.9727 29.385C51.3702 28.4835 53.5392 26.9242 53.5251 25.0522C54.3343 24.7657 55.5312 24.421 56.3524 24.0486C56.392 23.9718 56.4255 23.9066 56.4532 23.8531Z" fill="#FE709A"/>
<path d="M53.834 28.8033C57.1825 27.9062 59.9531 27.2336 63.1049 29.1147C65.2908 30.4193 66.887 32.1858 68.3548 34.2366C68.7739 34.8322 69.0914 35.318 69.4313 35.9669C68.1245 36.9062 66.8692 38.2041 65.5775 39.1384C65.3015 38.9351 63.4738 36.081 62.9912 35.5154C60.8105 32.9598 58.3059 30.6766 55.1544 29.3714C54.6573 29.1656 54.2598 29.0707 53.834 28.8033Z" fill="#AC5B27"/>
<path d="M53.9418 39.0943C54.8895 38.9691 55.8313 39.3633 56.4074 40.1261C56.9835 40.8889 57.1049 41.9026 56.7253 42.7799C56.3456 43.6572 55.5236 44.2626 54.5731 44.3648C53.128 44.5201 51.8267 43.4845 51.6538 42.0414C51.481 40.5983 52.5009 39.2846 53.9418 39.0943Z" fill="#474249"/>
<path d="M26.0814 28.8073C27.9463 29.2427 29.8223 29.6289 31.7075 29.9652C32.1458 30.0436 33.4886 30.2915 33.9065 30.3C34.037 30.9273 34.1675 31.6108 34.092 32.2672C33.7452 35.2801 32.4422 38.3375 31.6066 41.263C31.4497 41.8124 30.9394 43.2915 30.8872 43.7964C29.7878 44.3413 28.4631 44.9553 27.443 45.61C23.1421 48.3702 19.7896 52.4659 18.1342 57.3153C17.0581 60.4677 17.0909 63.278 17.1304 66.5308C17.1371 67.0852 17.2059 69.8585 17.0535 70.1208C14.98 68.405 13.3584 65.8645 12.557 63.3037C12.2722 62.4162 12.0835 61.5006 11.9942 60.5728C11.861 59.0835 11.9168 56.2993 11.9368 54.724C11.9747 51.752 11.7294 48.3589 12.2016 45.4724C12.5503 43.3405 13.4909 41.1227 14.485 39.2193C16.3291 35.7851 19.9489 31.9783 23.3303 30.099C24.0756 29.6848 25.263 29.2029 26.0814 28.8073Z" fill="#D57F42"/>
<path d="M25.3863 39.0918C26.8348 38.8976 28.1677 39.9112 28.3676 41.359C28.5675 42.8067 27.5591 44.1436 26.1121 44.3491C24.6571 44.5558 23.3112 43.5406 23.1102 42.0848C22.9093 40.629 23.9297 39.2871 25.3863 39.0918Z" fill="#474249"/>
<path d="M26.4971 77.0302C29.7996 73.1278 25.1481 67.0185 31.1208 62.5452C32.4191 61.5729 34.0317 60.911 35.6532 60.7711C37.1465 60.6423 38.6889 60.7227 40.1879 60.7299C43.6458 60.7465 46.4651 60.4617 49.2949 62.8714C51.0351 64.3534 52.0192 66.4292 52.198 68.6944C52.4123 71.4093 51.5771 74.756 53.4654 76.9961C52.3316 77.5912 50.1885 78.3305 48.9976 78.7636C46.6316 79.6242 45.1035 79.8605 42.743 78.929C42.081 78.6678 41.0126 78.4415 40.2699 78.405C38.8502 78.3353 37.5171 78.8664 36.1632 79.2833C33.8211 80.0044 31.5267 78.9572 29.3425 78.1578C28.4813 77.8427 27.3126 77.4284 26.4971 77.0302Z" fill="#FED59F"/>
<path d="M38.8227 51.6235C37.6428 51.6442 36.6738 51.4517 35.7785 50.5898C35.0248 49.8738 34.5968 48.8807 34.5939 47.8411C34.589 46.8695 34.9751 45.9367 35.6654 45.2528C37.0446 43.9028 39.6159 44.3174 41.4346 44.2767C46.7985 44.1566 46.8239 51.5959 41.19 51.6338C41.1853 52.9713 40.8993 56.0485 41.7914 56.8894C42.9062 57.9403 44.6054 57.4637 46.3405 57.9378C51.3253 59.3 54.6406 63.3293 54.5348 68.5635C54.5032 70.1239 54.4463 72.5839 54.6495 74.1338C54.7167 74.6464 55.7563 76.033 55.7902 76.1615C55.1192 76.3988 54.1081 76.8211 53.4653 76.9961C51.577 74.756 52.4122 71.4093 52.1979 68.6944C52.0191 66.4292 51.0351 64.3534 49.2948 62.8714C46.465 60.4617 43.6457 60.7465 40.1878 60.7299C38.6888 60.7227 37.1464 60.6423 35.6531 60.7711C34.0316 60.9109 32.419 61.5729 31.1207 62.5452C25.148 67.0184 29.7995 73.1278 26.497 77.0302C25.7216 76.7345 24.9022 76.4052 24.1143 76.1589C25.6153 74.5471 25.4843 73.41 25.4878 71.3567C25.492 68.902 25.2408 66.3609 26.3079 64.0747C27.7964 60.6772 31.1157 58.2437 34.7708 57.7123C35.7195 57.5744 37.0495 57.7325 37.8776 57.1911C39.3041 56.2585 38.8009 53.2113 38.8227 51.6235Z" fill="#474249"/>
<path d="M33.906 30.3C36.8275 30.6827 39.7786 30.7887 42.7201 30.6164C43.6289 30.5679 45.3676 30.2921 46.0941 30.2948C45.3957 33.4959 47.4636 37.7741 48.2932 40.9275C48.5168 41.7778 48.986 42.8991 49.0734 43.7827C48.0071 43.5061 46.9705 43.0542 45.885 42.7627C42.1932 41.7705 38.3106 41.7261 34.597 42.6336C33.2825 42.9461 31.8868 43.5647 30.8867 43.7964C30.9389 43.2915 31.4492 41.8124 31.6062 41.263C32.4418 38.3374 33.7447 35.2801 34.0915 32.2672C34.1671 31.6108 34.0365 30.9273 33.906 30.3Z" fill="#FED59F"/>
</g>
<defs>
<clipPath id="clip0_493_55080">
<rect width="80" height="80" fill="white"/>
</clipPath>
</defs>
</svg>
