<svg width="90" height="72" viewBox="0 0 90 72" fill="none" xmlns="http://www.w3.org/2000/svg">
<rect width="90" height="72" rx="36" fill="#FFB806"/>
<path d="M45.0006 36.0005C45.0006 36.0005 43.6766 48.1475 35.4076 56.4615C27.1396 64.7745 15.0576 66.1055 15.0576 66.1055C15.0576 66.1055 16.3816 53.9575 24.6496 45.6445C32.9186 37.3315 45.0006 36.0005 45.0006 36.0005Z" fill="#FC6432"/>
<path d="M74.9425 5.89551C74.9425 5.89551 73.6195 18.0425 65.3505 26.3555C57.0815 34.6695 45.0005 36.0005 45.0005 36.0005C45.0005 36.0005 46.3235 23.8525 54.5925 15.5395C62.8615 7.2255 74.9425 5.8945 74.9425 5.8945V5.89551Z" fill="#FC6432"/>
<path d="M45.0016 36.0005C45.0016 36.0005 32.9187 34.6695 24.6497 26.3565C16.3807 18.0435 15.0566 5.89751 15.0566 5.89751C15.0566 5.89751 27.1387 7.2285 35.4077 15.5415C43.6777 23.8545 45.0016 36.0015 45.0016 36.0015V36.0005Z" fill="#FC6432"/>
<path d="M74.9435 66.1045C74.9435 66.1045 62.8615 64.7735 54.5925 56.4615C46.3235 48.1485 44.9995 36.0015 44.9995 36.0015C44.9995 36.0015 57.0815 37.3325 65.3505 45.6455C73.6195 53.9585 74.9435 66.1045 74.9435 66.1045Z" fill="#FC6432"/>
</svg>
