<svg width="80" height="80" viewBox="0 0 80 80" fill="none" xmlns="http://www.w3.org/2000/svg">
<g clip-path="url(#clip0_493_55085)">
<path d="M56.4111 21.5361C57.7561 20.842 60.6867 21.9352 62.1046 22.3476C65.0094 23.1924 75.5702 25.8757 76.8565 27.8916C77.6795 29.1814 76.6939 31.7652 76.2692 33.1135C75.6608 35.0453 74.0336 40.5466 72.261 41.502C71.8904 41.7018 71.4423 41.6991 71.0439 41.5867C70.4395 41.4162 69.7862 40.9442 69.1763 40.8987C69.8906 45.2838 69.8651 48.8454 69.8741 53.2915C69.8804 56.4247 70.1663 59.4253 69.4625 62.5447C68.9743 64.701 68.032 66.738 66.6937 68.5297C65.2591 70.4341 63.5192 71.9762 61.5153 73.3086C60.3726 73.996 59.1645 74.872 58.1133 75.4869C57.1042 76.0603 56.0449 76.6164 54.9683 77.0643C46.3073 80.9974 33.366 80.7937 24.6494 77.0496C23.6255 76.6249 22.6445 76.1099 21.7189 75.5114C21.4686 75.4016 19.3891 73.8653 18.8078 73.5034C15.8343 71.6899 13.3762 69.212 11.7877 66.1763C10.8627 64.4087 10.336 62.4759 10.085 60.5166C9.67726 57.333 9.99926 43.5219 10.9161 40.844C10.6983 40.9616 10.4767 41.0725 10.2515 41.1764C9.64246 41.4515 8.71475 41.8274 8.06359 41.5632C7.18851 41.2083 6.06812 39.1385 5.73874 38.197C5.1092 36.6215 2.20955 29.3785 3.10909 28.0737C4.97694 25.3643 15.9073 23.1 19.3211 21.9111C20.8109 21.3923 22.6594 21.1669 23.6625 21.5747C24.9403 22.5056 26.0743 25.3014 26.7966 26.8047C26.9833 26.9375 26.9453 26.9594 27.1976 26.9032C33.2462 25.5559 39.7395 25.3123 45.9255 25.7874C47.5437 25.9005 49.1524 26.1151 50.7416 26.4299C51.3307 26.5519 52.8797 26.9921 53.3182 26.7959C53.5661 27.1259 56.618 28.0377 57.0982 28.1319C57.0809 27.9728 57.0688 27.8131 57.0619 27.6531C57.0231 26.621 57.3921 26.0667 58.0997 25.339C57.4594 24.657 56.78 22.5023 56.4111 21.5361Z" fill="#6B707E"/>
<path d="M18.8075 73.5034C18.9627 72.657 18.2594 71.3884 18.0825 70.5101C17.2315 66.2844 18.5973 61.8336 20.9668 58.2568C27.6648 48.2252 40.5858 44.0749 51.4223 50.9354C58.0958 55.1604 63.1842 62.2433 62.0484 70.3076C61.9022 71.3458 61.2468 72.1586 61.5045 73.2651L61.5149 73.3086C60.3723 73.996 59.1641 74.872 58.1129 75.4869C57.1039 76.0602 56.0446 76.6164 54.968 77.0643C46.307 80.9974 33.3656 80.7937 24.6491 77.0496C23.6252 76.6248 22.6442 76.1099 21.7186 75.5114C21.4682 75.4016 19.3888 73.8653 18.8075 73.5034Z" fill="#848895"/>
<path d="M24.6494 77.0496L24.7356 77.0072C25.9312 76.4316 26.9262 76.5574 28.1554 75.5643C30.0053 74.0697 30.3827 72.16 32.122 70.5066C34.3355 68.4022 38.3542 67.0944 39.9933 64.5774C41.8718 67.2585 45.0065 68.0887 47.4549 70.1892C49.4589 71.9084 49.8474 73.8173 51.8227 75.5183C52.9146 76.4586 54.3043 76.5365 54.9683 77.0643C46.3073 80.9974 33.366 80.7937 24.6494 77.0496Z" fill="#6B707E"/>
<path d="M38.9501 57.9978C37.0732 57.8527 34.9781 57.8508 33.6443 56.3459C32.9415 55.5527 32.6357 54.3019 32.743 53.2792C32.8286 52.3727 33.2981 51.5403 34.0411 50.9776C35.8796 49.5572 39.3402 49.9125 41.581 49.9038C42.4819 49.9002 43.5023 50.0078 44.3795 50.2C47.6296 50.9125 48.2455 55.0805 45.7148 56.9382C44.4028 57.8988 42.6159 57.902 41.0401 57.9334C40.9963 59.9781 40.678 62.7094 42.3348 64.2211C44.6231 66.3089 47.1395 67.0819 49.4941 69.3518C51.4576 71.2446 51.6631 72.9839 53.7534 74.5684C55.0406 75.5441 57.6816 75.2736 58.1131 75.4869C57.104 76.0603 56.0447 76.6164 54.9681 77.0643C54.3041 76.5365 52.9144 76.4586 51.8225 75.5183C49.8472 73.8174 49.4587 71.9084 47.4547 70.1892C45.0063 68.0887 41.8716 67.2586 39.9931 64.5774C38.354 67.0944 34.3352 68.4023 32.1218 70.5066C30.3825 72.1601 30.0051 74.0697 28.1552 75.5643C26.926 76.5574 25.931 76.4317 24.7354 77.0072L24.6492 77.0496C23.6253 76.6249 22.6443 76.1099 21.7188 75.5114C22.8864 75.0249 24.5049 75.7645 26.171 74.6146C28.2959 73.1481 28.6971 71.0838 30.4671 69.3427C32.8058 66.9187 36.8955 65.8749 38.4384 63.1028C39.1606 61.8053 38.9901 59.4658 38.9501 57.9978Z" fill="#464A55"/>
<path d="M42.0754 53.1018L42.1229 53.0994C44.7249 52.9929 44.3412 55.3238 42.8727 56.6743C41.4904 57.6159 41.2367 57.5293 41.3866 55.8581C41.4728 54.8983 41.22 53.7017 42.0754 53.1018Z" fill="#323238"/>
<path d="M37.0634 53.114C37.4196 53.0955 38.37 53.1513 38.4296 53.5354C38.5312 54.1906 38.6963 56.784 38.5186 57.2648C38.2154 57.3218 38.2549 57.2822 37.941 57.1593C36.3981 56.2414 34.736 54.1829 37.0634 53.114Z" fill="#323238"/>
<path d="M56.4111 21.5361C57.7562 20.842 60.6867 21.9352 62.1046 22.3476C65.0095 23.1924 75.5703 25.8757 76.8566 27.8916C77.6795 29.1814 76.6939 31.7652 76.2692 33.1135C75.6609 35.0453 74.0336 40.5466 72.2611 41.502C71.8905 41.7018 71.4423 41.6991 71.044 41.5867C70.4395 41.4162 69.7863 40.9442 69.1763 40.8987C68.559 40.082 66.7869 38.5028 65.8273 37.2926C65.572 37.4803 65.2798 37.7073 65.0219 37.8828C62.4034 38.6744 60.8932 36.969 61.0371 34.5274C59.9977 35.3328 58.7652 35.7128 57.5129 35.073C56.829 34.7196 56.3235 34.1136 56.1124 33.3944C55.9108 32.724 56.0003 32.0035 56.3605 31.3978C56.949 30.4178 57.8183 30.1825 58.8498 29.9129C57.8054 29.3693 57.6029 29.1135 57.0983 28.1319C57.081 27.9728 57.0688 27.8131 57.062 27.6531C57.0232 26.621 57.3921 26.0667 58.0997 25.339C57.4594 24.657 56.7801 22.5023 56.4111 21.5361Z" fill="#6B707E"/>
<path d="M62.6212 26.5514C63.1569 25.5724 63.6271 24.697 64.8341 24.3263C65.5272 24.1176 66.2786 24.188 66.9169 24.5215C67.5737 24.8628 68.06 25.4447 68.2658 26.1355C68.635 27.359 68.0414 28.3292 67.1613 29.157C68.9663 29.1944 70.8926 29.811 70.8114 31.9074C70.7855 32.6123 70.4669 33.2779 69.9272 33.7549C68.859 34.6959 67.5214 34.5301 66.2884 34.0429C66.8225 35.4882 66.7765 36.0511 65.8273 37.2926C65.572 37.4803 65.2798 37.7073 65.0219 37.8828C62.4034 38.6744 60.8932 36.969 61.0371 34.5274C59.9977 35.3328 58.7652 35.7128 57.5129 35.073C56.829 34.7196 56.3235 34.1136 56.1124 33.3944C55.9108 32.7239 56.0003 32.0035 56.3605 31.3977C56.949 30.4178 57.8183 30.1824 58.8498 29.9129C57.8054 29.3693 57.6029 29.1135 57.0983 28.1319C57.081 27.9728 57.0688 27.8131 57.062 27.6531C57.0232 26.621 57.3921 26.0667 58.0997 25.339C60.0453 24.3312 61.4832 24.7046 62.6212 26.5514Z" fill="#FE6C52"/>
<path d="M63.0259 28.377C64.2304 28.323 65.2608 29.202 65.3505 30.3599C65.4401 31.5178 64.5566 32.5341 63.3571 32.6528C62.5508 32.7326 61.7633 32.3842 61.3007 31.7433C60.8381 31.1024 60.7736 30.2701 61.1323 29.5702C61.491 28.8703 62.2162 28.4133 63.0259 28.377Z" fill="#FED56C"/>
<path d="M23.6619 21.5747C24.9397 22.5056 26.0737 25.3014 26.796 26.8047C26.5638 27.1526 25.2549 27.4533 24.7803 27.6344C23.3036 28.1981 21.5214 28.9044 20.3026 29.8995C19.4758 30.7682 18.8644 32.0284 18.3259 33.0549C17.3066 34.9981 13.5406 41.1689 11.1837 40.9574L11.0859 40.8352C11.2785 40.4626 12.5297 39.3642 12.9514 38.923C13.6042 38.2486 14.2197 37.5418 14.7954 36.8052C16.3939 34.7858 18.0575 32.7019 19.3355 30.4819C21.0097 27.5733 22.3925 24.6599 23.6619 21.5747Z" fill="#464A55"/>
<path d="M65.8268 37.2926C66.7865 38.5027 68.5586 40.0819 69.1759 40.8987C67.498 41.1497 65.8517 39.0685 65.0215 37.8828C65.2794 37.7073 65.5716 37.4803 65.8268 37.2926Z" fill="#464A55"/>
<path d="M25.8634 43.1975C27.179 42.8336 28.5507 43.571 28.9194 44.8405C29.2881 46.1099 28.5127 47.4256 27.1919 47.7719C25.884 48.1146 24.534 47.3769 24.1689 46.1199C23.8039 44.8629 24.5605 43.5577 25.8634 43.1975Z" fill="#323238"/>
<path d="M52.7696 43.2013C54.0833 42.8367 55.4538 43.5742 55.8197 44.8428C56.1856 46.1114 55.4065 47.4238 54.0856 47.7637C52.7827 48.0992 51.4424 47.3613 51.0815 46.11C50.7206 44.8587 51.4737 43.5611 52.7696 43.2013Z" fill="#323238"/>
<path d="M53.3184 26.7958C54.0085 25.2272 55.0002 22.4944 56.4112 21.5361C56.7802 22.5023 57.4595 24.657 58.0998 25.339C57.3922 26.0667 57.0233 26.6209 57.0621 27.6531C57.0689 27.8131 57.0811 27.9727 57.0984 28.1319C56.6182 28.0376 53.5662 27.1259 53.3184 26.7958Z" fill="#464A55"/>
</g>
<defs>
<clipPath id="clip0_493_55085">
<rect width="80" height="80" fill="white"/>
</clipPath>
</defs>
</svg>
